<svg xmlns="http://www.w3.org/2000/svg" width="2400" height="1600" viewBox="0 0 2400 1600">
  <style>
    @-webkit-keyframes draw { to { stroke-dashoffset: 0; } } @keyframes draw { to { stroke-dashoffset: 0; } } .path { animation: draw 10s linear infinite; stroke-dasharray : 100, 10, 200, 10; stroke-dashoffset: 1000; stroke-width: 1px; stroke: #B2C6D7; fill: none; } .path-01 { -webkit-animation-delay: 0s; animation-delay: 0s; } .path-02 { -webkit-animation-delay: 1s; animation-delay: 1s; } .path-03 { -webkit-animation-delay: 2s; animation-delay: 2s; } .path-04 { -webkit-animation-delay: 3s; animation-delay: 3s; }
  </style>
  <g id="module-01" fill="none" fill-rule="evenodd" class="path path-01" stroke-linejoin="round">
    <g id="C22">
      <path d="M0 239h24l32 32v124l12 12v4"/>
      <path d="M0 247h20l29 29v124l3 3v8"/>
      <path d="M0 271h7l16 16v121l-11.04536 11.04536L12 487v9l-13 13"/>
      <path d="M-1 521l21-21v-76l12-12V284l-21-21H0"/>
      <path d="M-1 556v-24l29-29v-75l12-12V279l-24-24H0"/>
    </g>
    <g id="C21">
      <path d="M300 476h60l16.03122-16.03122h94.968785M0 156h76l44 44v116l36 36h20l32 32v16l-12 12v40l32 32h24m48 0h91l4-4h69l4-4h8l44 44h36"/>
      <path d="M300 468h56l16-16h4l4-4M0 132h88l56 56v108l80 80v32l-12 12v24l24 24h16"/>
      <path d="M300 460h52l32-32m-160 4v12l16 16h12"/>
      <path d="M300 452h47l29-29v-3l9-9M136 127v9l16 16v140l80 80v36l4 4v32l8 8h8"/>
      <path d="M300 444h16l4-4h16m12 272h-20l-24-24V524l-8-8v-28m-52-92v44l4 4h4"/>
      <path d="M264 440v-60l-96-96V144l-8-8v-9m100 477l-.015615-47.984365-12.015605-12.015604v-15.96881L264 512v-24"/>
      <path d="M256 440v-56l-96-96V148l-12-12v-21m91 406l17-17v-16"/>
      <path d="M272 440v-64l-96-96V140l-4-4v-20m87 416v-3l13-13v-28m0 60v-20l8-8v-32m8-48v-88l16-16v-9m44 393h-25l-27-27V529l-8-8v-33"/>
      <path d="M296 440v-84l20-20v-20M0 148l79.989585-.010416L128 196v116l16 16h20l52 52v24l-12 12.285714v32.285715L231.42857 476H252"/>
    </g>
    <g id="C14">
      <path d="M580 196h16l12 12v16l24 24h92l5-5h7"/>
      <path d="M580 188h20l16 16v16l20 20h84.005952l7.997025-7.997024H788l13.001488-13.001488L802 218v-47M688.05579 370.99653h-9.052317L676 367.99306h-43.993057L604.013886 340v-72.986114L568 231v-15m-260.000025-48.033296h20.96673L344 183h100l29 29h59"/>
      <path d="M580 212h8l4 4v16l28 28v36l56 56h28l4-4h8"/>
      <path d="M580 204h12l8 8v15l28 28v37.01351l51.993245 51.993246h20.031395l9.044776-9.044776h18.930622M556 360v-4l17-17v-19l-17-17v-36l-20-20v-31m52 136v-76l-36-36v-24m-21-20h-51l-28-28V0m92 168v-20l36-36V0"/>
      <path d="M532 204h-55l-33-33V0m92 167v-23l36-36V0m.003967 360v-8.99603L580 343.007935V280l-36-36v-28"/>
      <path d="M603.996576 360v-7.996575L596 344.00685V271l-36-36v-19"/>
      <path d="M728.005435 359H636l-24-24v-71l-36-36v-12m-43.98983-27.977576h-46.99242L460 163.004674V0m92 168v-16l36-36V0"/>
      <path d="M532 180h-43l-21-21V0m92 168v-12l36-36V0"/>
      <path d="M532 172h-39l-17-17V0m92 168v-8l36-36V0"/>
      <path d="M576 168v-4l36-36V0"/>
    </g>
  </g>
  <g id="module-02" fill="none" fill-rule="evenodd" class="path path-02" stroke-linejoin="round">
    <g id="C12">
      <path d="M1028 92h32l32-32V0"/>
      <path d="M1028 84h28l28-28V0"/>
      <path d="M1028 76h24l24-24V0"/>
      <path d="M1028 68h20l20-20V0"/>
      <path d="M1028 60h16l16-16V0m-68 56V0m-8 56V0m16 56V0m8 56V0m8 56V0m8 56V0m4 100h20l8.01561 8.01561v15.991728M1072 284h-8l-4 4h-52l-16-16V104"/>
      <path d="M1080 439v-67l-96-96V104"/>
      <path d="M1100 272h-36l-8 8h-44l-12-12V104"/>
      <path d="M1044 268h-32l-4-4V104"/>
      <path d="M1020.03113 252.00006v-7.96893L1016 240V104m8 4v-4 80l8 8h8"/>
    </g>
    <g id="C5">
      <path d="M774 1356v-34l27.504545-27.504545L804 1292v-71l-3-3-25-25v-61l4-4v-5"/>
      <path d="M790 1356v-26l13.038405-13.038405L820 1300v-76l12-12v-128l-21-21h-26l-9 9h-20l-4 4h-7"/>
      <path d="M782 1356v-30l20.024984-20.024984L812 1296v-9l-.04536-67.95464L823 1208v-121l-16-16h-19l-8.062258 8.062258h-11.937904l-7.96885 7.96885h-3.031148"/>
      <path d="M715.961595 1067H729l3-3h39l9-9h36l24 24v137l-12 12v75l-29 29v24m25 40h20l20 20v8"/>
      <path d="M824 1404h17l7.071068 7.071068v12.929127M824 1372h12l16-16v-20"/>
      <path d="M824 1364h8l9-9v-8m-17 41h20l32-32v-20"/>
      <path d="M824 1380h16l25-25v-8m-49 9v-16l24.020824-24.020824h47.97918l16.98959-16.98959V1271"/>
      <path d="M808 1356v-20l28.01785-28.01785h47.992945l8.985677-8.98568v-79.002755l-28.995094-28.995093V1068l-40.013204-40.013204h-7.988185"/>
    </g>
  </g>
  <g id="module-03" fill="none" fill-rule="evenodd" class="path path-03" stroke-linejoin="round">
    <g id="C9">
      <path d="M1279 416h9l28 28h40l20 20h12m48 0h112l16 16h8m-293-41h9l20 20h39l21 21h20m48 0h104l12.041595 12.041595v6.95853"/>
      <path d="M1260.999992 426.979176h26.979184L1312 451h39l21 21h16m48 0h108.00463l16.997685 16.997685M1333 508h26l12-12h17m48 0h12l16 16h8l4-4h12m-143-12h15l8-8h20m48 0h84l4 4h7m-130.97923 79.000054v-3.97923L1408.041595 559v-14.958405L1396 532v-28m27 59v-28l-11-11v-20m4 67v-31l-12-12v-24m16-49v-12l16-16h6m-10 144v-39l-12-12v-16m8-49v-7l9-9h27l16 16h71l9 9h12m-128 96v-8l-4-4v-21l-12-12v-11"/>
    </g>
    <g id="C3">
      <path d="M1080 1016h147l33 33v91l72 72h72l20-20h40l32 32h52l4-4v-8"/>
      <path d="M1080 1008h151l36 36v91.005494l48.997253 48.997253H1468l12.040112 12.040112h7.025394"/>
      <path d="M1080 1000h155l41 41v91l44 44h151l8 8h35"/>
      <path d="M1080 992h159l45 45v91s15 16 16 16h8l5 5m-237-161v-4l4-4h36m-72 8v-4l-4-4v-16m-16-56v-4 80l8 8h8m48 48h-4l-8-8v-4"/>
    </g>
  </g>
  <g id="module-04" fill="none" fill-rule="evenodd" class="path path-04" stroke-linejoin="round">
    <g id="C19">
      <path d="M1900 476h60l16.03122-16.03122h94.968785M1532 167h12l11-11h121l44 44v116l36 36h20l32 32v16l-12 12v40l32 32h24m48 0h91l4-4h69l4-4h8l44 44h36"/>
      <path d="M1900 468h56l16-16h4l4-4m-448-329h4l13 13h139l56 56v108l80 80v32l-12 12v24l24 24h16"/>
      <path d="M1900 460h52l32-32m-160 4v12l16 16h12"/>
      <path d="M1900 452h47l29-29v-3l9-9m-249-284v9l16 16v140l80 80v36l4 4v32l8 8h8"/>
      <path d="M1900 444h16l4-4h16m12 272h-20l-24-24V524l-8-8v-28m-52-92v44l4 4h4"/>
      <path d="M1864 440v-60l-96-96V144l-8-8v-9m100 477l-.015615-47.984365-12.015605-12.015604v-15.96881L1864 512v-24"/>
      <path d="M1856 440v-56l-96-96V148l-12-12v-21m91 406l17-17v-16"/>
      <path d="M1872 440v-64l-96-96V140l-4-4v-20m87 416v-3l13-13v-28m0 60v-20l8-8v-32m8-48v-88l16-16v-9m44 393h-25l-27-27V529l-8-8v-33"/>
      <path d="M1896 440v-84l20-20v-20m-384-165h17l3-3h48l79.989584-.010416L1728 196v116l16 16h20l52 52v24l-12 12.285714v32.285715L1831.42857 476H1852"/>
    </g>
    <g id="C15">
      <path d="M1808 856v-77l29-29v-38l-4-4v-13"/>
      <path d="M1792 856v-85l24-24v-3m8 112v-69l29.017236-29.017236v-10.982778l4.112655-4.112654V736"/>
      <path d="M1816 856v-73l29-29v-47"/>
      <path d="M1800 856v-80l29-29v-31l-13-13v-35l-16-16v-68l-35-35v-10"/>
      <path d="M1784 856v-88l17-17v-75l-20-20v-29m47 273h20l8.01561 8.01561v15.991728M1824 908v-4 80l8 8h8"/>
      <path d="M1872 1084h-8l-4 4h-52l-16-16V904"/>
      <path d="M1844 1068h-32l-4-4V904m20-12h32l32-32v-72l17-17"/>
      <path d="M1828 884h28l28-28v-76l10-10"/>
      <path d="M1828 876h24l24-24v-81"/>
      <path d="M1828 868h20l20-20v-57l-4-4v-4"/>
      <path d="M1828 860h16l16-16v-49l-4-4m24 448v-67l-96-96V904"/>
      <path d="M1900 1072h-36l-8 8h-44l-12-12V904"/>
      <path d="M1820.03113 1052.00006v-7.96893L1816 1040V904"/>
    </g>
  </g>
</svg>
