<svg xmlns="http://www.w3.org/2000/svg" width="771" height="516" viewBox="0 0 771 516">
  <g fill="#02B3E4" fill-rule="evenodd" stroke="#FFFFFF" transform="translate(1 2)" stroke-linecap="round" opacity=".1" stroke-linejoin="round">
    <path stroke-width="3" d="M255.13579,91.5185026 C243.980849,90.7478723 221.670968,88 221.670968,88 L215,154.363636 C215,154.363636 239.781112,156.751009 252.171668,157.643043 C270.507993,158.963131 307.180645,161 307.180645,161 L309,94.0330579 C309,94.0330579 273.090526,92.7588915 255.13579,91.5185026 Z"/>
    <polygon stroke-width="3" points="456.992 62.223 456.377 64.033 455.148 64.033 455.762 70.066 455.762 73.686 450.844 76.702 450.23 78.512 449 80.322 449 82.132 450.844 82.736 452.074 84.545 451.459 86.959 450.844 88.769 451.459 89.975 450.844 90.579 451.459 91.785 450.844 95.405 453.918 97.818 456.377 97.818 458.221 99.628 460.68 100.231 463.139 102.645 464.984 105.058 466.828 106.264 469.287 106.264 471.746 108.678 472.361 110.488 472.361 115.314 472.975 115.314 473.59 117.124 475.434 118.331 474.205 120.14 474.82 124.364 476.664 127.983 480.352 127.983 481.582 131 518.467 127.38 517.852 124.967 518.467 123.76 518.467 121.95 517.238 121.347 516.623 118.934 516.008 115.314 516.008 112.901 516.623 111.091 516.623 109.281 517.852 106.868 516.623 105.661 517.238 102.041 517.852 100.231 519.697 99.025 518.467 97.215 518.467 93.595 520.311 90.579 519.697 88.769 521.541 86.959 522.156 83.942 522.77 81.529 524 79.719 522.77 79.719 522.156 81.529 520.926 83.339 520.311 83.339 520.311 85.149 519.082 86.355 519.697 87.562 519.082 88.165 518.467 88.165 516.623 88.769 515.393 91.182 514.164 92.388 512.934 94.198 511.705 93.595 511.705 91.785 512.934 88.769 514.164 86.959 516.008 85.752 516.008 84.545 514.164 83.339 515.393 79.719 514.779 79.719 512.934 80.322 512.32 80.322 513.549 77.909 512.32 74.893 510.475 73.686 508.631 73.686 508.631 71.876 506.787 71.273 502.484 70.669 500.025 71.273 497.566 70.066 489.574 68.256 482.811 67.05 480.967 64.636 479.123 64.033 474.82 62.826 472.361 64.033 472.361 62.826 473.59 58.603 472.361 58 469.287 59.81 467.443 60.413 463.139 62.826 459.451 63.43"/>
    <polygon stroke-width="3" points="604.267 198.545 604.267 199.152 604.871 199.152 604.871 200.364 605.475 200.364 605.475 201.576 606.079 201.576 606.683 202.788 608.495 202.788 609.099 203.394 610.911 204 612.723 202.182 613.327 200.97 615.743 202.182 616.95 200.97 619.366 200.97 619.97 199.758 619.366 198.545 620.574 197.939 621.782 198.545 624.198 196.727 624.802 197.333 627.218 195.515 626.614 194.909 627.822 193.697 627.822 193.091 626.614 193.091 626.614 191.879 627.218 190.061 629.634 186.424 630.238 184 629.634 183.394 631.446 181.576 630.842 180.97 632.05 179.152 632.05 176.727 632.653 176.121 633.861 176.121 635.069 177.333 637.485 177.333 638.693 176.121 638.693 174.303 639.297 173.697 639.297 171.879 639.901 170.667 640.505 170.061 642.317 170.667 642.921 168.242 644.129 168.242 644.129 167.636 645.337 166.424 645.337 165.212 646.545 163.394 646.545 161.576 647.149 160.364 646.545 159.152 647.149 158.545 654.396 162.182 655 158.545 655 157.333 653.792 156.727 653.188 155.515 652.584 155.515 653.188 154.303 650.772 154.909 648.356 153.697 647.752 154.303 647.149 155.515 645.337 155.515 644.733 157.333 643.525 157.939 641.713 157.939 640.505 156.121 640.505 157.939 638.693 159.758 636.881 159.758 636.277 160.97 635.069 162.788 632.653 165.212 630.842 156.727 617.554 159.152 614.535 144 612.723 145.212 614.535 146.424 613.931 148.242 614.535 150.061 613.931 152.485 613.931 155.515 613.327 159.152 613.327 161.576 610.307 163.394 610.307 165.212 607.891 167.636 606.683 166.424 604.871 167.636 604.871 168.848 603.663 169.455 603.059 171.879 602.455 173.091 603.059 173.697 603.059 174.909 601.851 176.121 601.248 176.121 601.248 174.909 600.04 174.303 598.832 175.515 598.228 177.333 598.228 178.545 598.832 181.576 597.624 182.182 597.624 184 594 185.818 594.604 187.636 594 190.061 596.416 192.485 597.02 193.697 599.436 196.727 602.455 198.545"/>
    <polygon stroke-width="3" points="666.5 166 668 164.4 665.75 162 665 163.6 665.75 164.4"/>
    <path stroke-width="3" d="M151.856209 61L151.856209 59.2 152.470588 58.6 152.470588 57.4 151.24183 55 158 13.6C158 13.6 123.194676 7.71086044 105.792014 4.46629066 100.667443 3.51086044 90.4183007 1 90.4183007 1L89.8039216 2.2 90.4183007 5.2 92.2614379 5.2 92.2614379 7.6 91.6470588 10 90.4183007 10 89.8039216 8.8 89.1895425 7.6 87.3464052 5.2 86.1176471 5.8 87.3464052 6.4 88.5751634 7.6 87.3464052 8.2 85.503268 7 83.6601307 6.4 84.2745098 8.2 87.3464052 9.4 88.5751634 8.2 89.8039216 10 87.9607843 12.4 88.5751634 14.2 89.8039216 17.8 91.0326797 18.4 90.4183007 16.6 89.1895425 13.6 89.8039216 11.8 91.0326797 11.8 92.2614379 12.4 92.2614379 14.8 92.2614379 16.6 93.4901961 17.2 92.2614379 19 90.4183007 20.8 90.4183007 22.6 90.4183007 24.4 89.8039216 27.4 88.5751634 29.2 87.3464052 28.6 85.503268 30.4 84.8888889 31 83.0457516 30.4 81.8169935 31 79.9738562 30.4 81.2026144 28.6 83.0457516 26.8 84.2745098 27.4 85.503268 26.2 86.7320261 28 87.3464052 24.4 86.1176471 23.8 86.7320261 21.4C86.0818483 21.4 88.5751634 21.4 88.5751634 21.4L89.1895425 19.6 84.8888889 22 83.6601307 22.6 81.2026144 24.4 82.4313725 25.6 83.6601307 25.6 82.4313725 26.2 79.3594771 26.2 79.9738562 25 82.4313725 22.6 84.2745098 20.8 84.2745098 19 85.503268 19 85.503268 20.2 87.3464052 18.4 86.1176471 14.8 86.1176471 16.6 84.2745098 14.8 83.6601307 15.4 81.8169935 13.6 79.9738562 13.6 73.2156863 11.2 70.7581699 10 69.5294118 8.8 65.2287582 6.4 64 9.4 64 13 65.8431373 15.4 66.4575163 17.8 65.8431373 22.6 67.0718954 24.4 66.4575163 28 68.3006536 28 68.3006536 29.2 70.7581699 30.4 67.6862745 31 67.0718954 32.2 66.4575163 31.6 66.4575163 33.4 68.9150327 33.4 70.1437908 35.2 68.3006536 35.2 67.6862745 37.6 68.3006536 39.4 66.4575163 39.4 65.8431373 38.2 65.2287582 40.6 66.4575163 40.6 67.6862745 41.2 70.1437908 41.2 70.7581699 41.8 72.6013072 41.8 73.2156863 43.6 74.4444444 44.2 76.2875817 44.2 78.130719 46 79.3594771 49 78.745098 53.2 78.745098 54.4 83.0457516 55.6 84.8888889 56.8 89.1895425 55.6 91.0326797 55 94.7189542 55.6 97.7908497 56.8 98.4052288 58.6 100.862745 58 101.477124 58.6 105.777778 58 108.849673 58.6 111.921569 58 117.45098 57.4 119.294118 56.8 124.823529 58 126.666667 56.8 151.856209 61zM687.352273 199.540816L687.352273 198.336735 687.960227 198.336735 687.960227 195.326531 686.744318 193.520408 682.488636 193.520408 683.096591 195.326531 681.272727 194.72449 680.056818 195.928571 680.056818 194.122449 677.017045 192.918367 677.017045 191.112245 675.193182 191.112245 673.369318 191.112245 672.153409 189.908163 667.897727 190.510204 667.897727 189.306122 672.761364 188.704082 673.369318 189.908163 673.977273 188.102041 674.585227 189.908163 677.017045 189.908163 677.625 189.908163 677.625 191.112245 681.272727 192.918367 682.488636 191.714286 681.272727 191.112245 681.272727 189.908163 680.056818 189.306122 678.232955 189.306122 673.977273 185.693878 673.977273 184.489796 678.232955 188.102041 680.056818 188.102041 678.840909 186.897959 679.448864 185.091837 681.880682 186.897959 681.272727 185.091837 679.448864 183.887755 677.017045 183.285714 675.801136 181.479592 673.977273 180.877551 671.545455 179.071429 669.721591 176.663265 668.505682 176.663265 666.681818 176.061224 667.289773 175.459184 669.721591 175.459184 673.977273 179.673469 675.193182 179.673469 677.625 182.081633 677.625 180.877551 679.448864 182.081633 679.448864 179.673469 678.840909 178.469388 680.056818 177.867347 678.232955 177.265306 675.801136 176.663265 675.193182 175.459184 673.369318 174.857143 672.153409 175.459184 669.721591 174.857143 667.897727 173.05102 667.897727 171.846939 666.073864 173.653061 663.642045 173.653061 663.642045 172.44898 663.642045 171.846939 663.642045 168.234694 664.857955 167.030612 666.073864 166.428571 666.073864 164.622449 665.465909 163.418367 664.857955 162.816327 663.034091 162.816327 662.426136 161.612245 659.994318 161.612245 658.778409 160.408163 659.386364 158.602041 657.5625 158 655.130682 158 654.522727 161.612245 647.227273 158 646.619318 158.602041 647.227273 159.806122 646.619318 161.010204 646.619318 162.816327 645.403409 164.622449 645.403409 165.826531 644.1875 167.030612 644.1875 167.632653 642.971591 167.632653 642.363636 170.040816 640.539773 169.438776 639.931818 170.040816 639.323864 171.244898 639.323864 173.05102 638.715909 173.653061 638.715909 175.459184 637.5 176.663265 635.068182 176.663265 633.852273 175.459184 632.636364 175.459184 632.028409 176.061224 632.028409 178.469388 630.8125 180.27551 631.420455 180.877551 629.596591 182.683673 630.204545 183.285714 629.596591 185.693878 627.164773 189.306122 626.556818 191.112245 626.556818 192.316327 627.772727 192.316327 627.772727 192.918367 626.556818 194.122449 627.164773 194.72449 624.732955 196.530612 624.125 195.928571 621.693182 197.734694 620.477273 197.132653 619.261364 197.734694 619.869318 198.938776 619.261364 200.142857 616.829545 200.142857 615.613636 201.346939 613.181818 200.142857 612.573864 201.346939 610.75 203.153061 608.926136 202.55102 608.318182 201.94898 606.494318 201.94898 605.886364 200.744898 605.278409 200.744898 605.278409 199.540816 604.670455 199.540816 604.670455 198.336735 604.0625 198.336735 599.806818 203.755102 595.551136 206.163265 595.551136 207.969388 594.335227 209.173469 594.335227 210.377551 591.295455 211.581633 590.6875 213.387755 584 217 610.75 212.785714 610.75 213.387755 687.352273 199.540816zM687.960227 174.255102L687.960227 175.459184 687.352273 176.061224 687.960227 177.265306 686.744318 179.071429 686.136364 180.877551 686.136364 183.285714 685.528409 185.693878 686.136364 188.102041 686.744318 188.704082 687.352273 186.897959 687.352273 183.285714 687.960227 181.479592 689.784091 182.081633 689.784091 178.469388 691 176.061224 690.392045 174.857143 690.392045 173.05102 687.960227 174.255102zM689 54.2318841L709.307692 48 709.871795 48.6231884 710.435897 49.8695652 709.307692 52.3623188 711 54.8550725 710.435897 55.4782609 710.435897 56.7246377 708.74359 59.8405797 708.179487 60.4637681 707.051282 60.4637681 706.487179 61.7101449 707.051282 63.5797101 707.051282 65.4492754 707.051282 67.942029 706.487179 68.5652174 706.487179 71.057971 705.923077 72.3043478 705.923077 74.173913 705.358974 74.7971014 705.923077 78.5362319 706.487179 79.1594203 705.923077 81.6521739 706.487179 82.8985507 706.487179 84.7681159 705.923077 85.3913043 705.923077 87.2608696 708.179487 89.1304348 698.589744 91 698.025641 90.3768116 695.769231 79.1594203 695.769231 77.9130435 694.641026 76.6666667 693.512821 77.9130435 693.512821 74.173913 692.948718 73.5507246 692.948718 72.9275362 692.384615 72.3043478 691.820513 70.4347826 691.25641 70.4347826 691.25641 67.3188406 691.820513 66.0724638 690.692308 64.2028986 690.128205 61.7101449 689.564103 60.4637681 689.564103 57.3478261 689 56.7246377 689 54.2318841zM177.115702 132L167 216.64C167 216.64 185.177386 219.26078 194.266079 220.264504 207.392262 221.714114 233.644628 224 233.644628 224L239 155.92 213.413223 153.466667 215.198347 136.906667 177.115702 132zM317.247619 237L359.304762 237.608696 359.304762 270.478261 361.133333 270.478261 364.790476 274.130435 366.619048 273.521739 367.838095 273.521739 368.447619 272.304348 370.885714 274.73913 370.885714 276.565217 373.933333 276.565217 377.590476 277.782609 379.419048 277.173913 381.247619 279 383.07619 277.782609 386.733333 277.782609 386.733333 279.608696 388.561905 280.217391 389.780952 282.652174 393.438095 279.608696 394.047619 281.434783 395.266667 281.434783 397.095238 282.652174 399.533333 281.434783 400.752381 284.478261 403.190476 280.217391 406.238095 282.043478 408.066667 281.434783 409.285714 282.652174 412.942857 283.869565 414.161905 283.869565 414.771429 282.043478 417.819048 281.434783 419.038095 281.434783 422.695238 280.217391 425.133333 280.826087 427.571429 279.608696 431.228571 280.826087 433.057143 282.652174 434.885714 283.869565 438.542857 284.478261 440.980952 285.695652 441.590476 285.086957 444.638095 285.086957 445.247619 285.695652 445.247619 294.826087 445.857143 294.826087 446.466667 312.478261 448.295238 314.304348 450.12381 316.73913 450.12381 319.173913 451.342857 320.391304 451.342857 321 452.561905 322.217391 452.561905 324.043478 453.780952 325.26087 454.390476 325.869565 454.390476 327.695652 455 328.304348 454.390476 328.913043 454.390476 332.565217 453.780952 334.391304 452.561905 336.826087 452.561905 338.652174 451.952381 339.869565 453.171429 342.304348 452.561905 344.73913 451.342857 345.956522 450.12381 348.391304 449.514286 349.608696 450.733333 351.434783 448.295238 351.434783 442.809524 354.478261 440.371429 354.478261 437.32381 355.086957 438.542857 353.26087 439.152381 351.434783 437.933333 350.826087 436.714286 351.434783 435.495238 352.652174 433.057143 352.043478 433.666667 354.478261 434.885714 356.304348 436.104762 357.521739 435.495238 358.73913 433.057143 361.173913 431.838095 360.565217 432.447619 363.608696 428.790476 366.652174 425.133333 369.086957 420.866667 369.695652 420.257143 370.913043 417.209524 370.913043 417.209524 369.695652 415.380952 370.913043 414.161905 369.695652 412.942857 368.478261 413.552381 371.521739 411.72381 370.913043 410.504762 369.695652 409.895238 370.304348 411.114286 372.73913 412.333333 373.347826 411.114286 374.565217 413.552381 373.956522 413.552381 375.173913 410.504762 377 408.066667 373.956522 407.457143 375.782609 407.457143 378.826087 406.847619 380.043478 406.238095 377.608696 402.580952 380.043478 401.971429 381.26087 403.190476 382.478261 405.019048 381.26087 402.580952 384.913043 397.704762 384.304348 397.095238 385.521739 398.92381 386.130435 401.361905 387.956522 398.92381 394.043478 397.704762 392.826087 395.87619 394.043478 393.438095 391.608696 394.047619 394.043478 393.438095 394.652174 394.047619 395.26087 397.095238 395.869565 398.314286 395.26087 397.704762 399.521739 397.095238 400.130435 397.095238 403.782609 398.314286 403.782609 398.92381 407.434783 398.314286 408.652174 400.142857 411.695652 401.361905 414.73913 402.580952 415.347826 401.971429 417.782609 400.752381 419 398.314286 418.391304 395.87619 415.956522 387.342857 415.956522 384.295238 413.521739 380.638095 412.913043 378.2 410.478261 373.933333 410.478261 373.933333 408.652174 372.714286 408.043478 371.495238 403.173913 369.666667 400.73913 368.447619 399.521739 368.447619 396.478261 367.228571 394.652174 367.838095 393.434783 367.838095 391.608696 367.228571 389.782609 364.790476 388.565217 361.742857 386.130435 361.133333 384.304348 358.695238 380.652174 356.866667 379.434783 355.647619 377.608696 354.428571 373.347826 352.6 370.913043 351.990476 369.086957 350.161905 366.652174 350.161905 363.608696 348.333333 362.391304 348.333333 361.173913 344.066667 358.73913 344.066667 357.521739 341.628571 356.913043 341.628571 355.086957 340.409524 355.086957 338.580952 352.043478 334.314286 352.043478 330.657143 351.434783 327.609524 351.434783 325.171429 350.217391 323.952381 352.043478 319.685714 352.652174 317.247619 356.304348 316.638095 359.347826 315.419048 361.173913 312.371429 364.217391 312.371429 365.434783 308.714286 364.217391 306.885714 362.391304 304.447619 362.391304 302.619048 359.956522 299.571429 359.347826 295.914286 355.695652 294.085714 355.086957 292.257143 353.26087 291.647619 350.826087 290.428571 348.391304 289.819048 346.565217 290.428571 344.73913 287.990476 340.478261 287.990476 338.652174 286.161905 335.608696 283.114286 333.173913 280.67619 332.565217 277.628571 328.913043 277.628571 327.695652 275.190476 325.869565 272.752381 323.434783 270.92381 322.217391 269.095238 321 267.266667 319.173913 267.266667 316.73913 266.047619 316.130435 264.828571 315.521739 263 313.695652 263 311.869565 314.809524 314.304348 317.247619 237z"/>
    <polygon stroke-width="3" points="497 258 579.921 248.171 579.921 243.871 580.526 243.257 582.947 243.871 583.553 240.186 587.184 237.114 590.211 237.114 594.447 232.2 596.868 232.2 597.474 229.129 598.684 229.129 599.289 227.286 601.105 226.671 601.711 227.9 602.921 227.9 604.132 224.829 607.158 224.214 608.368 224.829 610.184 220.529 611.395 219.3 612 219.3 612 215 585.368 219.3 584.158 220.529 528.474 226.057 524.842 226.057 525.447 227.9 525.447 229.129 506.684 230.971 506.079 231.586 504.868 230.357 504.868 231.586 505.474 234.043 504.263 234.043 504.868 235.886 503.658 235.886 504.868 237.729 503.658 238.343 503.053 240.186 504.263 240.8 504.868 241.414 503.053 241.414 503.053 242.643 503.658 243.257 500.632 245.1 501.237 247.557 501.237 248.786 500.026 248.786 499.421 251.243 498.816 253.086 500.026 255.543 498.211 255.543"/>
    <path stroke-width="3" d="M336.610381,127.456079 C327.406921,127.29696 309,126.361702 309,126.361702 L309.610063,92.4255319 L310.220126,92.4255319 L310.830189,77 C310.830189,77 344.817682,77.6170213 362.075472,77.6170213 C375.727535,77.6170213 403.559748,77 403.559748,77 L402.949686,78.8510638 L401.72956,80.7021277 L399.899371,81.9361702 L401.72956,85.6382979 L404.169811,86.2553191 L405.389937,88.106383 L406,118.340426 L404.169811,118.340426 L404.169811,119.574468 L405.389937,120.808511 L404.779874,122.659574 L406,123.893617 L405.389937,128.829787 L404.169811,130.680851 L406,135 L404.779874,135 L403.559748,133.148936 L403.559748,131.914894 L401.72956,131.914894 L401.119497,131.297872 L399.289308,130.680851 L397.459119,130.680851 L395.628931,128.829787 L392.578616,129.446809 L388.308176,129.446809 L387.08805,130.680851 L385.257862,130.680851 L380.377358,127.595745 C380.377358,127.595745 351.199373,127.708308 336.610381,127.456079 Z"/>
    <polygon stroke-width="3" points="601.263 242.442 597.026 244.256 595.816 246.07 594 249.698 597.026 250.907 597.632 251.512 599.447 252.721 601.868 252.116 601.868 253.93 603.684 255.14 604.289 256.953 604.895 257.558 606.711 258.767 607.316 260.581 608.526 260.581 609.132 261.791 612.158 263 613.974 266.023 615.789 266.023 617.605 267.837 617.605 269.047 619.421 269.651 619.421 270.86 620.632 271.465 620.632 272.674 622.447 272.674 625.474 274.488 625.474 275.698 626.684 277.512 627.289 279.93 627.895 281.14 629.711 281.14 630.316 282.349 632.132 284.767 632.132 287.186 633.342 289 633.947 288.395 635.158 288.395 636.368 288.395 636.974 286.581 636.974 284.767 638.184 285.977 636.368 282.953 635.158 280.535 635.763 279.93 637.579 282.953 638.789 283.558 638.184 281.14 639.395 282.349 640 284.163 641.211 282.953 640.605 281.14 639.395 280.535 638.184 279.93 640.605 279.326 642.421 279.93 643.632 278.721 643.632 277.512 645.447 277.512 647.263 276.302 648.474 275.093 647.263 273.884 647.263 272.674 648.474 272.674 649.079 273.884 650.289 272.674 651.5 271.465 651.5 269.047 652.711 268.442 653.921 269.047 655.132 267.233 654.526 266.023 656.947 264.814 655.132 264.209 655.132 262.395 656.342 260.581 656.342 263.605 658.158 258.163 659.974 255.14 663 252.116 645.447 239.419 629.711 241.837 629.105 239.419 626.684 237.605 625.474 238.814 624.868 237 606.711 239.419 604.289 240.628 602.474 241.233 601.868 242.442"/>
    <polygon stroke-width="3" points="722 97.857 724.545 106.524 724.545 109 725.818 108.381 727.091 107.143 729 107.143 729 105.905 729 104.667 728.364 103.429 729 102.19 727.727 102.19 728.364 100.952 727.727 99.714 728.364 99.095 728.364 97.857 727.727 97.857 727.091 96"/>
    <polygon stroke-width="3" points="610 122.095 613.636 144.119 616.667 159 678.485 147.095 679.091 145.31 680.303 144.119 683.333 144.119 683.939 142.929 685.758 141.738 685.758 140.548 690 136.976 690 135.786 686.364 133.405 685.152 133.405 684.545 131.024 682.727 131.619 682.121 129.238 682.727 127.452 683.333 126.262 682.121 125.071 682.121 123.881 683.333 122.69 684.545 120.31 684.545 119.119 686.364 117.333 685.152 116.143 683.333 116.143 681.515 116.143 680.303 114.357 680.303 113.167 680.303 111.381 678.485 110.19 677.273 110.786 676.667 109.595 674.848 109 619.697 120.31 619.091 116.143"/>
    <polygon stroke-width="3" points="139.5 127 144.389 96.784 145.611 94.367 145.611 92.554 146.833 91.345 145.611 90.137 143.167 89.532 143.778 85.906 146.833 82.281 149.278 79.863 149.889 78.05 152.333 74.424 152.944 73.216 156 69.59 155.389 66.568 151.722 63.547 151.722 61.734 126.056 57.504 124.222 58.712 118.722 57.504 116.889 58.108 111.389 58.712 108.333 59.317 105.278 58.712 101 59.317 100.389 58.712 97.944 59.317 97.333 57.504 94.278 56.295 90.611 55.691 84.5 57.504 82.667 56.295 78.389 55.086 78.389 53.878 79 49.647 77.778 46.626 75.944 44.813 74.111 45.417 72.278 45.417 71.667 43.604 69.222 44.209 68 43.604 67.389 44.813 65.556 43 65.556 46.022 64.333 47.23 64.333 49.647 64.944 50.856 63.722 52.065 64.333 54.482 63.111 54.482 59.444 64.755 58.833 66.568 59.444 67.777 58.833 68.986 58.222 70.194 58.222 71.403 57 72.612 55.778 78.05 54.556 81.072 55.167 82.281 53.944 82.885 52.111 85.906 53.333 85.906 53.333 87.719 52.111 87.115 50.889 88.928 50.278 87.719 48.444 91.95 46.611 95.576 47.222 97.993 46.611 101.619 46 105.245 46 107.662 47.222 110.079 101 120.957"/>
    <path stroke-width="3" d="M318,228.617021 C318,228.617021 355.542612,229.649855 374.313918,229.54925 C393.918246,229.444181 433.126904,228 433.126904,228 L433.736041,237.255319 L436.781726,255.148936 L438,286 L434.345178,285.382979 L432.517766,284.148936 L430.690355,282.297872 L428.862944,281.680851 L427.035533,281.06383 L424.598985,282.297872 L422.162437,281.680851 L418.507614,282.914894 L417.28934,282.914894 L414.243655,283.531915 L413.634518,285.382979 L412.416244,285.382979 L410.588832,284.765957 L408.761421,284.148936 L407.543147,282.914894 L405.715736,283.531915 L402.670051,281.680851 L400.233503,286 L399.015228,282.914894 L396.57868,284.148936 L394.751269,282.914894 L393.532995,282.914894 L392.923858,281.06383 L389.269036,284.148936 L388.050761,281.680851 L386.22335,281.06383 L386.22335,279.212766 L382.568528,279.212766 L380.741117,280.446809 L378.913706,278.595745 L377.086294,279.212766 L373.431472,277.978723 L370.385787,277.978723 L370.385787,276.12766 L367.949239,273.659574 L367.340102,274.893617 L366.121827,274.893617 L364.294416,275.510638 L362.467005,273.659574 L360.639594,271.808511 L358.812183,271.808511 L358.812183,238.489362 L318,237.87234 L318,228.617021 Z"/>
    <polygon stroke-width="3" points="559 136.283 564.495 179.755 565.716 178.547 567.547 179.755 568.768 178.547 569.989 179.755 571.211 179.755 573.042 183.377 574.874 183.981 577.926 183.377 579.758 185.189 580.979 185.792 582.2 183.981 584.642 183.981 585.863 185.189 586.474 184.585 588.305 184.585 588.916 183.377 591.358 181.566 592.579 184.585 595.021 185.189 596.242 187 597.463 186.396 599.905 185.189 599.905 183.377 601.126 182.774 600.516 179.755 600.516 178.547 601.126 176.736 602.347 175.528 603.568 176.132 603.568 177.34 604.179 177.34 605.4 176.132 605.4 174.925 604.789 174.321 605.4 173.113 606.011 170.698 607.232 170.094 607.232 168.887 609.063 167.679 610.284 168.887 612.726 166.472 612.726 164.66 615.779 162.849 615.779 160.434 616.389 156.811 616.389 153.792 617 151.377 616.389 149.566 617 147.755 615.168 146.547 617 145.34 613.337 123 603.568 129.038 599.295 133.868 597.463 134.472 595.021 134.472 592.579 135.679 590.747 136.283 590.137 137.491 586.474 136.887 585.253 136.887 584.032 137.491 582.2 136.887 585.863 135.075 584.642 135.075 583.421 135.679 580.368 134.472 577.316 133.868 576.095 133.264"/>
    <path stroke-width="3" d="M356.605263,79 C340.978657,79 310,78.3975904 310,78.3975904 L311.210526,29 C311.210526,29 334.008193,29.7717394 345.407027,29.8564043 C361.043281,29.9725426 392.315789,29.6024096 392.315789,29.6024096 L394.131579,34.4216867 L393.526316,36.2289157 L393.526316,42.8554217 L397.157895,51.2891566 L397.763158,54.3012048 L397.763158,59.1204819 L398.368421,62.1325301 L398.368421,63.3373494 L398.973684,67.5542169 L399.578947,69.9638554 L401.394737,72.373494 L402,78.3975904 C402,78.3975904 371.645324,79 356.605263,79 Z"/>
    <polygon stroke-width="3" points="611.911 215.529 687.775 202 690.183 204.353 692.592 207.882 689.581 205.529 690.183 207.294 687.173 205.529 685.969 206.118 688.979 207.882 687.775 208.471 685.366 207.882 687.173 209.647 683.56 207.882 683.56 209.059 685.366 210.235 683.56 211.412 681.152 211.412 680.55 209.059 680.55 206.706 679.346 206.706 679.346 210.235 680.55 212 680.55 213.765 683.56 213.176 684.764 212 685.969 213.176 687.775 212.588 688.979 210.824 690.183 212.588 689.581 214.353 690.785 214.941 689.581 216.118 691.387 216.118 691.99 213.765 691.387 212 693.194 212 693.796 210.824 695 213.176 695 214.941 695 216.706 693.796 216.118 693.194 216.706 691.99 220.235 690.785 221.412 688.377 221.412 687.173 220.235 685.969 221.412 685.366 220.235 686.571 219.059 682.958 219.647 684.162 221.412 680.55 221.412 678.141 220.824 679.346 222.588 682.958 223.176 686.571 223.176 686.571 224.353 684.162 225.529 685.969 226.118 684.162 228.471 682.356 228.471 678.743 226.706 681.152 229.647 683.56 230.235 684.764 230.235 685.969 228.471 687.173 229.647 690.183 227.882 687.775 232.588 685.969 231.412 684.162 232.588 681.152 234.353 679.346 233.176 679.346 234.941 677.539 237.294 676.937 234.941 675.733 234.941 676.335 236.118 675.733 236.706 676.937 237.882 674.529 239.647 672.723 242.588 671.518 245.529 671.518 247.294 670.314 244.941 670.314 250.235 666.099 250.235 665.497 250.235 664.293 251.412 662.487 252 645.026 239.647 629.372 242 628.77 239.647 626.361 237.882 625.157 239.059 624.555 237.294 606.492 239.647 602.277 241.412 601.675 242.588 601.073 242.588 596.859 244.353 580 246.706 580 242.588 580.602 242 583.01 242.588 583.613 239.059 587.225 236.118 590.236 236.118 594.45 231.412 596.859 231.412 597.461 228.471 598.665 228.471 599.267 226.706 601.073 226.118 601.675 227.294 602.88 227.294 604.084 224.353 607.094 223.765 608.298 224.353 610.105 220.235 611.309 219.059 611.911 219.059"/>
    <path stroke-width="3" d="M621 116.516129L621.614035 120.806452 677.491228 109.16129 679.333333 109.774194 679.947368 111 681.175439 110.387097 683.017544 111.612903 683.017544 114.677419 684.245614 116.516129 687.929825 116.516129 689.157895 117.741935 700.210526 121.419355 700.210526 120.806452 699.596491 118.967742 698.368421 117.741935 698.368421 115.903226 698.982456 115.903226 699.596491 117.129032 700.210526 118.354839 700.824561 118.967742 701.438596 123.870968 703.280702 122.032258 703.894737 120.806452 702.666667 118.967742 705.122807 115.903226 703.894737 114.677419 702.052632 102.419355 701.438596 102.419355 702.052632 90.1612903 701.438596 89.5483871 698.982456 78.516129 698.982456 77.2903226 697.754386 76.0645161 697.140351 76.6774194 696.526316 77.2903226 696.526316 76.0645161 696.526316 73.6129032 695.912281 73 695.912281 72.3870968 695.298246 71.7741935 694.684211 69.9354839 694.070175 69.9354839 694.070175 66.8709677 694.684211 65.6451613 693.45614 63.8064516 692.842105 61.3548387 692.22807 60.1290323 692.22807 58.2903226 692.22807 57.0645161 691.614035 56.4516129 691.614035 54 674.421053 58.2903226 672.578947 58.2903226 669.508772 60.7419355 668.280702 62.5806452 664.596491 67.483871 663.982456 68.7096774 663.982456 70.5483871 662.140351 72.3870968 657.842105 76.6774194 658.45614 77.2903226 660.298246 77.2903226 661.526316 77.2903226 662.140351 77.9032258 661.526316 79.1290323 660.298246 80.9677419 659.684211 80.9677419 660.912281 82.1935484 660.912281 83.4193548 662.140351 84.0322581 661.526316 84.6451613 661.526316 85.8709677 660.298246 86.483871 659.070175 86.483871 656.614035 89.5483871 656 90.7741935 653.54386 92 652.929825 92.6129032 651.087719 92.6129032 649.245614 92.6129032 648.017544 93.2258065 645.561404 94.4516129 644.333333 94.4516129 643.105263 93.2258065 637.578947 93.8387097 636.350877 94.4516129 633.894737 94.4516129 626.526316 97.516129 627.140351 98.7419355 627.140351 99.9677419 627.140351 100.580645 629.596491 100.580645 629.596491 101.806452 628.982456 103.032258 630.210526 104.258065 630.210526 105.483871 628.982456 107.322581 627.754386 109.774194 625.298246 111.612903 624.070175 113.451613 621 116.516129zM699.596491 127.548387L698.982456 128.16129 698.368421 130 699.596491 129.387097 700.210526 128.16129 699.596491 127.548387zM700.824561 126.935484L700.824561 127.548387 701.438596 128.16129 702.052632 127.548387 702.666667 126.935484 703.280702 126.322581 704.508772 126.935484 705.122807 126.322581 710.035088 123.870968 711.877193 123.870968 711.877193 122.645161 713.105263 122.645161 715.561404 120.806452 718.631579 120.193548 719.245614 118.967742 718.631579 118.354839 718.017544 118.967742 717.403509 118.354839 719.859649 115.290323 719.245614 114.677419 716.789474 117.741935 716.175439 118.354839 713.105263 118.967742 711.877193 118.967742 711.263158 119.580645 710.649123 119.580645 710.649123 120.193548 708.192982 120.806452 707.578947 121.419355 706.350877 120.806452 706.350877 122.032258 705.736842 121.419355 705.122807 122.032258 705.122807 123.258065 703.894737 123.870968 703.280702 124.483871 702.052632 124.483871 701.438596 125.096774 700.824561 126.935484zM719.859649 117.741935L719.859649 118.354839 720.473684 118.354839 722.315789 117.129032 722.929825 115.903226 724.157895 115.903226 726 114.064516 723.54386 115.290323 722.929825 115.290323 722.315789 115.290323 721.087719 115.903226 720.473684 116.516129 719.859649 117.741935zM233.973333 222C233.973333 222 256.203146 223.896971 267.318052 224.541109 284.212035 225.52016 318 226.869565 318 226.869565L318 235.391304 316.773333 235.391304 314.32 312.695652 262.186667 310.26087 262.186667 312.086957 264.026667 313.913043 238.88 312.086957 238.266667 320 226 318.782609 233.973333 222z"/>
    <polygon stroke-width="3" points="688.345 119 699.517 122.761 700.138 123.388 699.517 125.896 699.517 127.776 698.276 128.403 697.655 129.657 697.034 131.537 697.655 132.791 700.138 133.418 701.379 133.418 702 136.552 701.379 139.687 701.379 141.567 701.379 143.448 700.759 144.075 701.379 145.328 700.759 147.836 700.138 148.463 698.897 148.463 700.138 150.343 698.897 150.343 698.897 151.597 699.517 152.224 698.276 152.224 697.655 153.478 696.414 154.104 697.655 154.731 696.414 157.239 696.414 157.866 695.793 158.493 695.793 159.746 694.552 161 694.552 159.746 694.552 156.612 693.31 156.612 692.069 156.612 690.828 157.239 690.207 155.985 688.345 155.985 687.724 154.731 686.483 154.731 684.621 153.478 684.621 151.597 684 150.97 684.621 149.09 684.621 147.836 685.241 147.836 686.483 145.955 687.724 144.701 687.724 143.448 692.069 139.687 692.069 138.433 688.345 135.925 687.103 135.925 686.483 133.418 684.621 134.045 684 131.537 684.621 129.657 685.241 128.403 684 127.149 684 125.896 685.241 124.642 686.483 122.134 686.483 120.881"/>
    <polygon stroke-width="3" points="710.895 87 723.053 84.067 724.789 83.48 725.947 81.133 726.526 81.133 727.105 79.96 728.263 79.373 729.421 79.373 729.421 77.613 730 76.44 727.684 75.267 727.684 73.507 725.368 72.333 725.368 70.573 724.211 67.64 716.105 43 715.526 44.173 713.789 43.587 713.211 44.173 713.211 45.347 712.632 47.107 712.632 48.867 713.211 50.04 712.053 52.387 713.789 54.733 713.211 55.32 713.211 56.493 711.474 59.427 710.895 60.013 709.737 60.013 709.158 61.187 709.737 62.947 709.737 67.053 709.158 67.64 709.158 69.987 708.579 71.16 708.579 72.92 708 73.507 708.579 77.027 709.158 77.613 708.579 79.96 709.158 81.133 709.158 82.893 708.579 83.48 708.579 85.24"/>
    <path stroke-width="3" d="M139.47958 126.363506C151.986387 128.267495 177 131.471698 177 131.471698L164.943262 227.471698 164.340426 228.679245 163.134752 231.09434 161.326241 231.09434 160.723404 228.679245 159.51773 229.283019 157.70922 228.075472 155.297872 229.283019 154.695035 231.698113 155.297872 233.509434 154.695035 234.716981 155.297872 237.735849 154.695035 239.54717 155.297872 242.566038 155.297872 244.981132 154.092199 245.584906 154.092199 248 92 168.90566 101.042553 120C101.042553 120 126.868183 124.443595 139.47958 126.363506zM333.164021 158.837567L333.164021 175.842735C333.164021 175.842735 357.423251 176.108861 369.552865 175.948732 387.035243 175.717938 422 174.669965 422 174.669965L420.783069 173.497195 420.783069 172.324424 419.566138 170.565269 417.740741 169.392499 416.52381 166.460573 415.306878 165.874188 415.306878 163.528648 414.089947 162.355877 414.089947 160.010337 414.089947 155.319256 412.873016 154.146486 414.089947 153.560101 412.26455 152.38733 412.26455 150.628175 410.439153 148.86902 411.047619 145.350709 409.830688 144.177939 409.830688 142.418783 408.613757 141.832398 408.005291 140.073243 406.78836 139.486858 406.78836 137.141317 406.179894 134.209392 403.746032 134.209392 402.529101 132.450236 402.529101 131.277466 400.703704 131.277466 400.095238 130.691081 398.269841 130.104696 396.444444 130.104696 394.619048 128.34554 391.57672 128.931926 390.359788 128.931926 387.31746 128.931926 386.100529 130.104696 384.275132 130.104696 379.407407 127.17277C379.407407 127.17277 349.583987 127.267853 334.672277 127.022202 325.853828 126.87693 308.216931 126 308.216931 126L307 158.837567 333.164021 158.837567zM263.909649 91.8362429C278.190812 92.8201215 309.179916 93.5757576 309.179916 93.5757576L311 28.7272727C311 28.7272727 288.646026 27.9548043 264.921017 26.26895 250.733208 25.2607912 236.055094 23.5366671 225.374058 22.5377852 206.391632 20.7625638 168.426778 16 168.426778 16L166 31.1515152 168.426778 34.7878788 169.640167 37.8181818 169.033473 39.030303 169.640167 40.8484848 169.033473 40.8484848 171.460251 43.8787879 173.280335 45.0909091 177.527197 50.5454545 176.920502 51.7575758 179.34728 54.1818182 180.560669 54.1818182 180.560669 56 184.200837 56 181.774059 63.2727273 180.560669 63.8787879 181.167364 68.7272727 179.34728 69.3333333 179.34728 72.969697 181.774059 75.3939394 186.627615 71.7575758 187.841004 74.1818182 189.054393 79.030303 191.481172 83.8787879 190.874477 86.3030303 192.694561 88.1212121 194.514644 88.1212121 195.728033 92.969697 198.154812 95.3939394 199.368201 93.5757576 203.615063 94.7878788 204.828452 92.969697 210.288703 93.5757576 210.895397 94.1818182 214.535565 94.1818182 215.748954 91.7575758 216.962343 91.7575758 219.995816 96 220.60251 95.3939394 221.209205 87.5151515C221.209205 87.5151515 248.867242 90.7999195 263.909649 91.8362429z"/>
    <path stroke-width="3" d="M434.811169,164.398836 C427.540779,164.811822 413,165.031496 413,165.031496 L413,166.244094 L414.212903,166.850394 L415.425806,169.88189 L417.245161,171.094488 L418.458065,172.913386 L418.458065,174.125984 L419.670968,175.338583 L422.703226,177.15748 L423.916129,176.551181 L425.129032,177.15748 L425.735484,178.976378 L424.522581,179.582677 L423.916129,180.795276 L422.703226,182.614173 L423.916129,183.826772 L425.735484,185.03937 L425.735484,186.251969 L426.948387,188.070866 L428.767742,188.070866 L429.980645,188.677165 L431.193548,225.661417 L431.8,234.149606 L493.051613,229.905512 L494.870968,231.724409 L494.870968,232.937008 L491.83871,237.181102 L491.232258,237.787402 L491.232258,238.393701 L491.232258,239 L499.722581,237.787402 L500.329032,235.968504 L501.541935,235.362205 L500.329032,233.543307 L501.541935,233.543307 L500.935484,231.724409 L502.148387,231.724409 L501.541935,229.299213 L501.541935,228.086614 L502.754839,229.299213 L503.36129,228.692913 L503.967742,226.874016 L503.967742,226.267717 L505.787097,227.480315 L506.393548,225.661417 L507,223.84252 L506.393548,222.629921 L507,220.204724 L505.787097,220.204724 L504.574194,218.992126 L504.574194,220.204724 L502.754839,219.598425 L502.754839,218.385827 L500.935484,215.96063 L500.935484,215.354331 L501.541935,213.535433 L501.541935,212.929134 L500.329032,211.716535 L500.329032,209.291339 L497.903226,208.07874 L496.690323,206.259843 L496.083871,206.259843 L493.658065,205.047244 L492.445161,204.440945 L487.593548,200.80315 L487.593548,198.377953 L489.412903,193.527559 L489.412903,191.708661 L490.019355,190.496063 L488.2,188.677165 L485.774194,188.677165 L483.954839,190.496063 L482.741935,189.283465 L481.529032,186.251969 L481.529032,184.433071 L480.316129,182.614173 L476.677419,180.795276 L476.070968,179.582677 L472.432258,176.551181 L471.825806,175.338583 L471.219355,174.125984 L470.612903,172.913386 L469.4,169.275591 L470.006452,166.850394 L470.612903,165.637795 L466.367742,162 C466.367742,162 445.330027,163.801324 434.811169,164.398836 Z"/>
    <polygon stroke-width="3" points="525.6 254 526.2 255.217 527.4 255.826 527.4 297.826 527.4 308.174 531 332.522 530.4 334.348 528 333.13 527.4 333.739 525.6 333.739 523.2 332.522 520.8 334.348 519 335.565 517.2 334.348 517.2 335.565 516.6 337.391 513.6 338 513.6 336.783 512.4 333.739 510.6 331.913 510 330.087 510.6 325.826 510.6 324.609 483.6 327.043 483.6 324.609 483 322.174 484.2 322.174 484.8 320.957 484.2 318.522 485.4 316.696 486.6 312.435 490.2 309.391 489.6 306.957 490.2 306.957 491.4 303.304 489 301.478 489 299.652 487.8 297.826 489 297.217 488.4 296.609 487.8 295.391 489 293.565 487.2 292.348 487.2 290.522 488.4 289.304 487.2 287.478 487.2 284.435 486 283.217 487.2 282 486 280.783 487.8 278.348 487.2 275.304 489.6 274.087 490.2 273.478 489 272.261 491.4 269.826 491.4 268.609 493.2 267.391 493.2 261.913 495 261.913 495 260.087 496.8 258.87 496.8 257.043"/>
    <polygon stroke-width="3" points="471.596 114.362 405.185 118 404.576 88.294 403.358 86.475 400.921 85.869 399.093 82.231 400.921 81.019 402.139 79.2 402.748 77.381 402.139 71.319 400.311 68.894 399.702 66.469 399.093 62.225 399.093 61.013 398.483 57.981 398.483 53.131 397.874 49.494 394.219 41.612 394.219 34.944 394.828 33.125 393 28.275 417.98 27.063 417.98 21 420.417 21.606 421.636 23.425 422.854 27.063 422.854 29.488 424.682 31.306 428.338 31.306 428.947 31.913 433.821 32.519 434.43 34.337 436.258 33.731 438.695 33.731 439.305 32.519 441.132 31.913 444.788 31.913 446.007 32.519 448.444 32.519 448.444 33.731 447.225 33.731 447.834 34.337 450.272 34.337 450.881 36.763 452.099 37.369 452.709 37.975 453.318 35.55 455.755 35.55 456.364 37.369 457.583 37.369 459.411 37.369 460.02 39.188 461.238 39.188 461.848 40.4 464.894 39.188 466.113 38.581 469.768 36.156 471.596 38.581 474.033 37.975 479.517 37.369 481.344 39.188 482.563 38.581 485 38.581 480.735 41.612 474.033 44.038 469.768 47.675 464.894 53.131 460.02 57.981 456.974 59.8 456.364 61.619 455.755 62.831 454.536 62.831 455.146 68.894 455.146 72.531 453.318 73.744 450.272 75.563 449.662 77.381 448.444 79.2 448.444 81.019 450.272 81.625 451.49 83.444 450.881 85.869 450.272 87.688 450.881 88.9 450.272 89.506 450.881 90.719 450.272 94.356 453.318 96.781 455.755 96.781 457.583 98.6 460.02 99.206 462.457 101.631 464.285 104.056 466.113 105.269 468.55 105.269 470.987 107.694 471.596 109.513"/>
    <path stroke-width="3" d="M529.80226 136L555.79661 132.368421 555.79661 133.578947 572.723164 130.552632 572.723164 128.736842 575.141243 125.710526 575.141243 121.473684 576.350282 119.052632 578.163842 118.447368 577.559322 116.026316 579.372881 114.815789 578.768362 113.605263 579.977401 113 581.79096 114.815789 583 107.552632 580.581921 104.526316 578.768362 98.4736842 576.954802 93.6315789 575.745763 91.2105263 573.327684 91.2105263 570.909605 93.0263158 569.700565 93.0263158 567.887006 97.8684211 566.677966 97.8684211 566.073446 99.6842105 564.259887 99.6842105 561.237288 99.0789474 561.841808 94.2368421 564.259887 93.0263158 565.468927 91.8157895 565.468927 89.3947368 566.677966 88.1842105 567.887006 86.9736842 567.282486 80.3157895 566.073446 77.8947368 564.259887 76.6842105 564.864407 74.8684211 566.677966 75.4736842 565.468927 73.6578947 564.259887 73.6578947 564.259887 71.2368421 561.841808 71.2368421 560.028249 70.6315789 558.214689 70.0263158 554.587571 70.0263158 553.983051 68.2105263 552.169492 67.6052632 550.355932 67.6052632 546.728814 66.3947368 544.915254 67.6052632 543.101695 69.4210526 543.101695 71.2368421 543.706215 71.8421053 546.124294 72.4473684 545.519774 73.0526316 541.892655 74.2631579 540.079096 75.4736842 540.683616 78.5 540.683616 82.1315789 539.474576 84.5526316 538.265537 83.9473684 537.661017 82.7368421 537.661017 79.7105263 537.661017 77.2894737 535.847458 80.9210526 535.242938 82.1315789 534.033898 82.1315789 532.220339 83.3421053 532.824859 85.1578947 530.40678 86.3684211 531.615819 88.1842105 531.615819 92.4210526 530.40678 94.8421053 528.59322 97.2631579 530.40678 99.6842105 530.40678 101.5 529.19774 103.921053 530.40678 106.947368 532.220339 109.368421 532.824859 109.973684 534.033898 109.973684 533.429379 111.789474 534.638418 114.815789 535.242938 116.631579 535.242938 124.5 533.429379 128.736842 532.220339 131.763158 531.615819 134.789474 529.80226 136zM512.875706 82.1315789L516.502825 73.6578947 518.316384 70.6315789 518.920904 67 520.129944 68.8157895 520.129944 70.6315789 521.943503 68.2105263 524.361582 67 524.966102 69.4210526 523.152542 71.2368421 523.757062 71.8421053 526.779661 68.2105263 527.988701 66.3947368 530.40678 65.1842105 532.220339 65.7894737 535.242938 64.5789474 536.451977 62.7631579 540.683616 62.1578947 544.310734 63.3684211 546.124294 65.1842105 547.333333 61.5526316 550.355932 61.5526316 555.19209 62.1578947 557.00565 61.5526316 558.819209 61.5526316 561.237288 61.5526316 561.237288 60.3421053 560.028249 59.1315789 558.819209 60.9473684 556.40113 60.9473684 554.587571 59.7368421 553.378531 59.1315789 552.169492 58.5263158 552.169492 57.3157895 552.774011 55.5 552.169492 53.0789474 550.355932 54.2894737 547.937853 55.5 546.728814 55.5 546.124294 54.8947368 544.310734 55.5 541.288136 54.8947368 541.288136 50.6578947 538.870056 51.2631579 535.242938 53.6842105 531.011299 53.0789474 527.384181 54.2894737 523.757062 57.3157895 522.548023 58.5263158 520.734463 57.9210526 519.525424 59.1315789 517.711864 57.3157895 514.689266 59.1315789 512.875706 58.5263158 509.248588 53.6842105 505.621469 53.0789474 503.20339 53.6842105 499.576271 56.1052632 498.971751 51.8684211 501.389831 48.8421053 504.412429 45.8157895 503.80791 45.2105263 507.435028 44 505.621469 44 501.99435 44.6052632 498.367232 47.0263158 497.158192 48.8421053 495.344633 49.4473684 494.135593 51.2631579 492.926554 53.0789474 491.112994 53.0789474 488.694915 55.5 483.254237 56.7105263 482.045198 58.5263158 480.231638 59.7368421 476 61.5526316 478.418079 62.1578947 480.231638 64.5789474 494.740113 67.6052632 497.158192 68.8157895 500.180791 68.2105263 503.80791 68.8157895 505.621469 69.4210526 505.621469 71.2368421 507.435028 71.2368421 509.248588 72.4473684 510.457627 75.4736842 509.248588 77.8947368 509.853107 77.8947368 511.666667 77.2894737 512.271186 77.2894737 511.062147 80.9210526 512.875706 82.1315789zM700 101.95122L700.607595 101.95122 708.506329 100.121951 709.113924 100.731707 721.873418 97.0731707 721.873418 97.6829268 726.734177 95.8536585 727.341772 97.6829268 727.949367 97.6829268 728.556962 97.6829268 728.556962 99.5121951 730.379747 100.121951 730.987342 98.2926829 731.594937 98.2926829 731.594937 99.5121951 730.987342 100.731707 731.594937 103.170732 732.202532 103.780488 732.810127 102.560976 733.417722 101.95122 734.025316 102.560976 734.632911 101.341463 734.632911 100.121951 735.240506 100.121951 736.455696 98.902439 736.455696 97.6829268 737.670886 97.6829268 738.278481 98.902439 738.278481 100.731707 739.493671 100.731707 740.101266 99.5121951 740.708861 98.902439 742.531646 98.2926829 746.177215 96.4634146 746.177215 94.6341463 745.56962 94.0243902 744.962025 92.804878 743.746835 90.9756098 743.139241 90.9756098 743.746835 92.195122C743.746835 92.195122 745.149935 93.5256796 745.547688 94.1909584 745.75753 94.5419398 745.56962 95.2439024 745.56962 95.2439024L743.746835 95.8536585 743.139241 96.4634146 742.531646 97.0731707 741.316456 97.0731707 738.886076 97.0731707 738.278481 95.8536585 738.278481 94.0243902 737.063291 94.6341463 735.240506 94.0243902 735.848101 92.195122 733.417722 89.7560976 732.202532 90.3658537 731.594937 90.9756098 730.379747 90.3658537 729.772152 89.7560976 729.772152 88.5365854 730.379747 87.9268293 730.379747 87.3170732 731.594937 86.7073171 730.987342 86.097561 730.987342 84.8780488 733.417722 84.2682927 734.025316 83.0487805 732.810127 83.6585366 731.594937 83.0487805 730.987342 82.4390244 730.987342 81.2195122 729.772152 81.2195122 730.379747 80 729.164557 80 727.949367 80.6097561C727.949367 80.6097561 727.544304 81.4227642 727.341772 81.8292683L726.734177 81.8292683 725.518987 84.2682927 723.696203 84.8780488 710.936709 87.9268293 700.607595 89.7560976 700 101.95122zM737.670886 103.780488L737.670886 105 738.886076 103.780488 741.316456 103.170732 739.493671 101.95122 738.886076 103.170732 737.670886 103.780488zM745.56962 103.170732L746.177215 103.780488 747.392405 103.780488 748 103.170732 747.392405 101.95122 746.78481 103.170732 745.56962 103.170732zM730.379747 101.341463L729.772152 102.560976 730.379747 104.390244 730.987342 103.780488 730.379747 101.341463z"/>
    <polygon stroke-width="3" points="631 158.213 632.835 167.149 635.282 164.596 636.505 162.681 637.117 161.404 638.951 161.404 640.786 159.489 640.786 157.574 642.01 159.489 643.845 159.489 645.068 158.851 645.68 156.936 647.515 156.936 648.126 155.66 648.738 155.021 651.184 156.298 653.631 155.66 653.019 156.936 653.631 156.936 654.243 158.213 655.466 158.851 655.466 160.128 657.913 160.128 659.748 160.766 659.136 162.681 660.359 163.957 662.806 163.957 663.417 165.234 665.252 165.234 665.864 163.957 667.699 165.872 667.087 167.149 667.087 168.426 666.476 169.702 666.476 170.979 665.252 172.894 665.252 174.809 666.476 174.809 666.476 172.894 667.699 173.532 668.311 172.894 669.534 174.809 670.757 175.447 670.146 173.532 671.369 174.809 671.981 176.085 673.816 175.447 675.039 176.085 675.65 176.723 676.874 176.085 678.097 178 678.709 176.723 676.874 174.809 676.262 174.809 674.427 173.532 673.204 172.894 671.981 170.979 671.981 168.426 673.204 170.979 674.427 172.255 676.874 173.532 676.874 172.894 674.427 170.34 674.427 168.426 673.204 167.149 673.204 165.872 673.204 163.957 671.981 163.319 673.204 162.681 671.369 162.043 673.204 160.128 670.757 158.213 671.981 157.574 672.592 158.213 672.592 156.936 673.816 155.66 673.204 155.021 674.427 154.383 675.039 155.66 675.039 153.106 675.65 154.383 676.874 153.745 676.262 152.468 676.874 151.191 678.097 149.915 678.709 151.83 679.932 150.553 679.932 151.83 678.709 153.106 680.544 153.745 679.932 154.383 677.485 155.021 676.262 156.936 676.262 159.489 677.485 158.851 678.097 158.851 677.485 161.404 676.874 162.043 675.65 162.043 675.65 163.319 678.097 162.043 678.709 163.319 678.097 164.596 679.32 164.596 678.709 165.872 678.097 166.511 679.932 167.787 681.155 167.149 681.767 168.426 678.097 169.064 678.709 170.34 678.097 171.617 680.544 172.255 681.767 174.17 681.767 172.255 682.99 172.255 684.214 170.34 684.214 172.255 684.214 173.532 684.825 173.532 684.214 174.809 685.437 174.809 686.049 176.085 685.437 178 688.495 177.362 691.553 176.085 691.553 174.17 692.777 173.532 692.165 171.617 694 170.979 694 169.702 692.777 167.787 685.437 169.702 679.932 148"/>
    <polygon stroke-width="3" points="729 2.425 723.6 16.37 724.2 20.614 723 22.433 723 23.646 722.4 25.465 723.6 26.071 723 26.677 723 29.102 724.2 29.102 723 31.528 723 33.346 721.2 35.772 720.6 37.591 721.8 38.803 721.2 40.016 720 39.409 720 40.016 720 42.441 718.2 40.622 717 42.441 726.6 70.937 726.6 72.756 729 73.969 729 75.787 731.4 77 732 73.969 731.4 71.543 733.2 70.331 733.8 69.724 733.2 67.299 735 66.693 733.8 64.268 736.2 61.236 737.4 61.236 737.4 63.055 738 61.843 739.2 63.055 739.8 61.843 736.8 58.205 739.8 60.63 739.8 57.598 741.6 60.63 742.8 56.386 744.6 57.598 745.8 56.386 746.4 53.961 745.8 49.717 746.4 48.504 747.6 46.685 748.2 47.898 749.4 49.717 751.2 49.717 751.8 47.291 753.6 47.898 754.8 49.11 756 45.472 754.8 44.26 757.2 45.472 759 44.26 760.8 40.622 762 40.622 764.4 39.409 767.4 36.984 768 34.559 766.2 35.165 766.2 32.74 763.8 30.921 762.6 31.528 760.2 30.315 759.6 29.102 759 27.283 759.6 25.465 758.4 24.858 755.4 24.858 754.2 24.252 753.6 20.614 747.6 3.031 744.6 1.819 742.8 0 740.4 .606 739.2 2.425 736.8 3.638 734.4 4.85 732.6 4.244 732 1.819"/>
    <polygon stroke-width="3" points="447 295.43 488.352 293 490.203 294.215 488.969 296.037 489.586 297.252 490.203 297.86 488.969 298.467 490.203 300.29 490.203 302.112 492.672 303.935 491.438 307.579 490.82 307.579 491.438 310.009 487.734 313.047 486.5 317.299 485.266 319.121 485.883 321.551 485.266 322.766 484.031 322.766 484.648 325.196 484.648 327.626 512.422 325.196 512.422 326.411 511.805 330.664 512.422 332.486 514.273 334.308 515.508 337.953 515.508 338.561 513.656 338.561 510.57 337.953 508.719 336.131 506.25 336.131 503.164 339.776 503.781 341.598 506.25 342.206 508.719 342.813 512.422 340.383 514.891 340.383 514.273 341.598 512.422 342.206 513.039 343.421 514.273 343.421 515.508 344.636 516.742 343.421 517.977 340.991 519.211 343.421 519.828 344.636 517.977 344.636 516.742 347.065 514.891 346.458 515.508 348.28 514.273 348.888 518.594 351.925 523.531 353.14 526 356.178 524.148 358 522.297 356.178 521.68 356.785 519.828 354.963 517.359 354.355 516.742 353.14 514.891 353.748 513.039 351.318 509.336 350.103 507.484 350.103 508.102 351.318 509.953 352.533 509.953 354.355 509.953 356.178 508.719 358 507.484 356.785 507.484 355.57 505.016 354.355 503.164 354.963 501.93 355.57 501.313 358 496.992 357.393 495.141 357.393 492.055 356.785 492.055 355.57 494.523 356.178 493.906 354.963 492.055 353.14 492.672 351.318 492.055 350.71 490.82 352.533 488.352 351.925 487.734 351.318 487.117 350.103 486.5 350.71 485.883 348.888 482.797 349.495 482.797 347.673 480.945 347.673 478.477 348.888 477.242 349.495 479.094 351.318 476.625 353.14 470.453 353.14 464.898 350.103 461.195 349.495 458.727 350.103 453.789 351.318 452.555 351.318 451.938 350.103 453.789 349.495 453.789 347.673 453.789 346.458 453.789 345.243 454.406 342.813 453.172 340.383 453.789 339.168 453.789 337.346 455.023 334.916 455.641 333.093 455.641 329.449 456.258 328.841 455.641 328.234 455.641 326.411 453.789 324.589 453.789 322.766 452.555 321.551 452.555 320.944 451.32 319.729 451.32 317.299 449.469 314.869 447.617 313.047"/>
    <polygon stroke-width="3" points="505 230 523.638 228.186 523.638 226.977 523.037 225.163 526.644 225.163 581.957 219.721 583.16 218.512 589.773 214.884 590.374 213.07 593.38 211.86 593.38 210.651 594.583 209.442 594.583 207.628 598.791 205.209 603 199.767 603 199.163 601.196 199.163 598.19 197.349 595.785 194.326 595.184 193.116 592.779 190.698 593.38 188.279 592.779 186.465 591.577 184.651 589.172 184.047 587.969 181.023 585.564 182.837 584.963 184.047 583.16 184.047 582.558 184.651 581.356 183.442 578.951 183.442 577.748 185.256 576.546 184.651 574.742 182.837 571.736 183.442 569.933 182.837 569.331 181.628 568.129 179.209 566.926 179.209 565.724 178 564.521 179.209 562.718 178 560.914 179.814 561.515 181.023 561.515 182.233 562.718 182.837 562.718 184.651 560.914 184.651 557.908 186.465 556.706 185.86 554.301 186.465 554.902 189.488 553.699 191.302 552.497 191.302 552.497 193.721 551.294 194.326 550.092 194.326 549.491 196.744 549.491 199.163 547.687 200.372 545.883 199.163 544.08 198.558 543.479 197.349 542.276 199.163 541.074 201.581 540.472 203.395 539.27 202.791 537.466 201.581 535.663 202.186 535.061 202.791 533.859 205.209 532.656 204 529.65 202.791 527.847 204 527.245 202.791 527.245 204.605 526.644 205.209 526.043 204 524.84 204.605 523.037 204 523.037 206.419 521.233 206.419 520.632 207.628 520.031 209.442 521.233 210.651 521.233 211.86 516.423 213.674 515.822 215.488 517.025 217.302 517.626 218.512 516.423 219.116 515.822 219.116 511.613 217.302 509.81 217.302 508.607 218.512 507.405 220.326 508.006 220.93 507.405 221.535 508.607 221.535 508.006 223.953 508.607 225.163 507.405 228.791 505.601 227.581 505.601 228.186"/>
    <path stroke-width="3" d="M380.912502 178.172582C365.019512 178.385824 333.233533 178.208205 333.233533 178.208205L332 228.348732C332 228.348732 365.374851 229.165446 382.062277 228.9697 399.708185 228.762711 435 227.140527 435 227.140527L433.766467 190.29026 432.532934 189.686157 430.682635 189.686157 429.449102 187.873849 429.449102 186.665644 427.598802 185.457438 426.365269 184.249233 427.598802 182.436925 428.215569 181.228719 429.449102 180.624616 428.832335 178.812308 427.598802 178.208205 426.365269 178.812308 423.281437 177C423.281437 177 395.03548 177.983089 380.912502 178.172582zM415.086331 165.395349C415.086331 165.395349 432.405032 165.015438 441.064383 164.523157 450.131651 164.007686 468.266187 162.372093 468.266187 162.372093L472.496403 166 473.100719 165.395349 472.496403 162.976744 476.122302 160.55814 476.122302 158.139535 478.539568 155.72093 477.935252 153.906977 475.517986 151.488372 476.726619 147.860465 481.561151 146.651163 485.18705 144.232558 485.18705 141.813953 487 140 486.395683 135.162791 482.769784 133.953488 482.769784 132.139535 479.748201 129.72093 478.539568 126.697674 474.913669 126.697674 473.100719 123.069767 472.496403 118.837209 473.705036 117.023256 471.892086 115.813953 471.28777 114 403 117.627907 403 118.837209 404.208633 120.046512 403.604317 121.860465 404.81295 123.069767 404.208633 127.906977 403 129.72093 404.81295 133.953488 406.021583 133.953488 406.625899 136.976744 406.625899 139.395349 407.834532 140 408.438849 141.813953 409.647482 142.418605 409.647482 144.232558 410.856115 145.44186 410.251799 149.069767 412.064748 150.883721 412.064748 152.697674 413.877698 153.906977 412.669065 154.511628 413.877698 155.72093 413.877698 162.976744 415.086331 164.186047 415.086331 165.395349z"/>
    <polygon stroke-width="3" points="522.614 140.37 524.457 141.563 526.3 141.563 531.829 138.58 558.243 135 558.243 136.193 563.771 179.151 563.157 179.748 563.771 180.941 563.771 182.134 565 182.731 565 184.521 563.157 184.521 560.086 186.311 558.857 185.714 556.4 186.311 557.014 189.294 555.786 191.084 554.557 191.084 554.557 193.471 553.329 194.067 552.1 194.067 551.486 196.454 551.486 198.84 549.643 200.034 547.8 198.84 545.957 198.244 545.343 197.05 544.114 198.84 543.5 200.034 542.886 201.227 542.271 203.017 541.043 202.42 539.2 201.227 537.357 201.824 536.743 202.42 535.514 204.807 534.286 203.613 531.214 202.42 529.371 203.613 528.757 202.42 528.757 204.21 528.143 204.807 527.529 203.613 526.3 204.21 524.457 203.613 524.457 204.807 524.457 206 522.614 206 522 204.21 522.614 203.613 522.614 201.227 523.843 200.034 522.614 198.84 523.229 197.647 524.457 197.05 525.686 194.664 526.914 193.471 526.914 191.681 528.143 189.891 528.143 188.697 527.529 186.908 527.529 185.714 526.3 183.924 525.071 182.731 526.3 182.134 525.686 180.345 526.914 179.151"/>
    <polygon stroke-width="3" points="518.652 127 480.826 130.615 483.978 133.026 483.978 134.833 487.761 136.038 488.391 140.859 486.5 142.667 486.5 145.077 482.717 147.487 477.674 148.692 476.413 152.308 478.935 154.718 479.565 156.526 477.043 158.936 477.043 161.346 473.261 163.756 473.891 166.167 473.261 166.769 472.63 167.974 472 170.385 473.261 174 475.152 177.615 478.935 180.628 479.565 181.833 483.348 183.641 484.609 185.449 484.609 187.256 485.87 190.269 487.13 191.474 489.022 189.667 491.543 189.667 493.435 191.474 492.804 192.077 492.804 194.487 490.913 199.308 490.913 201.718 495.957 205.333 499.739 207.141 500.37 207.141 501.63 208.949 504.152 210.154 504.152 212.564 505.413 213.769 505.413 214.372 504.783 216.179 504.783 216.782 506.674 219.192 506.674 220.397 508.565 221 508.565 219.795 509.826 221 510.457 220.397 509.826 219.795 511.087 217.987 512.348 216.782 514.239 216.782 518.652 218.59 519.283 218.59 520.543 217.987 519.913 216.782 518.652 214.974 519.283 213.167 521.174 212.564 524.326 211.359 524.326 210.154 523.065 208.949 523.696 207.141 524.326 205.936 523.696 204.128 524.326 203.526 524.326 201.115 525.587 199.91 524.326 198.705 524.957 197.5 526.217 196.897 527.478 194.487 528.739 193.282 528.739 191.474 530 189.667 530 188.462 529.37 186.654 529.37 185.449 528.109 183.641 526.848 182.436 528.109 181.833 527.478 180.026 528.739 178.821 524.326 139.654 522.435 137.846 521.804 136.038 521.804 134.231 519.913 133.026 519.283 131.218 518.652 130.615"/>
    <polygon stroke-width="3" points="216.346 138 220 96.059 216.955 91.804 215.737 91.804 214.519 94.235 210.865 94.235 210.256 93.627 204.774 93.02 203.556 94.843 199.293 93.627 198.075 95.451 195.639 93.02 194.421 88.157 192.594 88.157 190.767 86.333 191.376 83.902 188.94 79.039 187.722 74.176 186.504 71.745 181.632 75.392 179.195 72.961 179.195 69.314 181.023 68.706 180.414 63.843 181.632 63.235 184.068 55.941 180.414 55.941 180.414 54.118 179.195 54.118 176.759 51.686 177.368 50.471 173.105 45 171.278 43.784 168.842 40.745 169.451 40.745 168.842 38.922 169.451 37.706 168.233 34.667 165.797 31.02 168.233 15.824 156.662 14 149.962 55.941 151.18 58.373 151.18 59.588 150.571 60.196 151.18 63.843 154.835 66.882 155.444 69.922 152.398 73.569 151.789 74.784 149.353 78.431 148.744 80.255 146.308 82.686 143.263 86.333 142.654 89.98 145.09 90.588 146.308 91.804 145.09 93.02 145.09 94.843 143.872 97.275 139 127.667 177.368 133.137"/>
    <path d="M386.446429,513 L387.672619,512.382353 L388.285714,510.529412 L391.35119,508.058824 L393.803571,506.823529 L396.255952,506.205882 L399.321429,505.588235 L401.77381,503.735294 L403,501.264706 L399.934524,500.029412 L399.321429,497.558824 L397.482143,497.558824 L397.482143,495.088235 L395.029762,492.617647 L388.285714,490.147059 L387.672619,490.764706 L384.607143,488.911765 L383.380952,487.676471 L381.541667,488.911765 L382.767857,491.382353 L383.380952,492.617647 L380.928571,495.705882 L379.089286,498.176471 L380.315476,500.647059 L381.541667,503.735294 L382.154762,506.205882 L381.541667,509.911765 L382.767857,511.764706 L385.220238,511.764706 L386.446429,513 Z M303.065476,454.323529 L301.22619,456.176471 L300,457.411765 L300,458.647059 L300.613095,459.264706 L301.839286,457.411765 L303.678571,456.794118 L303.678571,454.941176 L303.065476,454.323529 Z M312.875,450 L309.809524,451.852941 L308.583333,453.705882 L309.196429,455.558824 L311.035714,455.558824 L312.875,457.411765 L314.10119,457.411765 L316.553571,456.794118 L317.166667,454.323529 L318.392857,452.470588 L316.553571,450.617647 L314.10119,451.235294 L312.875,450 Z M342.916667,460.5 L345.369048,463.588235 L345.369048,466.058824 L347.821429,464.823529 L348.434524,466.676471 L349.047619,468.529412 L347.208333,468.529412 L344.142857,467.911765 L342.303571,466.676471 L342.303571,467.911765 L341.077381,468.529412 L339.238095,466.676471 L338.011905,464.823529 L337.39881,462.352941 L339.85119,462.970588 L342.916667,460.5 Z M356.404762,469.147059 L357.630952,469.764706 L359.470238,470.382353 L361.922619,470.382353 L361.922619,469.764706 L363.14881,471 L367.440476,471 L364.988095,472.852941 L362.535714,472.852941 L360.696429,471.617647 L357.017857,472.235294 L355.791667,472.235294 L355.178571,471 L356.404762,470.382353 L356.404762,469.147059 Z M360.696429,475.323529 L362.535714,475.323529 L364.988095,477.176471 L363.14881,479.029412 L361.309524,478.411765 L361.309524,476.558824 L360.083333,475.941176 L360.696429,475.323529 Z M369.279762,481.5 L366.827381,482.117647 L366.827381,482.735294 L368.053571,483.352941 L369.892857,482.735294 L369.279762,481.5 Z M370.505952,477.794118 L371.732143,479.029412 L371.732143,480.882353 L372.345238,482.117647 L373.571429,481.5 L375.410714,481.5 L376.636905,480.264706 L377.863095,480.882353 L379.702381,479.029412 L379.702381,477.794118 L377.863095,476.558824 L374.797619,474.705882 L372.345238,475.941176 L371.119048,475.323529 L368.053571,472.235294 L367.440476,474.088235 L366.827381,475.323529 L368.666667,477.794118 L370.505952,477.794118 Z"/>
    <polygon stroke-width="3" points="595.548 245 560 249.928 571.032 284.424 573.484 289.968 575.323 292.432 575.323 294.896 577.161 295.512 575.323 297.36 575.323 300.44 574.097 301.672 574.097 304.752 576.548 307.832 575.935 313.992 577.774 315.84 578.387 317.688 579.613 319.536 580.226 322 616.387 319.536 620.065 318.92 620.065 320.152 621.29 322 623.129 322 623.742 318.304 622.516 317.688 622.516 315.224 623.742 313.992 626.806 314.608 630.484 314.608 629.258 312.76 630.484 310.296 629.258 310.296 629.871 309.064 629.258 307.832 629.258 307.216 629.258 305.368 630.484 305.368 630.484 307.216 631.71 304.752 628.645 304.136 628.645 302.904 631.71 303.52 631.097 302.288 632.935 300.44 631.097 301.056 629.871 299.824 632.323 299.208 631.097 297.976 631.71 296.744 630.484 296.128 632.935 296.128 633.548 294.896 631.71 294.28 632.323 293.048 634.774 293.664 634.774 292.432 636 291.2 634.161 290.584 632.935 289.968 632.323 290.584 631.097 288.736 631.097 286.272 629.258 283.808 628.645 282.576 626.806 282.576 626.194 281.344 625.581 278.88 624.355 277.032 624.355 275.8 621.29 273.952 619.452 273.952 619.452 272.72 618.226 272.104 618.226 270.872 616.387 270.256 616.387 269.024 614.548 267.176 612.71 267.176 610.871 264.096 607.806 262.864 607.194 261.632 605.968 261.632 605.355 259.784 603.516 258.552 602.903 257.936 602.29 256.088 600.452 254.856 600.452 253.008 598 253.624 596.161 252.392 595.548 251.776 593.71 251.16 592.484 250.544 593.71 248.08 594.323 246.848"/>
    <polygon stroke-width="3" points="580.294 317.662 542.608 321.935 542 324.987 543.824 326.818 545.647 327.429 545.647 329.87 546.255 331.091 547.471 331.091 546.255 333.532 546.863 334.143 549.902 330.481 549.294 328.649 551.118 329.87 551.725 328.649 552.941 328.649 552.333 329.87 554.157 330.481 552.941 331.091 558.412 330.481 559.627 328.649 560.843 328.649 563.882 328.039 565.706 329.87 562.667 330.481 567.529 331.701 571.176 333.532 569.353 331.701 571.176 330.481 571.784 331.701 573.608 329.87 574.216 331.091 572.392 332.922 573.608 333.532 575.431 333.532 576.647 334.753 575.431 335.364 573.608 334.753 576.647 336.584 578.471 338.416 578.471 340.247 580.294 340.247 582.725 339.026 585.157 337.195 585.765 338.416 590.02 334.753 592.451 334.753 590.02 333.532 592.451 331.701 594.275 331.091 597.314 331.091 599.745 332.312 601.569 332.312 604 334.753 604.608 335.974 607.039 336.584 607.647 339.026 608.863 340.247 610.686 340.857 611.902 342.688 613.725 343.909 617.373 343.909 618.588 346.961 620.412 348.182 620.412 350.623 621.02 351.844 621.02 357.948 619.804 361 621.02 362.221 620.412 366.494 622.843 368.325 623.451 365.883 621.627 364.662 622.235 362.831 624.667 364.052 624.667 365.883 625.882 364.052 626.49 365.273 627.098 366.494 624.667 370.156 624.059 372.597 625.882 374.429 626.49 376.26 628.314 378.701 629.529 380.532 631.353 382.364 633.176 382.364 630.745 379.922 632.569 379.922 635 379.312 635.608 379.922 634.392 380.532 635 384.805 635.608 386.636 636.824 386.026 636.824 384.805 639.255 382.974 639.255 384.195 638.039 385.416 636.824 387.247 638.039 387.857 638.647 387.247 639.863 389.688 640.471 392.74 642.294 395.182 647.157 396.403 648.98 397.623 648.98 398.844 649.588 399.455 651.412 401.286 652.627 403.727 655.667 404.338 656.882 405.558 655.667 406.779 652.627 404.948 652.627 406.779 653.843 408 656.882 407.39 657.49 406.169 659.922 406.779 661.745 404.338 663.569 404.338 665.392 401.286 664.176 400.065 665.392 395.792 666 392.13 666 389.078 666 385.416 665.392 384.805 665.392 379.922 664.784 376.26 663.569 375.039 663.569 373.818 661.137 371.377 659.922 371.377 659.314 370.156 661.137 370.766 659.922 368.325 659.314 367.714 656.882 363.442 654.451 359.779 651.412 354.896 648.373 350.623 647.157 346.351 648.373 345.74 648.98 348.182 650.804 348.182 645.333 341.468 639.863 334.143 636.216 325.597 635.608 324.377 634.392 321.935 633.784 318.883 631.961 317.662 631.961 315.831 633.176 315.831 633.176 314.61 628.314 314.61 625.275 314 624.059 315.221 624.059 317.662 625.275 318.273 624.667 321.935 622.843 321.935 621.627 320.104 621.627 318.883 617.98 319.494 582.118 321.935 581.51 319.494"/>
    <polygon stroke-width="3" points="684.478 166 691.783 164.308 693 163.744 693 163.179 692.391 162.051 690.565 162.615 691.174 161.487 691.174 160.359 692.391 159.795 691.174 159.231 689.957 158.667 688.13 157.538 688.13 156.41 685.696 155.282 685.696 153.026 682.043 150.205 682.043 148.513 681.435 147.949 681.435 146.821 682.652 145.692 683.261 144 680.826 144 679.609 145.128 679 146.821"/>
    <polygon stroke-width="3" points="701 101.667 702.692 113.333 703.821 114.5 701.564 117.417 702.692 118 704.385 118 707.205 114.5 708.897 113.917 710.026 112.167 711.154 112.167 713.974 111 716.795 110.417 716.231 109.25 717.923 109.833 719.051 109.25 720.744 108.667 721.872 108.083 723 108.083 723 105.75 720.744 97 708.897 100.5 708.333 99.917"/>
    <path stroke-width="3" d="M288.826087,160.579832 C274.179745,159.911874 239.42236,157 239.42236,157 L234,223.226891 C234,223.226891 256.90932,225.175152 270.472675,225.850964 C288.840997,226.766189 329.795031,228 329.795031,228 L331,161.176471 C331,161.176471 304.705625,161.304031 288.826087,160.579832 Z"/>
    <polygon stroke-width="3" points="102.212 120.935 48.879 110 48.879 111.823 47.667 113.645 48.879 114.86 48.879 120.328 46.455 125.188 46.455 126.403 45.848 128.833 46.455 129.44 44.636 130.048 44.03 131.263 42.818 131.87 41 134.908 41 137.945 43.424 141.59 44.03 142.805 45.848 146.451 45.848 151.918 44.03 154.956 44.636 156.778 45.242 161.031 44.03 161.638 48.273 168.928 50.697 171.358 50.697 173.788 51.909 175.611 53.121 178.041 53.121 179.256 51.303 176.826 51.303 178.041 53.727 181.686 54.333 181.686 56.152 183.509 57.364 178.648 59.182 178.041 61.606 180.471 62.818 179.863 64.03 179.256 64.636 180.471 65.848 181.078 67.667 181.078 69.485 181.686 71.303 183.509 70.697 183.509 68.879 182.294 67.667 182.901 65.848 182.294 62.818 181.078 61.606 181.686 60.394 180.471 58.576 181.686 58.576 182.294 59.182 183.509 59.182 184.724 60.394 185.939 60.394 188.369 60.394 190.191 61.606 190.799 61 191.406 59.182 190.191 57.364 187.761 57.364 186.546 57.364 184.724 56.152 184.724 55.545 185.939 56.152 187.154 55.545 188.976 56.152 191.406 55.545 193.836 57.364 197.481 59.182 199.304 61.606 199.911 62.818 202.341 62.212 204.771 60.394 205.986 59.788 205.986 59.788 210.846 60.394 212.061 62.212 213.884 62.818 216.314 64.03 216.922 64.03 219.352 65.242 221.174 65.242 222.997 67.667 224.212 68.273 226.642 70.697 227.857 70.697 229.679 69.485 230.894 70.091 232.109 72.515 233.324 72.515 235.147 71.909 237.577 71.909 240.007 71.909 241.829 70.697 243.044 72.515 243.652 73.121 245.474 77.364 245.474 77.97 246.689 79.788 246.689 81 247.904 82.818 248.512 84.636 247.904 88.273 250.942 89.485 253.98 93.727 256.41 94.939 257.017 98.576 257.017 100.394 259.447 99.788 262.485 101 263.092 102.212 262.485 104.03 263.092 106.455 266.13 110.091 270.382 111.909 272.205 113.121 275.85 113.727 278.887 113.121 281.317 113.727 282.532 114.939 283.747 114.939 285.57 148.879 288 149.485 287.392 151.303 288 151.909 288 152.515 286.785 153.121 285.57 153.121 283.14 150.697 282.532 150.091 281.317 150.697 279.495 150.697 275.85 152.515 275.85 153.727 273.42 154.333 270.99 154.939 268.56 154.939 267.345 156.152 266.13 156.758 264.915 159.182 263.7 161 261.877 157.97 258.84 157.364 255.195 156.152 252.765 155.545 251.549 155.545 249.727 93.121 170.143"/>
    <polygon stroke-width="3" points="438.322 285.538 437.087 254.769 434 236.923 434 236.308 496.357 232 498.209 233.846 498.209 235.077 495.122 239.385 494.504 240 494.504 241.231 503.148 240 504.383 240.615 505 241.231 503.148 241.231 503.148 242.462 503.765 243.077 500.678 244.923 501.296 247.385 501.296 248.615 500.061 248.615 499.443 251.077 498.826 252.923 500.061 255.385 498.209 255.385 496.974 257.846 496.974 259.692 495.122 260.923 495.122 262.769 493.27 262.769 493.27 268.308 491.417 269.538 491.417 270.769 488.948 273.231 490.183 274.462 489.565 275.077 487.096 276.308 487.713 279.385 485.861 281.846 487.096 283.077 485.861 284.308 487.096 285.538 487.096 288.615 488.33 290.462 487.096 291.692 487.096 293.538 445.113 296 445.113 286.769 444.496 286.154 441.409 286.154 440.791 286.769 439.557 286.154"/>
    <path stroke-width="3" d="M191.557537,220.314297 C206.038358,221.87035 235,224.368421 235,224.368421 L227.040816,322 L197.653061,319.54386 L145,293.140351 L145.612245,291.298246 L146.836735,289.45614 L147.44898,288.842105 L149.285714,289.45614 L149.897959,289.45614 L151.122449,287 L151.122449,284.54386 L148.673469,283.929825 L148.061224,282.701754 L148.673469,280.859649 L148.673469,277.175439 L150.510204,277.175439 L151.734694,274.719298 L152.959184,269.807018 L152.959184,268.578947 L154.183673,267.350877 L154.795918,266.122807 L157.244898,264.894737 L159.081633,263.052632 L156.020408,259.982456 L155.408163,256.298246 L153.571429,252.614035 L153.571429,248.315789 L154.795918,247.701754 L154.795918,245.245614 L154.183673,242.175439 L154.795918,240.333333 L154.183673,237.263158 L154.795918,236.035088 L154.183673,234.192982 L154.795918,231.736842 L157.244898,230.508772 L159.081633,231.736842 L160.306122,231.122807 L160.918367,233.578947 L162.755102,233.578947 L164.591837,229.894737 L166.428571,217 C166.428571,217 183.181215,219.41421 191.557537,220.314297 Z"/>
    <path d="M212.099323,423.423729 L197.471783,347.762712 L196.252822,348.372881 L193.814898,347.152542 L191.986456,345.932203 L189.548533,345.932203 L187.110609,346.542373 L185.891648,347.152542 L183.453725,347.152542 L182.234763,346.542373 L179.187359,346.542373 L176.749436,345.932203 L174.920993,345.322034 L173.092551,344.101695 L170.045147,345.322034 L169.435666,344.711864 L166.997743,345.932203 L165.1693,345.322034 L165.1693,344.101695 L163.340858,343.491525 L164.559819,342.271186 L161.512415,341.661017 L159.074492,342.271186 L157.24605,342.271186 L157.85553,341.050847 L156.636569,339.830508 L154.808126,342.881356 L153.589165,341.050847 L155.417607,339.830508 L152.370203,338 L150.541761,339.830508 L148.103837,341.661017 L144.446953,341.661017 L142.61851,342.881356 L140.790068,344.711864 L138.352144,345.932203 L137.133183,345.322034 L134.085779,348.983051 L132.257336,351.423729 L131.647856,353.254237 L129.819413,355.084746 L126.162528,355.084746 L123.115124,354.474576 L122.505643,357.525424 L121.286682,358.745763 L123.724605,361.79661 L127.38149,365.457627 L128.600451,367.898305 L127.990971,369.728814 L131.647856,371.559322 L134.69526,371.559322 L135.30474,372.169492 L134.085779,373.389831 L134.085779,375.220339 L135.30474,375.220339 L137.133183,375.220339 L138.961625,375.830508 L138.961625,377.661017 L137.133183,377.661017 L135.914221,375.830508 L133.476298,376.440678 L135.30474,377.050847 L135.914221,378.881356 L134.69526,378.271186 L133.476298,380.101695 L131.038375,379.491525 L129.819413,378.881356 L126.772009,378.271186 L126.162528,377.050847 L127.990971,374.610169 L125.553047,374 L123.724605,375.220339 L121.896163,375.220339 L120.677201,375.830508 L121.286682,377.050847 L118.848758,376.440678 L115.801354,378.271186 L112.14447,378.881356 L113.363431,381.322034 L117.629797,383.762712 L115.801354,384.983051 L116.410835,386.813559 L115.801354,388.644068 L118.239278,390.474576 L121.286682,391.084746 L123.115124,390.474576 L126.162528,391.084746 L126.772009,392.305085 L128.600451,392.915254 L129.819413,391.084746 L132.866817,389.864407 L134.69526,389.254237 L135.914221,391.084746 L134.69526,392.915254 L132.866817,392.915254 L134.085779,394.745763 L134.69526,398.40678 L133.476298,400.847458 L129.819413,401.457627 L128.600451,399.627119 L127.990971,401.457627 L125.553047,403.288136 L124.334086,403.288136 L122.505643,401.457627 L120.677201,402.677966 L118.848758,404.508475 L118.848758,406.949153 L117.020316,407.559322 L114.582393,410.610169 L114.582393,411.830508 L112.75395,412.440678 L113.972912,413.661017 L112.75395,414.271186 L113.363431,416.101695 L113.972912,418.542373 L115.191874,417.932203 L116.410835,419.762712 L121.896163,421.59322 L121.896163,422.813559 L120.677201,423.423729 L119.458239,422.20339 L118.239278,422.20339 L116.410835,420.983051 L113.972912,422.813559 L116.410835,425.864407 L118.239278,428.915254 L120.06772,430.135593 L123.115124,428.915254 L124.943567,427.694915 L125.553047,425.254237 L125.553047,427.694915 L126.772009,431.966102 L127.38149,433.79661 L126.162528,435.016949 L126.772009,437.457627 L125.553047,440.508475 L127.38149,441.118644 L132.866817,437.457627 L133.476298,439.288136 L135.30474,439.898305 L138.352144,443.559322 L139.571106,442.949153 L138.961625,439.898305 L140.790068,438.067797 L140.790068,441.118644 L141.399549,442.338983 L146.884876,439.898305 L148.103837,438.677966 L145.665914,442.338983 L143.837472,445.389831 L145.665914,446 L143.837472,446.610169 L143.837472,450.271186 L143.837472,452.101695 L142.61851,451.491525 L139.571106,453.932203 L138.961625,455.152542 L138.352144,457.59322 L137.133183,456.983051 L133.476298,458.813559 L129.819413,461.254237 L129.209932,463.084746 L130.428894,464.915254 L128.600451,464.305085 L126.162528,462.474576 L122.505643,463.694915 L119.458239,466.745763 L117.020316,467.966102 L115.801354,469.186441 L113.363431,468.576271 L111.534989,469.79661 L109.706546,469.186441 L108.487585,471.016949 L107.878104,471.627119 L108.487585,473.457627 L110.316027,472.847458 L111.534989,472.237288 L113.972912,472.847458 L116.410835,470.40678 L118.239278,470.40678 L119.458239,469.186441 L121.286682,469.186441 L123.724605,466.745763 L124.943567,465.525424 L126.162528,466.135593 L124.943567,467.966102 L127.38149,466.745763 L127.38149,468.576271 L128.600451,469.79661 L129.209932,468.576271 L128.600451,466.745763 L131.038375,465.525424 L134.085779,464.305085 L137.133183,463.694915 L138.961625,461.254237 L140.180587,459.423729 L143.837472,458.20339 L145.665914,456.372881 L148.103837,455.762712 L148.713318,453.322034 L151.151242,450.881356 L154.198646,449.661017 L155.417607,447.220339 L158.465011,446.610169 L159.074492,443.559322 L162.121896,441.728814 L162.731377,440.508475 L160.293454,438.677966 L158.465011,439.288136 L159.683973,436.237288 L161.512415,433.79661 L163.340858,433.79661 L165.1693,430.745763 L163.950339,428.915254 L166.388262,427.694915 L168.216704,424.644068 L169.435666,422.20339 L170.654628,422.20339 L172.48307,420.372881 L174.920993,420.372881 L177.968397,422.813559 L174.920993,423.423729 L173.702032,422.20339 L171.264108,425.254237 L170.045147,425.254237 L170.654628,427.694915 L168.826185,430.745763 L168.826185,433.79661 L170.045147,434.40678 L171.873589,433.186441 L168.216704,436.237288 L168.216704,438.067797 L171.264108,437.457627 L173.092551,436.237288 L174.920993,433.79661 L179.187359,430.135593 L182.234763,430.745763 L183.453725,427.084746 L181.625282,424.644068 L183.453725,420.983051 L184.063205,422.813559 L187.110609,422.20339 L190.158014,422.813559 L193.205418,424.644068 L190.158014,426.474576 L195.03386,426.474576 L196.862302,424.033898 L196.862302,426.474576 L200.519187,427.694915 L203.566591,427.084746 L207.223476,426.474576 L210.27088,426.474576 L212.099323,427.084746 L215.146727,428.305085 L217.58465,425.864407 L219.413093,425.254237 L219.413093,427.694915 L218.194131,428.915254 L223.679458,430.745763 L228.555305,433.186441 L231.602709,435.016949 L233.431151,435.627119 L235.869074,434.40678 L232.82167,431.355932 L235.259594,430.135593 L237.088036,433.186441 L238.916479,433.79661 L240.13544,434.40678 L235.259594,426.474576 L241.354402,432.576271 L242.573363,435.016949 L241.354402,435.016949 L239.525959,435.016949 L235.869074,435.627119 L235.259594,438.677966 L237.697517,441.118644 L240.744921,444.169492 L244.401806,447.830508 L247.44921,449.661017 L245.011287,444.169492 L241.963883,440.508475 L245.011287,442.949153 L247.44921,439.288136 L245.011287,435.627119 L248.058691,436.847458 L249.887133,439.898305 L251.715576,441.728814 L248.668172,442.338983 L246.839729,444.169492 L249.277652,447.830508 L250.496614,449.661017 L251.715576,447.220339 L254.153499,444.169492 L254.76298,447.830508 L253.544018,452.101695 L256.591422,456.372881 L259.029345,458.813559 L260.248307,456.372881 L262.68623,456.983051 L260.857788,453.932203 L255.981941,449.050847 L255.981941,446.610169 L259.029345,449.661017 L262.076749,452.101695 L265.124153,455.152542 L265.124153,450.881356 L268.171558,455.152542 L270,450.271186 L268.171558,446.610169 L267.562077,444.169492 L265.124153,444.169492 L259.638826,442.338983 L257.200903,442.338983 L254.76298,438.677966 L246.839729,431.355932 L244.401806,428.915254 L241.354402,427.694915 L238.306998,425.254237 L235.869074,422.20339 L232.21219,424.644068 L232.21219,428.305085 L229.164786,430.745763 L227.945824,428.305085 L221.851016,425.254237 L220.022573,424.033898 L220.022573,420.983051 L216.975169,422.20339 L216.365688,423.423729 L213.927765,423.423729 L212.099323,423.423729 Z M3.04740406,450.881356 L1.82844244,449.050847 L0,448.440678 L0,449.661017 L1.21896163,450.271186 L3.04740406,450.881356 Z M22.5507901,468.576271 L22.5507901,469.79661 L23.7697517,469.79661 L22.5507901,468.576271 Z M18.8939052,465.525424 L17.6749436,466.745763 L16.4559819,467.966102 L19.503386,467.355932 L18.8939052,465.525424 Z M23.1602709,471.627119 L24.9887133,474.067797 L25.5981941,475.288136 L24.3792325,474.677966 L22.5507901,472.237288 L23.1602709,471.627119 Z M28.6455982,471.016949 L27.4266366,471.016949 L27.4266366,472.237288 L29.255079,471.627119 L28.6455982,471.016949 Z M40.2257336,477.118644 L39.006772,475.898305 L38.3972912,475.898305 L39.006772,477.728814 L40.2257336,477.118644 Z M49.3679458,479.559322 L46.9300226,479.559322 L46.3205418,477.728814 L44.4920993,478.949153 L43.2731377,480.169492 L46.9300226,480.169492 L49.3679458,479.559322 Z M63.3860045,482 L61.5575621,481.389831 L59.7291196,480.779661 L60.3386005,478.949153 L57.9006772,478.949153 L56.0722348,480.169492 L51.8058691,479.559322 L53.6343115,480.779661 L57.2911964,480.779661 L60.9480813,482 L63.3860045,482 Z M76.1851016,480.779661 L75.5756208,482 L77.4040632,482 L76.1851016,480.779661 Z M81.6704289,480.169492 L80.4514673,480.169492 L79.8419865,480.169492 L81.0609481,481.389831 L81.6704289,480.169492 Z M90.8126411,477.118644 L88.9841986,477.728814 L88.9841986,478.949153 L87.1557562,478.949153 L85.9367946,480.779661 L84.1083521,482 L87.765237,480.779661 L88.9841986,479.559322 L92.0316027,478.949153 L90.8126411,477.118644 Z M98.1264108,474.677966 L95.6884876,474.677966 L95.6884876,476.508475 L95.0790068,478.338983 L92.6410835,478.949153 L93.8600451,480.169492 L96.9074492,479.559322 L98.1264108,477.728814 L100.564334,477.118644 L99.3453725,475.898305 L98.1264108,474.677966 Z M103.611738,473.457627 L102.392777,474.677966 L101.173815,474.067797 L101.783296,475.898305 L103.611738,475.288136 L106.049661,476.508475 L107.268623,475.288136 L104.221219,474.677966 L103.611738,473.457627 Z M166.388262,442.338983 L165.778781,444.779661 L168.826185,444.779661 L169.435666,446 L166.388262,446.610169 L165.1693,447.830508 L166.997743,447.830508 L166.388262,450.881356 L167.607223,450.881356 L166.388262,452.711864 L163.340858,451.491525 L165.778781,453.322034 L163.950339,453.322034 L163.950339,454.542373 L162.121896,456.372881 L160.902935,456.372881 L159.074492,458.20339 L159.683973,460.033898 L156.636569,460.033898 L159.074492,456.983051 L157.24605,456.372881 L156.636569,453.932203 L156.027088,452.101695 L158.465011,450.881356 L160.293454,452.101695 L159.074492,449.050847 L161.512415,449.050847 L162.121896,447.220339 L164.559819,445.389831 L166.388262,442.338983 Z"/>
    <polygon stroke-width="3" points="523 254.23 523.607 255.439 524.82 256.043 524.82 308.014 528.461 332.187 530.888 332.187 532.101 333.396 532.708 333.396 532.708 329.77 533.315 326.144 535.742 327.957 535.135 330.374 536.348 331.583 538.775 334 540.596 333.396 539.989 332.187 541.202 332.187 543.022 329.77 542.416 328.561 542.416 326.144 540.596 325.54 538.775 323.727 539.382 320.705 577 316.475 576.393 314.662 574.573 312.849 575.18 306.806 572.753 303.784 572.753 300.763 573.966 299.554 573.966 296.532 575.787 294.719 573.966 294.115 573.966 291.698 572.146 289.281 569.719 283.842 558.798 250"/>
  </g>
</svg>
