<?xml version="1.0" encoding="UTF-8" standalone="no"?>
<svg width="320px" height="155px" viewBox="0 0 320 155" version="1.1" xmlns="http://www.w3.org/2000/svg" xmlns:xlink="http://www.w3.org/1999/xlink">
    <!-- Generator: Sketch 3.6.1 (26313) - http://www.bohemiancoding.com/sketch -->
    <title>Mobile Warning</title>
    <desc>Created with Sketch.</desc>
    <defs></defs>
    <g id="Page-1" stroke="none" stroke-width="1" fill="none" fill-rule="evenodd">
        <g id="Mobile-Warning">
            <g id="Hero" transform="translate(71.000000, -15.000000)">
                <g id="Group" transform="translate(80.739684, 0.000000)" stroke="#2E3D49" stroke-width="3">
                    <ellipse id="Oval-1" fill="#F95C3C" cx="54.5864377" cy="54.5104919" rx="54.5864377" ry="54.5104919"></ellipse>
                    <path d="M52.8918163,0 C24.3305497,14.1458194 31.7973132,92.7081613 65.7515568,107.586993" id="Path-395"></path>
                    <path d="M89.1709312,12.3990264 C42.6909419,15.5835788 60.1699992,76.5385494 94.7960063,90.3489544" id="Path-396"></path>
                    <path d="M3.38146074,30.7952937 C19.2238811,18.7378623 23.2629632,68.6767936 15.6198993,90.6900218" id="Path-397" transform="translate(11.373747, 59.816823) rotate(-356.000000) translate(-11.373747, -59.816823) "></path>
                    <path d="M0.865178432,62.6744405 C19.9821309,37.2536098 62.223029,33.324739 109.299303,51.7989115" id="Path-398"></path>
                </g>
                <ellipse id="Oval-4-Copy" fill="#DBE2E8" opacity="0.341009795" cx="136.002763" cy="151.231424" rx="51.0027633" ry="2.23142364"></ellipse>
                <ellipse id="Oval-4-Copy-2" fill="#DBE2E8" opacity="0.341009795" cx="20" cy="151.231424" rx="20" ry="2.23142364"></ellipse>
                <path d="M489.541276,78.8448572 C446.089313,90.0752773 432.732909,128.150329 426.564818,141.973477 C421.317609,90.0508813 342.039225,-1.8805566 194.220833,0.482131341" id="Path-407-Copy" stroke="#91DAEE" stroke-dasharray="3" transform="translate(341.881055, 71.205470) scale(-1, 1) translate(-341.881055, -71.205470) "></path>
                <g id="Spark" transform="translate(227.524192, 41.524192) rotate(-28.000000) translate(-227.524192, -41.524192) translate(217.524192, 31.524192)" stroke="#FFAE0C" stroke-width="3" stroke-linecap="round" stroke-linejoin="round">
                    <path d="M9.24425085,-2.29771757e-12 L9.24425085,5.31291344" id="Line"></path>
                    <path d="M9.24425085,13.8135749 L9.24425085,19.1264884" id="Line-Copy-3"></path>
                    <path d="M19.1260362,9.24446938 L13.8132484,9.24446938" id="Line-Copy"></path>
                    <path d="M5.31278785,9.24446938 L-6.97175651e-12,9.24446938" id="Line-Copy-2"></path>
                </g>
                <circle id="Oval-5-Copy-4" stroke="#2E3D49" stroke-width="2" fill="#FFFFFF" cx="35.5" cy="38.5" r="2.5"></circle>
            </g>
            <g id="Group-2" transform="translate(-153.000000, 54.000000)">
                <g id="Group-Copy-2" transform="translate(244.905460, 35.203036) rotate(-86.000000) translate(-244.905460, -35.203036) translate(221.905460, 12.203036)" stroke="#2E3D49" stroke-width="2">
                    <ellipse id="Oval-1" fill="#02CCBA" cx="22.6869266" cy="22.5644176" rx="22.6869266" ry="22.5644176"></ellipse>
                    <path d="M21.982617,-7.67386155e-13 C10.1121344,5.85560989 13.2154312,38.3762023 27.3273144,44.53524" id="Path-395"></path>
                    <path d="M37.060751,5.13253138 C17.7429835,6.45076513 25.007537,31.682851 39.3986149,37.3996173" id="Path-396"></path>
                    <path d="M1.40538484,12.7475986 C7.98972782,7.75646917 9.66842976,28.4285061 6.49185998,37.540801" id="Path-397" transform="translate(4.727097, 24.760954) rotate(-356.000000) translate(-4.727097, -24.760954) "></path>
                    <path d="M0.359580886,25.9438541 C8.30486758,15.4209947 25.8608063,13.7946531 45.4263983,21.4419689" id="Path-398"></path>
                </g>
                <path d="M211.614392,40.0552045 C192.372701,44.6938737 176.610633,60.7150005 176.610633,73.8916914 C169.211602,64.9249939 145.154044,2.12479356e-09 0,-7.04345258e-16" id="Path-407" stroke="#91DAEE" stroke-dasharray="3"></path>
                <g id="Spark" transform="translate(185.715581, 7.725195) rotate(15.000000) translate(-185.715581, -7.725195) translate(180.715581, 2.725195)" stroke="#02B3E4" stroke-width="2" stroke-linecap="round" stroke-linejoin="round">
                    <path d="M4.75658433,7.06101844e-14 L4.75658433,2.63985545" id="Line"></path>
                    <path d="M4.75658433,6.86362418 L4.75658433,9.50347963" id="Line-Copy-3"></path>
                    <path d="M9.51316865,4.75173981 L6.8706218,4.75173981" id="Line-Copy"></path>
                    <path d="M2.64254685,4.75173981 L1.26787469e-13,4.75173981" id="Line-Copy-2"></path>
                </g>
            </g>
        </g>
    </g>
</svg>