<svg xmlns="http://www.w3.org/2000/svg" width="203" height="25" viewBox="0 0 203 25">
  <g fill="#FFFFFF" fill-rule="evenodd">
    <path d="M141.2 5.2C140.3 5.6 139.4 5.8 138.5 6 139.5 5.4 140.2 4.5 140.6 3.4 139.7 3.9 138.7 4.3 137.6 4.6 136.6 3.6 135.4 3 134 3 131.4 3 129.2 5.1 129.2 7.8 129.2 8.2 129.2 8.5 129.3 8.9 125.4 8.7 121.8 6.8 119.5 3.9 119.1 4.6 118.9 5.4 118.9 6.3 118.9 8 119.7 9.4 121 10.3 120.2 10.3 119.5 10.1 118.8 9.7L118.8 9.8C118.8 12.1 120.4 14 122.6 14.5 122.2 14.6 121.8 14.7 121.3 14.7 121 14.7 120.7 14.7 120.4 14.6 121 16.5 122.8 17.9 124.8 17.9 123.2 19.2 121.1 19.9 118.9 19.9 118.5 19.9 118.1 19.9 117.8 19.8 119.9 21.2 122.4 21.9 125.1 21.9 133.8 21.9 138.6 14.6 138.6 8.3L138.6 7.7C139.7 7 140.5 6.2 141.2 5.2M2.5 4.9L2.5 8.4 0 8.4 0 12.7 2.5 12.7 2.5 24.5 7.7 24.5 7.7 12.7 11.2 12.7C11.2 12.7 11.5 10.6 11.7 8.4L7.7 8.4 7.7 5.5C7.7 5.1 8.3 4.5 8.8 4.5L11.6 4.5 11.6 0 7.8 0C2.4 0 2.5 4.3 2.5 4.9M59.7 11.1L59.7 14.5 64.4 14.5C64 16.5 62.3 18 59.7 18 56.8 18 54.5 15.6 54.5 12.7 54.5 9.8 56.8 7.4 59.7 7.4 61 7.4 62.1 7.8 63.1 8.7L63.1 8.7 65.5 6.2C64 4.9 62 4 59.7 4 54.9 4 51 7.9 51 12.7 51 17.5 54.9 21.4 59.7 21.4 64.7 21.4 68 17.9 68 12.9 68 12.3 67.9 11.7 67.8 11.1L59.7 11.1 59.7 11.1zM78.1 11.6L75.4 11.6 75.4 8.9 73.2 8.9 73.2 11.6 70.5 11.6 70.5 13.8 73.2 13.8 73.2 16.5 75.4 16.5 75.4 13.8 78.1 13.8 78.1 11.6zM202.5 21.9L197.7 21.9 197.7 14.9C197.7 13.1 197 11.8 195.3 11.8 194 11.8 193.4 12.6 193 13.5 192.9 13.8 192.9 14.2 192.9 14.6L192.9 21.9 188.2 21.9C188.2 21.9 188.3 9.5 188.2 8.4L192.9 8.4 192.9 10.5C193.2 9.6 194.7 8.3 197.1 8.3 200.1 8.3 202.4 10.2 202.4 14.4L202.4 21.9 202.5 21.9zM183.5 6.7L183.5 6.7C182 6.7 181 5.7 181 4.4 181 3.1 182 2.1 183.6 2.1 185.1 2.1 186.1 3.1 186.1 4.4 186.1 5.6 185.1 6.7 183.5 6.7L183.5 6.7zM181.5 21.9L185.7 21.9 185.7 8.4 181.5 8.4 181.5 21.9z"/>
  </g>
</svg>
