<svg xmlns="http://www.w3.org/2000/svg" width="21" height="21" viewBox="0 0 21 21">
  <path fill="#FFFFFF" fill-rule="evenodd" d="M0.32,10.7083868 C0.32,15.2383822 3.185036,19.0810419 7.158761,20.4368304 C7.659083,20.5312447 7.841409,20.2146422 7.841409,19.9427292 C7.841409,19.6997699 7.832815,19.0546059 7.827904,18.1992129 C5.046357,18.8185703 4.459476,16.8245415 4.459476,16.8245415 C4.004582,15.6399574 3.348945,15.3246139 3.348945,15.3246139 C2.440998,14.6888913 3.417701,14.7014799 3.417701,14.7014799 C4.421415,14.7738641 4.949362,15.75829 4.949362,15.75829 C5.841348,17.324937 7.290134,16.872378 7.859826,16.6099064 C7.950682,15.9477479 8.209131,15.4958184 8.494591,15.239641 C6.274142,14.980946 3.939509,14.1010053 3.939509,10.1721139 C3.939509,9.0529904 4.329331,8.1371722 4.969007,7.4208829 C4.865873,7.1615584 4.522707,6.1185957 5.06723,4.7074175 C5.06723,4.7074175 5.906421,4.4317279 7.816854,5.7585628 C8.6143,5.5307097 9.470066,5.4174126 10.320307,5.4130066 C11.169934,5.4174126 12.025086,5.5307097 12.82376,5.7585628 C14.732965,4.4317279 15.570929,4.7074175 15.570929,4.7074175 C16.116679,6.1185957 15.773513,7.1615584 15.670993,7.4208829 C16.311897,8.1371722 16.698649,9.0529904 16.698649,10.1721139 C16.698649,14.1110761 14.360333,14.9777989 12.133131,15.2314585 C12.491644,15.5480609 12.811482,16.1737126 12.811482,17.1304436 C12.811482,18.500709 12.799204,19.6066145 12.799204,19.9427292 C12.799204,20.2171599 12.979689,20.5362801 13.486764,20.436201 C17.45742,19.0772653 20.32,15.2371233 20.32,10.7083868 C20.32,5.0454205 15.842269,0.455 10.319079,0.455 C4.797731,0.455 0.32,5.0454205 0.32,10.7083868 Z"/>
</svg>
