<svg xmlns="http://www.w3.org/2000/svg" width="67" height="40" viewBox="0 0 67 40">
  <g fill="#15C26B" fill-rule="evenodd" transform="translate(8 6)">
    <path d="M28.7631583 17.3684214C28.3684215 17.3684214 27.9736846 17.1315793 27.7368425 16.8157898L19.052632 2.60526347C18.8157899 2.21052663 18.8157899 1.81578979 19.052632 1.42105295 19.2894741 1.02631611 19.6842109.789474 20.0789478.789474L37.4473688.789474C37.8421057.789474 38.2368425 1.02631611 38.4736846 1.42105295 38.7105267 1.81578979 38.7105267 2.289474 38.4736846 2.60526347L29.7894741 16.8157898C29.552632 17.1315793 29.1578951 17.3684214 28.7631583 17.3684214L28.7631583 17.3684214 28.7631583 17.3684214 28.7631583 17.3684214zM22.2105267 3.15789505L28.7631583 13.8947372 35.3157899 3.15789505 22.2105267 3.15789505 22.2105267 3.15789505 22.2105267 3.15789505 22.2105267 3.15789505zM25.6052636 28.4210529L1.92105304 28.4210529C1.5263162 28.4210529 1.13157935 28.1842108.894737249 27.789474.657895143 27.3947372.657895143 27.0000003.894737249 26.6052635L12.7368425 6.07894768C12.9736846 5.68421084 13.3684215 5.44736874 13.7631583 5.44736874 14.1578951 5.44736874 14.552632 5.68421084 14.7894741 6.07894768L26.6315794 26.6052635C26.8684215 27.0000003 26.8684215 27.3947372 26.6315794 27.789474 26.3947372 28.1842108 26.0000004 28.4210529 25.6052636 28.4210529L25.6052636 28.4210529 25.6052636 28.4210529 25.6052636 28.4210529zM3.97368462 26.0526319L23.552632 26.0526319 13.7631583 9.07894768 3.97368462 26.0526319 3.97368462 26.0526319 3.97368462 26.0526319 3.97368462 26.0526319zM50.0789478 28.4210529L32.7105267 28.4210529C32.3157899 28.4210529 31.921053 28.1842108 31.6842109 27.789474 31.4473688 27.3947372 31.4473688 26.9210529 31.6842109 26.6052635L40.3684215 12.3947372C40.6052636 12.0789477 41.0000004 11.8421056 41.3947372 11.8421056 41.7894741 11.8421056 42.1842109 12.0789477 42.421053 12.3947372L51.1052636 26.6052635C51.3421057 27.0000003 51.3421057 27.3947372 51.1052636 27.789474 50.8684215 28.1842108 50.4736846 28.4210529 50.0789478 28.4210529L50.0789478 28.4210529 50.0789478 28.4210529 50.0789478 28.4210529zM34.8421057 26.0526319L48.0263162 26.0526319 41.3947372 15.3157898 34.8421057 26.0526319 34.8421057 26.0526319 34.8421057 26.0526319 34.8421057 26.0526319z"/>
  </g>
</svg>
