<?xml version="1.0" encoding="UTF-8" standalone="no"?>
<svg
   xmlns:dc="http://purl.org/dc/elements/1.1/"
   xmlns:cc="http://creativecommons.org/ns#"
   xmlns:rdf="http://www.w3.org/1999/02/22-rdf-syntax-ns#"
   xmlns:svg="http://www.w3.org/2000/svg"
   xmlns="http://www.w3.org/2000/svg"
   xmlns:sodipodi="http://sodipodi.sourceforge.net/DTD/sodipodi-0.dtd"
   xmlns:inkscape="http://www.inkscape.org/namespaces/inkscape"
   enable-background="new 0 0 512 512"
   id="Layer_1"
   version="1.1"
   viewBox="0 0 200 200"
   xml:space="preserve"
   inkscape:version="0.91 r13725"
   sodipodi:docname="icon_code.svg"
   width="200"
   height="200"><metadata
     id="metadata23"><rdf:RDF><cc:Work
         rdf:about=""><dc:format>image/svg+xml</dc:format><dc:type
           rdf:resource="http://purl.org/dc/dcmitype/StillImage" /><dc:title /></cc:Work></rdf:RDF></metadata><defs
     id="defs21" /><sodipodi:namedview
     pagecolor="#ffffff"
     bordercolor="#666666"
     borderopacity="1"
     objecttolerance="10"
     gridtolerance="10"
     guidetolerance="10"
     inkscape:pageopacity="0"
     inkscape:pageshadow="2"
     inkscape:window-width="987"
     inkscape:window-height="747"
     id="namedview19"
     showgrid="false"
     inkscape:zoom="1.3037281"
     inkscape:cx="209.12265"
     inkscape:cy="125.48048"
     inkscape:window-x="1791"
     inkscape:window-y="347"
     inkscape:window-maximized="0"
     inkscape:current-layer="Layer_1" /><g
     id="g3"
     transform="matrix(0.29293805,0,0,0.26301673,25.007859,32.668237)"
     style="fill:#ffffff"><g
       id="g5"
       style="fill:#ffffff"><path
         d="m 361.9,401.4 c -2.8,0 -5.5,-1.1 -7.6,-3.2 -4,-4.2 -3.9,-10.9 0.3,-14.9 L 494.2,248.4 c 4.2,-4 10.9,-3.9 14.9,0.3 4,4.2 3.9,10.9 -0.3,14.9 L 369.2,398.5 c -2.1,1.9 -4.7,2.9 -7.3,2.9 z"
         id="path7"
         inkscape:connector-curvature="0"
         style="fill:#ffffff" /><path
         d="m 501.5,266.5 c -2.6,0 -5.3,-1 -7.3,-3 L 354.5,128.7 c -4.2,-4 -4.3,-10.7 -0.3,-14.9 4,-4.2 10.7,-4.3 14.9,-0.3 l 139.6,134.9 c 4.2,4 4.3,10.7 0.3,14.9 -2,2.2 -4.8,3.2 -7.5,3.2 z"
         id="path9"
         inkscape:connector-curvature="0"
         style="fill:#ffffff" /></g><g
       id="g11"
       style="fill:#ffffff"><path
         d="m 150.1,401.4 c -2.6,0 -5.3,-1 -7.3,-3 L 3.2,263.6 c -4.2,-4 -4.3,-10.7 -0.3,-14.9 4,-4.2 10.7,-4.3 14.9,-0.3 l 139.6,134.9 c 4.2,4 4.3,10.7 0.3,14.9 -2.1,2.2 -4.8,3.2 -7.6,3.2 z"
         id="path13"
         inkscape:connector-curvature="0"
         style="fill:#ffffff" /><path
         d="m 10.5,266.5 c -2.8,0 -5.5,-1.1 -7.6,-3.2 -4,-4.2 -3.9,-10.9 0.3,-14.9 L 142.8,113.5 c 4.2,-4 10.9,-3.9 14.9,0.3 4,4.2 3.9,10.9 -0.3,14.9 L 17.9,263.6 c -2.1,2 -4.7,2.9 -7.4,2.9 z"
         id="path15"
         inkscape:connector-curvature="0"
         style="fill:#ffffff" /></g><path
       d="m 205.8,446.1 c -0.9,0 -1.9,-0.1 -2.8,-0.4 -5.6,-1.6 -8.9,-7.4 -7.3,-13 L 296,73.6 c 1.6,-5.6 7.4,-8.9 13,-7.3 5.6,1.6 8.9,7.4 7.3,13 L 216,438.4 c -1.3,4.7 -5.6,7.7 -10.2,7.7 z"
       id="path17"
       inkscape:connector-curvature="0"
       style="fill:#ffffff" /></g></svg>