<svg xmlns="http://www.w3.org/2000/svg" width="20" height="20" viewBox="0 0 20 20">
  <g fill="#FFFFFF" fill-rule="evenodd">
    <polygon points="7.561 8.79 8.701 12.193 12.237 11.009 11.097 7.605"/>
    <polygon points="7.561 8.79 8.701 12.193 12.237 11.009 11.097 7.605"/>
    <path d="M15.5293072,11.5945345 L14.2465307,12.0240794 L14.6911167,13.3515045 C14.8711361,13.888871 14.5813952,14.4705695 14.0438703,14.6505888 C13.927024,14.6896959 13.807961,14.7066371 13.6915897,14.7036288 C13.2723362,14.6927042 12.8856983,14.4238626 12.7449443,14.0033424 L12.3003582,12.6759173 L9.65500774,13.5619229 L10.0995938,14.8891897 C10.2796132,15.4267145 9.98987225,16.0082546 9.45234742,16.188274 C9.33550108,16.2273811 9.21643814,16.2443223 9.10006678,16.241314 C8.68097157,16.2303894 8.29417534,15.9615478 8.15342142,15.5410276 L7.70883534,14.2136025 L6.4259005,14.6433057 C6.30889583,14.6824128 6.18999122,14.699354 6.07346154,14.6963457 C5.65436633,14.6855794 5.26772843,14.4165795 5.12681618,13.9960593 C4.94679681,13.4586928 5.23669607,12.8769943 5.77406258,12.696975 L7.05699741,12.2674301 L6.20408245,9.72119315 L4.92130594,10.150738 C4.8044596,10.1898451 4.68539666,10.2067863 4.56886698,10.203778 C4.14993009,10.1930117 3.76313387,9.9240118 3.62237995,9.50349163 C3.44236058,8.96612512 3.73210151,8.38442667 4.26962635,8.2044073 L5.55224452,7.77486242 L5.10765844,6.44759564 C4.92763908,5.9100708 5.21738001,5.32853068 5.75490485,5.14851131 C6.29242968,4.96865028 6.87396981,5.25839121 7.05383084,5.79575771 L7.49841693,7.12302449 L10.1437674,6.23717723 L9.69918136,4.90975212 C9.51916199,4.37238561 9.80906125,3.79068716 10.3464278,3.61066779 C10.8837943,3.43064843 11.4654927,3.72054769 11.6455121,4.2579142 L12.0900982,5.5853393 L13.3728747,5.15563609 C13.9105578,4.97577505 14.4919396,5.26551598 14.671959,5.80288249 C14.8519784,6.34040733 14.5620791,6.92194746 14.0247126,7.10196682 L12.7419361,7.5315117 L13.5946927,10.077907 L14.8776276,9.64820377 C15.4151524,9.46850106 15.9966925,9.75808366 16.1765536,10.2954502 C16.3565729,10.832975 16.066832,11.4145151 15.5293072,11.5945345 M18.9702578,7.17812277 C16.9292467,0.375069096 13.9811723,-1.2123312 7.17811862,0.828679894 C0.374906619,2.86969099 -1.21233535,5.81776536 0.828675746,12.620819 C2.86968684,19.4238727 5.81776121,21.011273 12.6208149,18.9702619 C19.4238686,16.9292508 21.0112689,13.9811764 18.9702578,7.17812277"/>
  </g>
</svg>
