<?xml version="1.0" encoding="UTF-8"?>
<svg width="609px" height="268px" viewBox="0 0 609 268" version="1.1" xmlns="http://www.w3.org/2000/svg" xmlns:xlink="http://www.w3.org/1999/xlink">
    <!-- Generator: Sketch 41.2 (35397) - http://www.bohemiancoding.com/sketch -->
    <title>icon-ndplus</title>
    <desc>Created with Sketch.</desc>
    <defs></defs>
    <g id="/get-hired" stroke="none" stroke-width="1" fill="none" fill-rule="evenodd">
        <g id="Get-Hired-2" transform="translate(-27.000000, -1193.000000)" fill="#FFFFFF">
            <g id="nd-plus" transform="translate(0.000000, 1128.000000)">
                <g id="icon-ndplus" transform="translate(27.000000, 65.000000)">
                    <path d="M283.363256,228.840371 C280.266607,233.479206 271.220011,238.222222 265.274559,238.222222 L34.752743,238.222222 L167.636744,39.1596287 C170.733393,34.5207941 179.779989,29.7777778 185.725441,29.7777778 L416.247257,29.7777778 L283.363256,228.840371 Z M5.22976411,228.840371 C-7.42297244,247.794397 4.10387797,268 26.7004763,268 L265.274559,268 C281.068089,268 299.437005,258.369409 308.107285,245.381174 L445.770236,39.1596288 C458.422972,20.2056037 446.896122,0 424.299524,0 L185.725441,0 C169.931911,0 151.562995,9.63059087 142.892715,22.6188258 L5.22976411,228.840371 Z" id="left"></path>
                    <path d="M574.271107,238.222222 L343.736083,238.222222 C337.79029,238.222222 328.743175,233.479206 325.646348,228.840371 L192.754734,29.7777778 L423.289758,29.7777778 C429.23138,29.7777778 438.294068,34.5378732 441.410357,39.2058618 L461.71871,69.6263926 L475.680702,90.5405068 L500.426148,73.9997031 L486.464156,53.0855893 L466.155803,22.6650583 C457.470485,9.65504364 439.088365,0 423.289758,0 L184.702006,0 C162.104114,0 150.576603,20.2056037 163.230063,39.1596281 L300.900902,245.381174 C309.57168,258.369409 327.941648,268 343.736083,268 L582.323835,268 C604.944062,268 616.409436,247.734774 603.762255,228.790157 L570.790779,179.401131 L546.045333,195.941934 C568.06115,228.920129 571.229964,233.666798 576.237029,241.16704 L574.271107,238.222222 Z" id="left-copy"></path>
                    <path d="M530.363636,120.181818 L530.363636,96.3796406 C530.363636,88.4101606 523.708959,82 515.5,82 C507.233809,82 500.636364,88.4379844 500.636364,96.3796406 L500.636364,120.181818 L475.927436,120.181818 C467.654357,120.181818 461,126.592287 461,134.5 C461,142.462845 467.683241,148.818182 475.927436,148.818182 L500.636364,148.818182 L500.636364,172.62036 C500.636364,180.58984 507.291041,187 515.5,187 C523.766191,187 530.363636,180.562016 530.363636,172.62036 L530.363636,148.818182 L555.072564,148.818182 C563.345643,148.818182 570,142.407713 570,134.5 C570,126.537155 563.316759,120.181818 555.072564,120.181818 L530.363636,120.181818 L530.363636,120.181818 Z" id="plus"></path>
                </g>
            </g>
        </g>
    </g>
</svg>