<svg xmlns="http://www.w3.org/2000/svg" width="36" height="27" viewBox="0 0 36 27">
  <g fill="#FFF" fill-rule="evenodd" stroke="#2E3D49" stroke-width="2" stroke-linecap="round" stroke-linejoin="round">
    <path d="M19.825 14.697c-4.32 2.808-4.846 9.092-4.846 9.092h19.19s-.53-6.29-4.85-9.098c-1.247.792-2.916 1.277-4.75 1.277-1.835 0-3.504-.485-4.75-1.277zm8.446-3.86c1.03-1.107 1.54-2.427 1.54-3.982s-.51-2.875-1.54-3.983c-1.02-1.108-2.24-1.66-3.68-1.66-1.463 0-2.683.552-3.71 1.66-1.022 1.11-1.536 2.427-1.536 3.983s.515 2.876 1.54 3.983c1.024 1.108 2.244 1.662 3.71 1.662 1.437 0 2.66-.554 3.682-1.662z"/>
    <path d="M5.825 16.697C1.505 19.505.98 25.79.98 25.79h19.19s-.526-6.285-4.846-9.093c-1.246.792-2.915 1.277-4.75 1.277-1.834 0-3.503-.485-4.75-1.277zm8.446-3.86c1.03-1.106 1.54-2.426 1.54-3.982s-.51-2.875-1.54-3.983c-1.02-1.108-2.24-1.66-3.68-1.66-1.463 0-2.683.552-3.71 1.66C5.856 5.982 5.34 7.3 5.34 8.855s.514 2.876 1.538 3.983c1.025 1.108 2.245 1.662 3.71 1.662 1.438 0 2.66-.554 3.683-1.662z"/>
  </g>
</svg>