<svg xmlns="http://www.w3.org/2000/svg" width="35" height="27" viewBox="0 0 35 27">
  <g fill="none" fill-rule="evenodd" transform="translate(1 1)">
    <path stroke="#2E3D49" stroke-width="2" d="M13,20.499923 C13,18.0146518 10.9851942,16 8.49992298,16 C6.01465176,16 4,18.0146518 4,20.499923 C4,22.9853482 6.01465176,25 8.49992298,25 C10.9851942,25 13,22.9853482 13,20.499923 Z" stroke-linecap="round"/>
    <path fill="#2E3D49" d="M10,20.4999397 C10,19.6716382 9.32842842,19 8.49993969,19 C7.67157158,19 7,19.6716382 7,20.4999397 C7,21.3283618 7.67157158,22 8.49993969,22 C9.32842842,22 10,21.3283618 10,20.4999397 Z"/>
    <path stroke="#2E3D49" stroke-width="2" d="M28,20.499923 C28,18.0146518 25.9851942,16 23.499923,16 C21.0146518,16 19,18.0146518 19,20.499923 C19,22.9853482 21.0146518,25 23.499923,25 C25.9851942,25 28,22.9853482 28,20.499923 Z" stroke-linecap="round"/>
    <path fill="#2E3D49" d="M25,20.4999397 C25,19.6716382 24.3284284,19 23.4999397,19 C22.6715716,19 22,19.6716382 22,20.4999397 C22,21.3283618 22.6715716,22 23.4999397,22 C24.3284284,22 25,21.3283618 25,20.4999397 Z"/>
    <path stroke="#2E3D49" stroke-width="2" d="M3.61670257,20.9991523 L2.81317843,20.999999 C0.967372848,21.0016924 -0.594041404,18.9353574 0.222138581,16.1380699 C1.62401624,11.3333542 2.67883182,4 12.9742359,4 C23.1770333,4 29.0230579,10.242671 31.955562,15.0172679 C33.7790982,17.9863166 33.0226683,20.9528251 31.1639635,20.9528251 L28.5,21" stroke-linecap="round" stroke-linejoin="round"/>
    <path stroke="#2E3D49" stroke-width="2" d="M19,21 C18.9217406,21 16.9217406,21 13,21" stroke-linecap="round"/>
    <path stroke="#2E3D49" stroke-width="2" d="M18.9965679,4 C19.0872311,1.87968434 17.370572,0.0903502188 15.1624979,0.00329549919 C12.9542947,-0.0837592205 11.0906632,1.56457601 11,3.68476767" stroke-linecap="round" stroke-linejoin="round"/>
  </g>
</svg>
