<?xml version="1.0" encoding="utf-8"?>
<!-- Generator: Adobe Illustrator 19.1.0, SVG Export Plug-In . SVG Version: 6.00 Build 0)  -->
<svg version="1.1" id="Layer_1" xmlns="http://www.w3.org/2000/svg" xmlns:xlink="http://www.w3.org/1999/xlink" x="0px" y="0px"
	 viewBox="0 0 20 20" enable-background="new 0 0 20 20" xml:space="preserve">
<path fill="#F04546" d="M15.1,13.1L12,10l3.1-3.1c0.5-0.5,0.5-1.4,0-2s-1.4-0.5-2,0L10,8L6.9,4.9c-0.5-0.5-1.4-0.5-2,0
	c-0.5,0.5-0.5,1.4,0,2L8,10l-3.1,3.1c-0.5,0.5-0.5,1.4,0,2s1.4,0.5,2,0L10,12l3.1,3.1c0.5,0.5,1.4,0.5,2,0
	C15.6,14.6,15.6,13.7,15.1,13.1z"/>
</svg>
