<svg xmlns="http://www.w3.org/2000/svg" width="37" height="18" viewBox="0 0 37 18">
  <path fill="#02B3E4" fill-rule="evenodd" d="M36.215,17.098 L35.615,15.998 L27.215,0.9 C26.915,0.4 26.315,0.1 25.815,0 L10.618,0 L10.518,0 C10.018,0 9.418,0.4 9.12,0.9 L0.72,15.998 L0.12,17.098 C-0.18,17.598 0.12,17.998 0.62,17.998 L15.618,17.998 C16.118,17.998 16.818,17.598 17.118,17.098 L18.118,15.298 L19.118,17.098 C19.418,17.598 20.018,17.998 20.618,17.998 L35.615,17.998 C36.315,17.998 36.515,17.598 36.215,17.098 L36.215,17.098 Z M23.317,2 L18.217,11.2 L13.117,2 L23.317,2 L23.317,2 Z M15.517,15.998 L3.12,15.998 L10.917,2.1 L17.117,13.298 L15.517,15.998 L15.517,15.998 Z M20.917,15.998 L19.417,13.298 L25.617,2.1 L33.415,15.998 L20.917,15.998 L20.917,15.998 Z"/>
</svg>
