<svg xmlns="http://www.w3.org/2000/svg" width="1180" height="466" viewBox="0 0 1180 466">
  <g fill="#DBE2E8" fill-rule="evenodd" opacity=".5">
    <path d="M1121.093 403.7c-1.892-.38-1.892-2.02-2.523-3.66-.378-1.01-1.135-1.39-1.135-2.146-.252-1.767 1.514-5.05-1.513-4.796-2.65.252-.883 4.796-1.135 6.94-.63 4.924-4.92 6.565-7.568 8.963 0 1.39 1.13 1.52 1.13 2.91-.51 1.9-3.03 1.77-3.16 4.04 1.64 1.26 3.53-.5 4.92-1.39 1.38-.88 3.15-1.76 4.41-2.9 1.39-1.13 2.27-2.77 3.91-3.53.88-.38 1.89-.25 2.77-.63 1.76-.76 3.02-2.4 3.65-4.04-1.14-.75-2.65.26-3.79.26m-23.59 10.1c-2.4 1.52-4.8 3.54-7.45 5.43-4.54 3.29-12.36 5.18-17.91 7.96-1.64.88-4.92 2.15-6.43 3.28-3.53 2.65 1.76 4.55 4.66 4.29 2.65-.25 5.93-2.27 8.2-3.66 2.27-1.51 4.28-3.78 6.81-5.05 1.64-.75 3.28-.63 4.92-1.13 1.13-.5 1.89-1.89 2.9-2.52 3.15-2.02 7.82-3.78 8.95-6.94-1.39-.25-3.4-2.4-4.66-1.64m-33.43-123.57c3.53.38 5.17-1.51 5.42-4.29-.38-.12-.38-.5-1.01-.38-1.77 1.52-9.33-.25-8.95 2.53.25.76 3.02 2.02 4.54 2.14m-5.04 8.58c-.63-3.15-4.67-3.03-4.42-5.81.12-1.39 2.02-1.51 1.89-2.9-.13-1.89-4.67-2.65-5.42-3.53-.89-.88-.89-2.14-1.52-2.9-2.52-3.03-7.94-3.91-12.61-5.68-1.38-.5-2.65-1.39-4.03-1.76-1.64-.51-3.28-.63-4.67-1.14-1.89-.76-3.03-2.02-4.67-2.14-1.64-.13-3.78.76-5.05 1.52-1.89 1.13-3.03 4.29-5.05 4.04-1.52-.13-3.28-2.91-3.53-4.04-.13-1.01.25-1.9 0-2.78-.51-1.64-4.67-4.16-6.81-3.91-2.4.38-3.28 3.78-1.89 6.18.5.89 2.14 1.27 2.52 2.27.38.89-.12 1.52.25 2.15 1.51 3.41 7.82 2.53 11.85 4.67 1.13.63 1.89 1.77 2.9 2.28s2.14.63 2.9 1.39c.76.76 2.52 3.41 2.27 5.05-.25 1.64-4.04 2.4-3.53 4.8.76 3.03 5.42-.51 7.44-.25 1.89.25 2.9 3.03 5.05 3.66 2.02.63 3.53-.13 6.18.25 2.77-1.52 2.77-5.05 5.8-5.43 1.77-.25 4.42 1.01 5.42 1.9 2.02 1.77 2.4 4.93 4.29 6.44 1.64 1.26 3.41.63 5.8 1.14 1.77.38 3.16 2.02 4.29 1.01 2.02-1.64-4.29-6.05-5.67-6.43m1.01 56.04c-.88-1.39-2.15-2.4-2.78-3.91-.38-1-.26-2.01-.63-2.52-.64-1.13-2.27-1.26-2.91-2.52-.13-.38 0-1.39-.25-1.9-.38-1.26-1.01-1.89-1.01-3.53-1.89-2.52-4.92-2.52-6.43-4.79-1.27-1.9-.38-4.04-.76-6.57-.26-1.39-1.39-2.78-1.52-4.42-.13-1.01.5-2.15.38-3.16-.38-2.65-3.16-2.27-4.67-3.53.38-4.04-.38-8.84-2.78-11.24-2.27.88-3.28 4.54-4.04 7.19-.25 1.01-1.01 1.9-1.14 2.91-.63 2.91-.63 6.31-1.89 9.09-1.13 2.4-3.02 4.92-5.04 4.8-1.76 0-2.64-1.89-3.91-2.78-.37-.25-1.38-.38-1.89-.75-.75-.38-1.76-1.64-3.15-2.53-1.89-1.26-5.05-2.27-5.05-4.42 0-1.76 1.76-2.14 3.28-2.77.63-1.01-.13-1.39.25-2.27.38-1.26 1.89-2.27 1.77-3.53-.38-2.78-3.79-.76-5.68-.76-3.41-.12-7.32-3.15-9.46-3.28-.88.76.25 1.52 0 2.78-1.14 1.77-3.28.51-5.3 1.01-2.4.63-3.41 3.28-4.92 5.3-1.01 1.39-2.02 3.66-3.15 3.92-3.03.76-4.29-3.03-6.94-3.28-.76-.12-2.27.38-3.16.76-1.39.63-3.41 2.02-4.42 2.9-1.52 1.26-1.77 3.28-3.16 4.42-.63.63-2.65 1.52-3.53 1.77-.88.26-1.64-.12-2.52.26-1.77.76-1.39 2.53-2.27 4.67-.76 1.77-3.54 4.67-5.43 5.81-1.77 1.01-3.91.89-6.18 1.39-2.4.51-4.67 2.02-6.43 2.27-.51.13-1.51-.12-2.27 0-3.03.51-5.42 3.16-8.33 4.67-.88.38-3.03 1.14-3.53 1.9-.38.63-.38 2.4-.76 3.28-.75 2.02-2.01 2.78-1.89 4.29 0 2.15 1.39 2.4.76 4.29-.38 1.14-1.89 1.26-2.14 2.53-.13.76.5 1.77.63 2.91.13.89-.13 1.64 0 2.28.25 1.77 1.39 3.28 1.39 5.05 0 1.26-.76 2.65-.76 3.91-.13 1.64.76 3.16.76 4.42 0 1.64-1.39 4.29-2.15 5.43-.76 1.01-2.9 2.02-2.9 3.53 0 1.89 2.27 2.4 3.53 3.53 6.3.89 8.7-2.52 12.86-3.66 4.16-1.26 8.2 0 12.23-.38 2.39-2.02 6.81-5.17 10.72-5.8 1.13-.25 2.52.13 3.66 0 4.79-.5 8.57-3.66 14.63-2.77 1.38.25 5.42 1.77 6.56 2.52 1 .63 3.15 4.67 3.28 5.68.25 1.26-1.01 2.78.63 3.28 1.64.25 2.64-1.64 4.03-2.52 1.26-.76 2.77-1.13 3.91-1.51-.5.63-.88 1.51-.76 2.77 1.39.89 1.39 2.53 1.01 3.91.63 1.26 2.01 1.64 2.14 3.16.13 1.51-1.14 2.27-1.01 3.91.38 3.03 3.41 3.03 6.18 3.92 1.39.38 1.77 1.01 2.77 1.01 2.27 0 3.53-1.39 5.04-1.14 1.39.12 2.77 2.02 4.29 1.89 1.39 0 3.28-2.15 6.18-3.28 1.89-.76 3.66-.51 5.67-.76 3.4-.38 4.41-4.04 6.43-6.44 1.39-1.64 3.53-3.03 5.3-4.79 1.64-1.77 3.15-3.66 5.04-5.3 1.13-1.01 2.65-1.52 3.91-2.53 2.02-1.64 4.04-4.42 5.42-6.81 1.76-2.9 3.91-5.18 4.92-7.57.75-2.02.37-4.42.75-6.44.38-1.64 1.77-2.9 1.39-4.8-.63-1.52-2.02-2.91-2.9-4.29M865.57 76.17c-.507 1.64-2.777 2.523-4.29 3.91-.88.885-1.514 2.4-2.775 1.516.13-1.515 1.39-1.893 2.15-2.777-.12-2.02 1.89-3.29 2.15-5.31.125-1.39-1.515-3.66.756-4.04 1.64 1.77 2.78 4.16 2.02 6.69zm-56.89-64.12c-.503-1.135 1.01-1.388 1.767-1.766 1.387-.758 2.144-1.515 4.288-1.515-.504 2.27-4.288 3.15-6.054 3.28zm-36.827 90.12c-.883-1.263 1.26-3.156 1.892-1.768 0 1.136-.505 1.893-1.892 1.767zm-39.225-69.546c-.63-2.146 1.26-2.272 1.387-4.04.126-3.407-6.054-4.543-5.8-8.708.25 0 .125-.378.25-.63 2.902-.506 2.65 2.02 3.91 3.912 1.01 1.64 3.406 1.893 4.037 2.524 2.9 2.903.756 8.078-3.784 6.942zm-4.036 75.73c-2.144.378-5.423-4.292-2.27-5.05 2.27-.504 5.423 4.42 2.27 5.05zm-14.378 24.99c-1.262 1.263-3.658 2.02-5.802 1.894-2.144 0-4.036-1.64-6.054-2.525-2.018-.883-4.288-1.01-4.667-3.155-.25-1.01.26-3.66.64-4.796.38-1.136 1.39-1.39 1.39-2.524-.12-1.39-3.28-3.787-4.41-4.797-1.64-1.51-3.78-2.77-4.66-4.67-.25-.63-.25-1.76-.63-2.52-.63-1.64-2.39-2.27-2.52-3.53-.13-.88 1.01-2.52 1.77-3.15.89-.63 2.53-1.39 4.04-2.52 3.16-2.27 5.81-3.03 10.85-1.89 1.26.76 2.15 3.79.76 4.8-3.15-.12-5.92 1.14-6.05 3.29-.13 2.65 5.42 5.43 7.57 6.81.25 1.27.38 2.53 1.13 3.16 2.9-1.13 5.8.63 5.8 2.9-.63 1.52-2.64 0-3.91.63-.37 0-.12.64-.63.64 1.14 4.8 6.44 5.3 5.43 11.99zm-45.658-13.883c-1.89.38-5.045.38-6.81.38-5.424-.12-9.334-4.16-15.514-3.91-1.387 0-2.648.38-3.657.76-1.64.63-2.775 2.02-4.29 2.27-1.764.38-4.54-.5-6.053 0-1.765.63-2.018 4.8-5.423 1.9-.26-1.76 2.14-1.01 2.27-2.52-.13-1.39-2.02-2.14-2.15-3.91-.25-1.89 1.64-2.65 2.39-4.79.25-.76 0-1.51.25-1.89.37-.76 1.38-1.26 1.89-2.15 1.13-1.64 2.39-5.05 4.66-5.3 2.14-.25 3.41 1.64 5.3 1.51 1.26 1.77 1.89 4.67 4.29 5.05 2.02.26 4.29-1.51 6.18-2.14-.51-1.76-2.53-.88-2.78-2.52-.38-2.9 5.93-3.91 8.58-3.28 1.51 3.16-2.4 3.79-2.27 5.68 0 1.64 5.29 3.28 6.55 4.04 2.39 1.39 4.79 2.53 6.81 3.66 2.65 1.77 5.04 6.19-.25 7.2zm-14.63 28.15c-1.01 3.16-.378 6.19-3.28 7.2-4.035 1.39-6.432-1.64-10.09-1.38-1.89.13-3.405 2.02-5.423 2.27-3.153.51-6.558-2.27-10.342-2.77-.88-.12-1.89.13-2.52 0-.88-.25-1.64-1.26-2.52-1.51-1.64-.5-2.9-.25-4.29-.63-1.89-3.41-11.6-3.53-12.48 1.39-.37 2.15 1.14 5.3-2.14 5.68-2.02.26-4.16-2.14-6.94-2.77-1.13-.25-2.77-.12-3.65-.38-2.14-.75-1.89-2.77-3.66-4.03-1.01-.75-3.78-1.76-5.42-1.89-1.01-.13-2.01.25-3.15.25-1.26-.13-3.15-1.14-4.29-1.77-1.01-.63-3.28-1.64-3.53-2.52-.38-1.38 2.65-3.03 2.78-4.29.13-.88-1.13-1.51-1.39-2.9-.12-.88.38-1.77.26-2.27-.25-1.01-1.89-2.14-3.53-2.14-1.38 0-2.65 1.14-3.91 1.14-1.76 0-4.54-.88-6.55-.76-1.26.13-2.52.89-3.66 1.01-3.4.26-6.18-.12-8.7 0-1.89.13-5.17.76-6.94 1.52-.88.38-1.51 1.39-2.77 1.89-.51.26-1.26.26-1.89.63-1.13.51-2.27 1.65-3.28 1.9-1.51.38-3.91-.25-6.56-.25-2.02.13-5.17.13-5.29-2.27 0-3.53 6.18-2.27 9.46-2.9 1.26-.25 2.02-1.39 3.53-2.27.76-.37 1.64-.5 2.27-1.01 1.14-.75 2.9-2.77 3.15-3.66.13-.88-.5-2.02-.38-2.77.13-.76 1.14-1.64 2.15-2.77 1.64-1.64 3.41-3.78 5.42-4.79 1.39-.75 3.28-.63 3.91-1.76.13-1.26-.25-2.02-.25-3.15.88-.75 1.39-1.38 2.14-1.51 2.15-.51 4.17 1.51 6.56 1.39 1.01 0 2.02-.75 3.16-1.51 1.01-.63 2.02-1.13 2.9-1.51 1.01-.5 2.02-1.64 3.28-1.77 3.03-.25 4.29 3.16 5.68 5.05 1.14 1.52 4.54 4.17 6.43 5.3 1.14.63 2.53.63 3.66 1.14 2.52 1.14 7.44 4.92 7.57 7.32 0 1.26-1.14 2.15-1.01 3.28 1.89.26 4.04-1.76 4.04-3.66 0-1.13-1.26-1.89-1.01-3.15.88-1.89 3.53 0 4.67-.76-.25-2.15-3.15-2.4-5.04-3.54-1.01-.63-1.64-1.89-2.77-2.27-1.51-.63-3.15-.5-4.28-1.39-1.14-.88-1.64-2.77-2.78-4.04-1.51-1.89-5.04-2.15-4.03-6.44.51-.63 1.64-1.64 2.27-1.39 1.39.38 1.26 1.64 2.27 2.27.76.51 1.89.38 2.78 1.01 1.01.63 1.52 2.28 2.78 3.28 1.64 1.39 4.54 2.4 6.81 3.54 2.15 1.01 5.55 2.4 6.06 4.29.26 1.01-.38 2.15-.25 3.16.13 1.14 1.01 2.4 1.51 3.16 1.52 2.02 3.53 3.91 5.3 6.44 0 3.41 1.26 5.55 5.05 5.05 1.39-.75.63-1.76 1.77-2.9 1.01-1.13 3.28-.88 3.28-2.52 0-2.39-5.8-2.77-5.05-6.43.26-1.13 1.52-.63 2.53-.63 1.64-1.89 5.17-4.29 7.44-1.39 1.01 5.81 2.77 10.98 6.94 14.14 2.9-1.01 4.16 1.64 6.93 1.14 1.39-.25 2.02-1.89 3.28-2.15 2.4-.38 4.04 2.28 6.18 2.53 3.66.51 6.31-3.66 9.97-1.51.12 2.9 1.13 4.54 1.01 6.56.12 1.64-1.26 3.16-2.02 5.3zm1.26 121.04c.253 1.64-1.26 3.16-1.89 4.42-.63 1.26-.38 2.27-1.766 2.9-2.397.13-4.29-.12-5.045-1.51.756-1.76-.127-3.28.378-5.05.757-2.65 7.694-4.42 8.324-.76zm.758 38.63c2.018 1.01.883 4.93 0 6.44-2.144-.88-1.26-4.8-.378-6.44h.378zm-14.63-14.13c-2.775-.25-4.667-5.55-3.28-8.71h.63c1.64 1.01.758 3.03 1.136 4.8.252 1.52 2.27 2.53 1.513 3.92zM575.097 70.87c1.892-.38 1.387-1.894 2.775-2.146.882-.126 1.64.757 2.9.63 1.388-.125 2.65-2.145 3.91-2.776 2.523-1.136 4.415-.505 4.92-2.524.25-1.136-.63-2.777-.38-4.04.63-2.776 5.803-2.397 5.676-5.68-.127-1.892-4.163-2.397-4.667-4.29-.25-1.136.38-3.156.76-3.913 1.77-3.28 7.44-3.53 9.08-6.18.76-1.26.76-2.52 1.39-3.15 1.64-1.77 6.43-2.02 8.2-.38 0 4.42-8.7 5.05-8.95 8.59 0 .76.63 2.02.76 3.29.13 1.14 0 1.9.26 2.53.63 1.9 3.28 3.41 5.3 3.54 4.67.26 11.61-4.41 15.77-1.01-1.76 3.92-8.19.76-12.86 2.28-.88.38-1.51 1.26-2.27 1.52-1.13.38-3.15 0-3.15 1.77.89 1.77 2.4-.38 3.53-.38 1.27 0 3.03 1.39 2.91 2.91-.38 3.54-3.53-.12-5.68 0-3.02.13-3.65 4.55-3.15 7.83-1.39.76-3.03 2.91-4.92 3.16-1.13.13-2.14-1.01-3.66-1.14-3.53-.38-6.81 2.78-10.09 2.78-1.38 0-2.9-1.76-5.29-1.76-1.13 0-2.02.89-3.28 1.01-1.51.13-4.03-.5-3.91-1.76 0-1.9 2.65-.38 4.17-.63zm302.7 142.75c.504 1.39 1.01 2.524 1.513 3.66.506 1.136 1.39 2.272 1.767 3.534.378 1.39 0 3.156.252 4.67.12.758.5 1.515.63 2.146.12 3.03-.89 6.184-.76 8.71.12 1.89 2.52 2.65 3.91 3.91 1.64 1.515 3.78 4.418 4.29 6.185.63 2.146.5 4.04 1.13 5.806.25.76 1.01 1.52 1.51 2.28 1.76 2.78 2.9 4.17 5.67 5.81 1.51 1.01 3.15 2.15 5.04 2.53 2.02-2.52-1.26-4.29-1.89-6.81-.51-2.14.25-4.54-.63-6.56-.76-1.76-4.42-4.92-6.44-6.43-1.01-.75-2.65-.88-3.54-1.76-1.39-1.26-1.51-3.79-2.9-6.06-.76-1.39-2.4-2.4-2.78-3.66-.63-3.15 1.26-5.3 1.76-7.95.38-2.78-.13-4.42 1.51-4.42 1.01 0 1.89 1.9 2.9 2.53 1.64.89 3.66 1.14 5.04 2.53 1.13 1.14 1.64 2.9 3.15 4.04 1.76 1.39 4.54 2.15 5.04 3.53.37 1.01-.38 3.16 1.01 3.66 3.53-.37 4.54-4.16 6.55-5.42 2.77-1.64 6.18-2.27 7.56-5.3 1.01-11.74-4.79-14.64-10.34-19.44-1.52-1.26-5.81-5.68-5.68-7.83.13-2.77 5.93-7.95 8.58-8.2 2.9-.25 5.42 2.15 5.04 4.67-.26 1.39-3.28 2.4-3.16 4.67.12 2.02 2.52 2.91 3.66 2.78 1.51-.12 3.78-2.65 3.53-5.05-.13-1.64-2.27-2.52-2.15-4.03.25-3.16 4.79-2.65 7.44-3.53 1.01-.38 2.02-1.51 3.15-1.89 4.41-1.39 9.33-2.27 12.99-5.3 4.16-3.28 5.55-7.95 6.81-14.01 2.77-1.26 1.39-4.42 1.76-7.83-.5-1.39-2.65-1.13-3.15-2.52-.13-1.01.51-1.26.38-2.27-1.01-.89-.88-2.4-1.77-3.66-.38-.51-1.77-1.14-2.52-1.9-1.89-2.02-3.66-4.79-5.04-5.8-1.64-1.13-3.66-1.51-3.66-3.28 0-3.15 5.29-4.79 6.18-7.19-1.52-.88-3.41-2.02-5.81-1.77-1.38.13-2.27 1.64-3.65 1.52-1.64-.13-1.9-2.15-3.66-2.91-2.02-.76-4.54-.38-4.29-2.52.13-1.13 2.02-1.26 3.15-2.14 1.52-1.26 3.28-5.3 6.06-5.05 3.53.38.12 4.55 2.9 6.19 1.89-.38 2.65-2.15 4.66-2.53 2.78-.51 6.31.38 7.19 2.52.63 1.51.13 3.28 1.77 4.04 2.4 1.26 4.41.13 5.68 2.14.37.76.25 1.64.63 2.27.63 1.14 1.76 1.77 2.14 3.28.51 1.9-.25 4.04 1.89 4.67 2.27.76 7.82-2.02 7.95-3.91.13-1.51-1.38-4.04-2.52-5.42-1.64-2.14-4.67-4.67-6.43-5.8-1.26-.88-3.78-1.26-3.91-3.16-.13-2.02 2.77-2.4 3.28-4.42.38-1.27-.25-2.02-.38-3.92 1.39-1.77 1.89-3.91 4.29-4.04 1.64-.13 2.27 1.26 3.91 1.14 1.76-.12 4.29-2.14 5.04-3.91.38-1.01.5-2.65 1.01-4.04.37-1.26 1.26-2.52 1.38-3.66.12-1.13-.25-2.4-.25-3.66 0-2.02.88-4.04.75-5.3-.13-1.77-1.77-4.16-3.15-5.81-.63-.75-4.42-4.54-1.9-5.42 1.26-.5 3.28 1.77 3.91 2.27 1.26 1.38 2.15 2.52 2.9 3.53 2.27 2.65 2.91 5.68 6.06 6.81.76-.88.13-1.76.38-2.9.25-.76 1.13-1.26 1.01-2.14-.13-1.01-2.78-3.15-3.66-3.91-1.51-1.39-3.28-2.27-4.41-3.28-3.28-2.77-4.79-6.43-8.2-7.32-1.76.63-.88 1.9-2.77 1.9-1.01 0-3.03-1.26-4.29-1.89-1.39-.63-2.65-1.89-4.42-1.77-.88 0-2.52 1.39-3.65 1.39-2.02 0-4.79-2.65-6.43-2.9-1.01-.12-1.39.38-2.14.26-3.28-.88.38-4.17.75-5.05.38-.88.38-2.14.63-2.78.26-.75 1.14-1.64 1.52-2.77.25-.76.12-1.77.38-2.52 2.14-5.3 11.23-1.26 17.28-2.27 1.13-.26 2.27-1.27 3.66-1.39 2.77-.13 4.41 2.27 7.57 2.52 1.13.13 6.31-.25 6.43-1.39.13-1.13-2.15-2.02-2.27-2.9-.51-2.77 1.64-5.05 3.15-5.42 5.8-1.39 6.18 3.66 9.96 3.28 1.26-.13 2.64-1.51 2.9-2.78.12-1.01-.89-2.15.25-2.78 1.39.38 4.16 3.16 4.29 4.67.12 1.39-1.77 3.54-1.9 5.81 0 .89.38 1.77.25 2.27-.38 1.52-2.52 2.28-2.52 3.29.63 6.57 7.19 10.48 11.22 13.63 4.03 3.03 7.31 6.31 11.1 8.71.75-.38 1.64-1.13 1.76-2.14.12-1.13-.89-2.02-1.01-3.28 0-.88.63-1.77.63-2.52-.13-1.14-1.26-1.39-1.14-2.27.38-1.39 2.02-1.14 1.9-2.53-.13-1.13-2.65-1.51-2.9-3.15-.13-.88.5-1.13.37-2.52-.5-1.01-1.51-1.01-2.52-1.77-1.14-.88-1.89-2.65-3.28-3.16-1.14-.38-2.4.13-3.28-.63-1.51-1.01-1.01-3.41-1.77-5.3 1.39-2.52 4.04-1.01 6.18-1.39.89-.12 1.77-1.39 2.78-1.51 2.65-.51 5.29 1.51 6.93 1.13 1.39-.25 2.53-3.4 3.91-4.67 1.14-1.01 4.04-2.9 5.8-3.15 1.14-.12 2.65.89 4.04-.25-.76-3.28-9.21-3.03-9.46-6.43-.13-1.13 1.14-2.4 2.27-2.77 7.19-1.77 12.99 4.41 19.8 2.9.51-5.43-6.3-7.95-12.23-7.95-1.13 0-2.01.38-2.9.38-1.89 0-4.16-1.39-6.43-2.15-3.78-1.14-8.57-1.64-12.23-2.78-.63-.12-1.26-.75-1.89-1.01-.63-.12-1.51 0-2.27-.25-.88-.25-1.64-.88-2.52-1.01-1.77-.25-3.41.38-5.3.63-2.65.26-5.42.13-7.57-.38-2.65-.63-4.67-2.53-6.81-2.78-.88-.12-2.02.38-2.9.38-1.64 0-3.15-.88-4.29 0-1.13.76 1.01 1.9-.25 2.78-2.77.51-5.8-2.52-7.82-2.52-1.51 0-2.27 1.14-3.53 1.14-.63 0-1.51-.25-2.27-.38-3.66-.25-9.21.38-12.87 0-2.53-.25-3.53-2.14-5.81-3.15-4.41-1.76-10.09-1.51-14.63-1.13-2.01.13-3.91.63-6.05.38-1.01-.13-2.01-.88-3.28-1.14-1.89-.38-4.16-.12-5.42-.63-1.89-.63-3.27-2.52-5.29-2.9-1.77-.26-3.66.25-5.68.25-5.42-.13-11.23-.63-17.15-.38-1.01.76-.76 2.02-1.89 2.53-3.16 1.39-9.97-.63-13.75.25-1.26.51-1.26 1.89-2.52 2.15-1.01.13-3.66-.88-4.67-1.51-1.13-.63-1.76-2.02-2.9-2.9-1.51-1.26-4.04-2.77-5.42-3.15-2.65-.63-6.43.12-9.71-.26-.88-.12-2.02-.5-2.9-.38-1.64.26-3.15 2.02-5.3 2.15-1.01 0-2.14-.5-3.28-.63-.88-.13-1.89.13-2.77 0-1.14-.13-2.02-1.01-3.16-1.14-1.89-.25-4.92-.37-7.19-.37-1.77 0-3.28.63-4.92.25-2.27-.63-3.53-2.39-5.42-3.15-.51-3.03-2.15-2.77-4.67-3.66-.76-.25-1.52-1.01-2.15-1.13-3.79-1.01-7.95.25-12.11-.38-1.39-.26-2.52-1.77-3.91-1.9-1.52-.25-3.41.51-5.43.76-2.02.25-4.16-.38-5.8 0-1.14.25-1.77 1.26-2.9 1.77-1.14.38-2.4.76-3.53.76-1.9 0-3.79-1.39-5.81-1.13-1.89.13-4.29 1.89-6.81 2.27-4.03.76-8.07.88-10.47 2.53-.75 1.01 1.01 1.64.26 2.52-2.78 1.01-7.7-.26-9.97 1.38-.63 1.14 1.01 2.15-.25 2.91-1.77-.13-2.15-.76-3.28-.76-2.15.12-3.28 3.03-4.92 3.15-1.39 0-2.02-2.15-3.28-2.15-1.64.12-2.27 3.41-3.66 3.53-1.64 0-1.26-2.14-2.27-3.66-1.64-2.14-7.19-2.14-8.96-.63-.5.5-2.65 4.16-2.77 4.67 0 .88 1.76 3.66 2.14 4.04 1.39 1.13 4.54.38 4.92 3.15-4.04-.13-8.2-2.27-12.61-2.91-3.03-.38-6.18-.38-9.08-.63-.89 1.14 2.02 2.02.75 3.28-.76.76-2.65-.76-3.66-.76-1.52-.12-2.78.89-4.67 1.14-.76.13-1.77-.12-2.78 0-1.13.13-2.14.63-2.9.63-1.51-.25-2.27-1.51-3.53-1.51-.88 0-2.14.89-3.28 1.14-.88.25-1.89 0-2.52.25-.88.26-1.77 1.14-2.9 1.52-.88.38-2.02.38-2.78.76-1.77.88-2.15 2.65-4.04 2.78-.89 0-2.4-.25-3.16-1.77-.12-1.13 1.01-1.01.76-2.27-.5-1.13-4.16-1.51-4.92-.25-1.39 2.02 1.26 3.16 1.01 5.3-.38.13-.63.38-.76.76-3.53-1.51-6.44.5-8.71 1.89-.25 1.13-.12 2.65-1.13 2.9-2.777.38-5.048-2.02-6.94-.63-.25 2.02 2.523.88 2.145 2.9-4.29.5-9.08-2.78-9.08-7.2 3.16-1.01 7.19.76 10.34.76 1.9 0 6.18-.76 6.06-3.28-.12-2.15-4.92-3.16-7.19-3.91-2.77-.89-5.8-2.4-8.57-2.78-.88-.13-1.76.12-2.77 0-2.52-.26-4.54-1.52-6.43-1.77-1.26-.13-2.393.25-3.28 0-1.76-.63-1.51-2.15-2.9-2.78-2.52-1.13-5.42-.12-8.58-.25-1.89 0-3.66-.5-5.04-.38-1.01.13-1.77.5-2.52.63-.63 0-1.77-.25-2.15-.25-1.13.13-2.27 1.26-3.53 1.77-2.02.75-4.41.5-6.56 1.01-2.14.5-3.91 2.77-5.8 3.15-1.38.25-3.78-.76-4.41.63-.38 1.39 1.135 1.77.63 2.78-1.26 2.15-4.29 2.9-6.05 5.05-.506.63-.506 1.51-1.01 2.14-.63.88-1.89 1.39-2.27 2.14-.76 1.27-.505 2.28-1.51 2.91-1.77 1.01-4.29.38-6.06 1.01-1.01.38-1.76 1.39-2.77 1.9-2.53 1.26-5.93 1.76-7.44 4.29-.38 2.14.5 3.78.75 5.43.13 1.13-.13 2.02.25 3.15.63 1.77 3.16 3.66 5.68 3.66 3.66 0 6.56-4.67 9.59-4.03 1.38.25 1.63 2.52 2.27 3.91.63 1.26 3.78 3.28 3.27 5.3-.38 1.64-4.034 2.15-5.8 2.15-.13-1.77.25-4.67-1.135-5.68-2.9 1.39-5.04 1.01-5.8 3.28-1.01 2.9 1.77 5.05 1.39 7.82-.51 2.9-6.31 1.89-8.96 2.27-1.89.38-2.65 2.77-4.28 4.67-1.13 1.39-3.15 2.77-4.92 3.53-.75.38-1.76.25-2.52.76-1.13.76-1.51 2.4-2.77 3.28-.885.63-4.29 2.27-5.3 2.27-1.135 0-2.14-1.01-2.9-.76-1.14.37-1.01 2.65-2.4 3.15-2.52.89-6.94-2.27-7.82 1.52 1.13 2.27 3.91 1.64 5.8 2.9 1.26.76 3.78 4.16 4.03 5.43.25 1.13-.13 5.42-.63 6.56-1.26 3.16-4.04 2.02-7.57 1.89-1.01 0-2.02.25-2.9.25-6.06-.38-12.11-2.52-14.76 1.77.25 3.29.88 5.43.25 8.33-.502 2.15-2.394 4.04-2.27 5.81 0 .89 1.138 1.9 1.39 3.16.126.63-.252 2.15 0 2.78 1.01 1.9 3.657.26 5.42.63 1.77.26 3.66 2.78 3.66 4.67 0 1.39-1.26 3.54-2.143 4.8-1.64 2.53-4.035 2.65-6.43 4.04-2.02 1.14-2.9 3.03-4.04 5.05-1.26 2.15-2.144 3.53-1.51 6.56-1.77 3.41-4.42 5.56-7.95 7.2-1.01.5-2.52.63-3.53 1.39-.75.5-1.26 2.02-2.27 3.28-1.38 1.51-2.77 2.14-3.53 3.28-.5.88-.753 2.65-1.39 3.91-.88 1.64-2.64 2.4-3.65 4.04-.51.76-.76 2.27-1.39 3.28-1.26 2.27-3.28 3.91-3.155 5.81.254 1.89 2.4 2.27 2.525 3.91.13.89-.63 1.52-.63 2.53.13 1.51 1.01 2.52 1.13 3.66.25 2.9-1.01 4.04-1.51 6.06-.25.89-.12 2.02-.38 2.78-.5 1.39-2.52 2.78-2.52 4.42 0 1.26 1.26 2.14 1.39 3.91.13 1.13-.63 2.4-.38 3.53.38 2.15 4.16 4.55 5.8 6.19 2.14 2.15 5.04 3.92 6.05 6.19.76 2.02.76 4.54 2.27 6.06 1.14 1.14 3.03 1.77 4.42 2.9 1.39 1.01 2.78 2.02 4.29 3.16 2.4 1.89 5.93 5.55 9.71 5.3 2.02-.13 4.04-1.77 6.18-2.15 2.27-.38 5.3-.63 7.57-.38 1.763.13 3.53 1.26 5.42 1.14 1.89-.12 4.16-1.51 6.43-2.52 3.78-1.64 9.59-3.91 15.14-3.15 4.29.63 4.04 5.56 6.94 7.32 3.41.25 6.18-1.26 8.96-.63 2.02.5 4.41 3.66 4.67 5.3.25 1.64-.89 4.16-1.14 5.3-.51 2.27-.51 4.92-1.01 6.44-.257 1.14-1.14 1.77-1.14 2.91 0 1.01 1.26 3.53 2.4 4.79 1.26 1.64 3.28 2.9 4.92 4.67 2.9 3.28 4.04 7.2 6.05 11.49.76 1.52 2.14 4.04 2.14 5.68 0 1.27-.75 2.27-.63 3.54.26 2.65 1.89 3.79 2.15 6.06.64 5.43-4.28 7.07-5.29 11.49-.25 1.01 0 2.14-.25 3.15-.38 1.39-1.39 2.53-1.51 3.92-.26 1.39-.51 4.04-.38 5.43.25 2.02 2.39 4.04 3.53 5.81 1.13 1.89 2.14 5.3 3.53 7.7.76 1.39 2.02 2.52 2.394 3.66.38 1.51 0 3.4.25 5.3.13 1.39 1.01 2.77 1.14 3.91.63 3.54.76 7.07 2.52 10.1.89 1.52 2.53 2.4 3.66 4.29 1.14 1.77 1.64 4.3 2.78 6.44 1.14 2.27 2.65 3.79 2.78 5.05 0 1.01-1.01 2.15-1.01 3.28.13 3.03 3.28 5.93 5.81 6.06 1.13 0 2.27-1.01 3.53-1.14.76-.13 1.39.13 2.146 0 1.26-.25 2.15-1.01 3.16-1.14 2.52-.38 5.04.38 7.44.25 4.04-.25 8.7-2.27 11.22-4.04 3.03-2.14 6.06-4.67 8.33-7.19 1.64-1.77 2.52-4.29 4.04-6.06 1.26-1.39 3.28-2.15 4.04-3.66.63-1.01 1.89-4.67 1.89-5.68.13-1.14-.63-2.02-.38-3.16.76-3.53 7.95-2.9 9.333-6.18 1.26-3.15.5-7.19-.26-10.1-.25-1.13-1.26-2.77-1.13-3.91.26-1.89 3.28-3.66 5.68-5.68 1.39-1.13 2.52-2.9 3.91-3.91 2.02-1.39 4.79-1.77 6.56-2.9 1.64-1.14 4.54-4.17 5.3-5.81.89-1.9 0-3.54-.25-5.68-.38-3.28.25-7.2 0-11.11-2.02-1.77-2.77-4.67-3.91-7.32.38-2.15.76-3.91.25-6.06-.37-1.26-1.38-1.89-1.51-3.15-.38-3.03 1.89-4.55 2.9-6.82 1.01-2.02 1.52-3.91 2.27-5.05 1.01-1.39 3.03-2.02 4.29-3.53.88-1.01 1.26-2.28 2.142-3.54 2.15-3.03 5.42-6.31 8.58-8.58 1.51-1.14 3.28-1.77 4.67-2.9 1.38-1.13 2.52-2.4 3.91-3.91 2.39-2.52 5.29-5.68 6.81-8.71.5-1.01.38-2.14.75-3.15 1.26-3.16 4.034-5.68 5.043-9.09.12-.63.25-1.39.38-2.14.5-2.15 2.02-4.55 0-6.82-1.77-.63-3.41 1.39-5.8 1.77-2.52.38-4.79.13-6.81.63-1.14.25-2.02 1.14-3.16 1.39-.63.13-1.52-.13-2.27 0-1.52.25-2.9 1.26-3.91 1.14-2.528-.26-3.91-3.16-5.43-4.67.26-1.14 1.14-1.64.76-2.91-.25-1.01-1.64-1.13-2.77-2.14-1.766-1.64-3.28-3.92-5.42-5.43-2.4-1.64-5.68-2.78-6.81-5.3-.76-1.64-.76-4.29-1.897-6.06-1.39-2.15-4.8-3.53-5.43-5.81-.76-2.4-.13-4.04-.63-6.44-.76-3.53-4.67-4.54-5.8-7.57-.38-.88-.25-1.89-.63-2.78-.76-2.15-2.52-4.29-3.66-6.18-1.26-2.14-2.52-4.29-3.28-6.81.76-1.01 2.52-1.14 4.04-1.39 3.02 2.525 5.8 5.68 7.82 9.34.5.884.63 2.02 1.13 2.904.89 1.26 2.4 1.89 3.16 2.77 1.01 1.13 1.89 2.65 2.39 4.04.257.88 0 1.77.257 2.9.88 4.17 5.42 5.93 7.82 9.34.63 1.01 1.01 2.27 1.51 3.16 1.26 1.77 3.15 2.78 3.65 4.8-.13 1.01-1.64.63-1.51 1.89.63 1.51 2.27 2.02 3.15 3.53 1.64 2.9 1.89 7.07 3.28 10.35 3.03 1.76 5.8-1.26 8.7-2.15.88-.25 2.02-.13 2.9-.38 1.26-.26 2.4-1.27 3.66-1.52.63-.12 1.39 0 1.89-.25 1.39-.5 2.4-2.02 4.04-2.78 2.52-1.13 5.68-1.13 7.44-2.27 1.64-1.13 1.77-3.15 3.15-4.04 2.15-1.38 4.54-1.01 7.19-1.89 1.26-.5 2.02-1.76 3.28-2.77 1.01-.756 2.27-1.51 3.28-2.52 1.01-.89 2.78-1.9 3.15-2.78.26-.38.13-1.89.38-2.52.38-.89 1.52-1.39 2.27-2.28.76-1.01 3.41-4.92 3.28-6.06-.12-1.26-3.91-4.92-4.92-5.3-1.51-.5-2.77-.25-3.65-.63-1.39-.5-2.52-1.77-3.28-3.28-.76-1.51 0-2.65-2.14-4.04-3.66 3.16-5.93 7.574-14 6.19-1.77-.76-1.01-4.04-1.77-5.81-.88-.88-2.52.13-3.28-.25-1.26-4.17-5.17-5.3-7.44-8.33-.63-.89-2.27-3.28-2.14-4.42.25-1.77 2.65-2.78 4.29-2.78 4.54 0 5.044 5.93 7.945 7.95 1.26.76 2.78 1.39 4.42 2.52 2.4 1.64 5.42 3.16 8.96 2.27 1.64-.38 2.64-1.76 4.41-1.385 1.51.38 1.89 2.9 2.78 3.66 1.38 1.26 4.66 1.89 7.19 2.15 2.01.25 4.28.63 6.18.76 2.9.38 5.8-.25 8.19-.38 1.89-.13 4.797.13 6.43 0 .63 0 1.64-.51 2.27-.38 2.65.25 3.91 3.41 5.42 4.67 2.65 2.27 6.05 3.28 7.44 5.3-1.64 3.16 3.91 6.82 6.05 6.82s3.03-1.89 4.92-2.27c2.02 1.01 1.39 2.52 1.51 5.05.13 1.76.88 4.41 1.51 6.56.63 2.02 1.26 4.41 1.89 6.18.76 2.14 2.52 4.29 3.66 6.44 1.39 2.52 1.77 5.17 2.78 7.32.88 1.89 2.64 3.28 3.53 4.8 1.89 3.41 2.9 11.48 7.19 10.85.88-.13 1.13-1.01 2.14-2.15.63-.76 1.64-1.27 2.4-2.15.37-.51.63-1.52 1.13-2.27.63-.88 1.39-1.26 1.52-1.89.25-1.26-.38-2.65-.25-3.92.12-1.38 1.13-2.65 1.38-4.04.38-3.02-1.26-5.55-1.13-8.7 1.38-2.78 4.54-2.91 6.56-4.8.75-.76 1-1.89 1.76-2.78.88-.89 2.27-1.52 3.28-2.53 2.017-2.02 3.4-4.54 5.29-5.81 1.52-1.01 3.66-1.01 4.29-3.15-.5-4.67 2.65-3.66 6.56-3.91 1.14-.12 4.04-.63 5.3-1.01 1.14-.38 2.4-1.89 3.53-1.77 1.14.26 1.39 2.15 2.15 3.66.51 1.01 1.64 2.53 2.78 3.54 1.14 1.13 2.777 1.64 3.66 2.77.5.51.63 1.64 1.13 2.28 1.39 1.77 3.28 2.78 3.28 5.43 0 1.26-.88 2.53-.63 3.66.25 1.26 2.02 2.4 3.28 2.27 2.52 0 4.42-3.91 6.43-3.66 1.77 1.26 2.65 5.68 3.41 7.95zm134.073 201.44c-2.272-.38-3.66-2.147-5.046.63-.505.884-1.766 5.428-1.514 6.437.63 3.534 6.18 1.01 7.946-.252 2.396-1.64 4.288-4.418 4.92-6.816-1.893-1.39-4.037.37-6.307 0"/>
    <path d="M1004.806 139.655c-.63-2.145-1.135-4.417-1.892-6.815-.38-1.01-1.135-1.894-1.135-2.777-.13-1.388.63-2.777.37-4.04-.63-3.407-5.05-6.815-8.58-7.193-2.27 2.65 1.26 5.048 1.89 7.194 1.01 3.408-.88 6.816-2.78 7.825-.63.37-1.52.25-2.27.75-.89.63-1.01 3.41-2.78 4.04-2.02.88-4.54 0-7.19.63-1.39.25-3.53 2.52-4.67 3.66-.89 1.01-3.79 3.28-3.66 4.67 0 1.39 1.89 2.27 3.15 3.91 1.01 1.38 2.02 3.53 3.66 3.28 2.39-.38.38-4.8 2.27-6.06 3.4 1.13 4.79-3.41 7.57-3.54 1.13 0 2.01 1.26 3.15 1.01 1.39-.38 1.89-2.78 3.28-3.54 3.28-1.39 7.57-.38 9.58-3.03m-16.4-25.62c.13 1.77 2.65 3.53 4.29 3.91.63-1.64-.51-3.03 1.39-3.54 1.51-.38 3.28 1.51 4.92 1.14 1.01-.13 1.89-2.02 2.77-2.53.88-.63 1.64-.38 2.14-1.39-.13-2.65-2.53-2.4-5.3-2.91-4.29-.76-8.08-4.29-9.97-3.91 0 .25-.25.25-.25.63.88 2.14 2.27 3.15 1.76 5.43-.38 1.26-1.89 2.02-1.76 3.15M993.54 309c.25 1.01 3.15 1.26 2.9-.38-.38-1.26-2.78-.89-2.9.38m-7.31-208.26c3.28-2.147-1.39-4.42-3.28-5.43-.88 2.15 1.26 4.67 3.28 5.43M971 304.37c2.397-.254 3.91-2.147 5.8-3.283 1.894-1.136 4.795-1.136 5.678-3.534-3.91-1.39-6.307 1.263-8.577 2.525-1.51.884-3.65 1.262-3.65 3.534.38.125.63.38.76.757m3.79-40.52c-1.64-.88-3.78-.25-6.05-.25-2.01 0-4.16-.89-5.67-.76-1.89.13-3.65 1.89-3.65 3.53 1.14.38 1.52-.38 2.53-.63 5.05-.76 12.49 2.9 12.87-1.9m-5.05 23.1c.89-.63.51-2.65.63-4.04-1.89-2.27-2.52-5.68-4.03-8.21 1.01-2.02 4.67-2.4 4.42-5.05-3.28-.63-6.06 2.27-8.33 1.76-.63-.13-2.02-2.4-3.15-2.27-2.14.12-1.76 3.53-2.27 5.3-.38 1.26-1.89 2.52-1.76 3.66.12 1.39 2.02 1.89 2.27 3.66.38 2.14-1.52 4.79.38 5.43 4.04 1.14 1.26-8.33 4.29-8.96 1.52 2.4 3.66 9.46 7.57 8.71m-6.31 11.61c-.38-1.64-4.42-2.15-5.05-.63.38 1.39 4.42 2.14 5.05.63m-7.95 3.15c.51 1.51 2.02 1.89 3.54 2.27l.76-.76c0-1.77-3.15-3.16-4.29-1.51m-4.03-56.55c-.25-1.64-2.9-5.43-4.66-3.53-2.02 2.4-2.15 5.05-4.67 6.94-1.01.75-2.14.75-3.28 1.51-1.01.76-1.76 2.27-2.52 3.28-.88 1.01-1.89 2.27-3.15 2.78-1.26.5-2.77.25-3.66.75-1.51 1.01-1.26 3.41-3.15 3.91-.88.25-2.39-.76-3.65-.63-3.41.5-2.78 6.43-1.51 9.08.88 1.76 2.52 2.52 2.9 3.91.38 1.26.25 3.66 1.51 4.42.63.38 2.01.12 3.53.63 1.26.38 1.89 1.13 2.77 1.13 1.01.12 2.27-.63 3.28-.63 2.65 0 4.29 2.39 6.05 2.52 1.51.13 3.03-1.01 4.29-1.01 1.89-1.64.88-4.67 1.77-6.94.63-1.9 2.9-2.27 3.66-3.91.25-2.15-.38-2.27.25-3.66.63-1.52 3.53-1.52 3.66-2.9.12-.76-1.64-2.02-2.15-3.16-.5-1.01-1.01-2.52-1.14-3.28-.63-4.8 2.52-5.17 3.66-8.58-.88-1.14-2.9-1.39-3.78-2.65m-3.15 52.25c-1.52.12-3.28-.89-3.91.63.37 1.64 2.39 1.64 4.41 1.77 1.26-1.52 4.67 0 5.68-1.39-.51-2.9-3.79-1.26-6.18-1.01m-13.37.38c2.14.26 4.66 1.64 6.43-.25-1.14-2.27-4.92-2.15-7.19-3.28 0-1.01.38-1.52-.25-2.15-2.65.38-4.92-1.39-7.19-1.39-1.01 0-1.89.89-2.9 1.01-4.54.63-6.81-2.4-10.34-2.9-2.65-.38-5.68.13-5.68 1.9.13 1.76 6.56 4.16 8.32 4.42 1.52.25 3.16-.26 4.67 0 2.65.38 5.05 1.76 7.82 2.14 2.27.38 4.29.25 6.31.5m-18.42-23.73c-4.92 0-4.92 7.7 0 7.7s4.92-7.7 0-7.7"/>
    <path d="M909.33 280.134c.63-1.767 2.648-1.767 2.774-3.155 0-.76-2.144-3.79-2.775-3.92-1.52-.26-1.52 1.76-2.91 1.39-1.39-.25-1.52-1.9-2.52-2.91-.76-.89-2.02-1.26-2.27-2.27-.13-.64.38-1.77.25-2.53-.51-2.91-4.54-4.42-6.81-5.81-1.64-1.01-3.41-1.52-4.67-2.28-.89-.51-1.77-1.89-2.9-2.9-1.14-.89-2.4-1.52-3.54-2.27-1.89-1.52-3.16-4.29-4.92-4.8-.88-.25-2.27 0-3.53-.25-1.89-.38-2.9-1.9-3.91-.76.25 4.29 4.92 5.8 7.44 8.71.63.75.88 1.64 1.51 2.27 1.01 1.01 2.27 1.51 3.15 2.78s.88 3.15 1.76 4.42c1.01 1.64 2.9 2.77 3.91 4.29 1.13 1.77 1.51 3.78 2.52 5.68.63 1.26 2.02 2.27 3.15 3.53 3.02 3.28 5.8 6.31 9.33 8.71 1.38 0 3.02.12 3.91-.38 1.38-1.64 0-4.8 1.01-7.58m-91.82-47.71c-.26.12-.51.25-.63.63-1.14 3.41-1.9 11.99 1.89 12.62 1.89.25 3.78-1.01 4.29-2.15 1.76-3.78-3.79-10.6-5.55-11.11M707 312.17c-.882.76-.756 2.02-1.387 2.78-.63.76-1.767.887-2.27 1.518-.758.888-.758 2.276-1.767 3.538-1.136 1.39-3.15 2.78-4.667 3.538-1.77.886-4.29.76-6.06 2.148-1.26.89-2.4 3.54-2.52 5.05-.26 2.52 1.13 4.92 1.01 7.32-.13 3.28-4.04 5.18-4.42 9.09-.25 1.77.76 3.16 1.01 4.67.25 1.26-.12 2.4.25 3.54.64 2.02 2.65 3.788 5.05 3.91 1.01 0 4.54-.88 5.42-1.39 2.52-1.382 3.03-6.56 4.42-9.84.37-.884 1.13-1.515 1.51-2.525 1.01-2.65 1.77-5.93 3.15-8.96 1.51-3.54 3.15-7.2 3.28-11.49.5-1.01 2.27-1.39 2.52-2.907.12-.51-.51-1.64-.63-2.78-.51-3.41-1.26-8.33-3.91-7.197M671.44 25.55c.758-1.892-3.28-2.27-2.773-.252.51.758 2.15.758 2.78.253M644.85 141.42c.756 1.896 4.16.76 4.413-.755-.63-1.515-4.29-.883-4.415.757m-66.72-10.474c1.387 2.27 4.414 3.16 7.567 3.66 1.135-.88 1.262-2.77 1.766-4.29-2.77 0-7.19-1.01-9.33.63M564 120.6c0 2.146.25 3.535-.253 5.43 1.26 2.396 4.036.25 4.666-1.39 1.01-5.3-1.766-6.816-4.414-4.04m2.52-3.28c.88-.506 1.64-1.263 1.39-2.904-2.02-2.145-3.91 2.4-1.39 2.904m-44.15-49.73c1.13.506 1.76 2.65 3.65 3.66.75.38 1.64.254 2.27.63 1.13.633 2.02 2.02 1.76 3.158-.38 1.64-2.4 1.136-3.53 2.272.12 2.27-1.52 2.524-2.15 4.038.37 1.01 1.76.758 1.89 1.894-.25 1.26-2.4 1.387-1.89 2.775 2.01 1.64 4.28-.378 6.18-.63 4.28-.505 8.82.504 11.47-1.515-.38-2.02 2.14-2.778 1.89-4.67-.13-1.39-2.53-1.516-3.53-2.526-.5-.504-.63-1.767-1.39-2.776-.76-1.136-2.27-2.02-3.15-3.156-1.14-1.51-3.53-3.66-3.53-4.79 0-1.262 1.64-1.64 1.89-3.534-.38-1.64-3.41-.504-3.66-2.27.12-1.137 1.13-1.263 1.13-2.525-.25-.125-.51-.252-1.01-.252-1.01 1.266-2.78.76-4.42 1.39-1.39.507-3.91 2.905-4.29 3.66-.13 1.517.63 3.03.38 5.177"/>
    <path d="M517.206 80.586c1.136-.378 2.775-.252 3.28-1.136.63-1.01.126-2.777.63-4.29.505-1.642 2.144-1.894 1.892-3.283-.252-1.893-4.793-3.155-7.44-1.514-1.515.883-2.02 2.272-3.154 2.776-1.514.63-2.65.12-2.9 1.51-.253 1.13 1.008 1.76 1.008 2.9-.63 1.39-2.27 1.76-2.523 3.53 2.01 3.15 6.68.25 9.2-.51M317.67 233.81c-1.514.253-2.144-2.27-.757-2.902 1.764-.885 2.27 2.65.755 2.902zm-48.432-7.446c-2.017-.126-.252-2.65.38-.757l-.377.753zM192.56 92.072c-1.513.252-1.89-1.39-1.765-2.146 1.26-.757 2.65 1.262 1.766 2.146zm-6.81-28.4c-.126-.756.63-.63 1.135-.63 0 .38.252.38.252.757-.378.63-1.135.5-1.387-.13zm66.594-30.417c3.405-.252 9.333-2.903 10.342 1.388-.757 1.136-2.018.505-3.28.758-3.026.51-6.305 2.4-8.954 1.77.252-1.76 1.135-2.65 1.892-3.91zm10.847 14.767c-.25 1.136-1.76 1.01-2.9 1.39-1.89.63-4.54 1.892-7.56 1.387.13-1.39 2.4-1.65 4.04-2.53 1.39-.76 2.15-2.02 3.53-1.9 1.14-.13 2.02.88 2.9 1.64zm16.53 27.138c3.66-.89 2.15 5.55 0 5.68-3.02.12-2.39-5.05 0-5.68zm7.57-48.347c3.16.38 6.81-.38 8.96.63.51 1.01-.5 1.516-1.13 1.894-3.78-2.776-9.2 1.515-12.86-1.388.25-4.04 3.28-3.66 5.05-1.14zm16.9 65.506c1.77.5 6.44 5.55 2.53 7.19-.38.12-5.67.75-6.56.63-1.38-.26-2.14-2.15-3.53-2.27-2.65-.51-6.3 3.28-8.2.25.51-1.77 2.4-1.77 4.42-2.27 3.79-1.26 8.2-4.42 11.35-3.54zm7.45 9.21c.89.12 2.02 1.13 3.16 1.13 1.01.12 1.89-.51 2.52-.38 1.64.38 2.27 2.9.76 4.04-1.26.12-1.76-.51-2.77-.38-2.65.5-3.65 5.55-5.67 5.42-1.89-.13-2.9-4.67-1.01-6.06.13-1.14-.88-1.39-.75-2.53.63-.63 2.27-1.39 3.79-1.27zm-3.15 15.9c-1.51.5-4.03 1.01-4.29-.63-.25-2.02 2.15-1.52 3.54-1.77 2.27-.26 4.79-1.9 7.57-1.01-1.76 1.64-3.65 2.52-6.81 3.4zm-7.94-11.99c-2.77 1.64-4.41 4.16-5.3 7.82-.25 1.01-2.9 3.78-4.29 3.53-3.02-.63.89-6.31 1.52-7.2.76-1.01 1.77-1.77 2.78-2.91.88-1.01 1.52-2.53 2.27-3.16 1.26-.88 5.55-1.89 6.43-1.01-.12 2.02-1.76 1.89-3.4 2.9zm67.23-91c.26-.26.89-.26 1.14 0-.25.5-.38 1.01-1.13.75v-.76zm24.85 17.8c.13 1.01-.37 1.26-1.38 1.13-.75-.88.51-1.64 1.39-1.14zm-69.74 77.11c1.77-.12 4.42-.38 5.3.38-.63 2.53-6.18 1.89-8.19 1.01.13-1.01 1.64-1.26 2.9-1.39zm120.7 176.2c-1-.38-3.27 0-4.66-.63-4.54-1.77-7.32-7.45-12.11-7.82-1.01-.13-2.02.37-3.15.37-1.89 0-4.67-1.26-6.81-1.52-1.39-.13-3.15.38-3.91 0-1.26-.63-1.39-2.78-2.27-3.54-.76-.51-2.27-.76-3.53-1.14-1.89-.76-3.4-1.65-5.67-1.77-.63 0-1.51.38-2.27.25-1.26-.25-2.14-1.64-3.28-2.27-1.39-.89-2.77-1.26-3.28-2.53 1.26-4.17-2.27-5.3-3.15-7.83-.38-1.14-.25-2.53-.63-3.53-.5-1.39-1.89-2.27-3.53-3.53-2.77-2.15-5.29-4.17-9.33-4.67-1.76-.25-3.53.5-5.67.38-2.27-.13-5.04-2.14-6.81-4.04-1.64-1.89-2.39-3.53-3.91-4.42-1.39-.89-3.15-.89-4.03-1.77-.38-.38-.38-1.01-.76-1.9-.63-1.39-1.76-2.15-1.01-3.91-1.51-.76-1.64 1.51-3.28 1.13-1.51-2.15-2.77-3.16-6.18-2.53-1.51.25-2.39 2.27-4.29 2.27-1.51 0-2.64-1.64-4.66-1.89-1.51-.26-3.15.38-4.29.25-1.64-.38-2.14-1.77-3.66-2.78-1.13-.76-3.28-2.02-3.91-1.9-1.89.12-3.28 4.16-6.05 2.77-1.26-1.64 2.15-2.52.63-4.04-1.13-1.13-2.14.51-3.15 1.14-1.13.76-2.14 1.51-3.28 1.89-2.65 1.01-4.29.5-6.43 1.51-1.89 1.01-2.02 2.65-3.15 4.67-.88 1.64-2.9 4.04-4.29 4.04-1.64.12-3.16-2.27-4.67-2.9-4.41-1.89-6.56 1.64-10.34 1.77-3.41 0-8.33-5.55-8.2-8.71.13-2.02 1.14-4.92 1.39-7.32.25-1.89 1.52-3.03 1.52-4.8 0-2.4-3.15-4.17-4.67-4.42-3.65-.63-8.7 1.51-12.86-.26-.76-1.26.88-2.27 1.39-3.54.25-.76.12-1.77.38-2.52.5-1.26 1.76-2.15 2.27-3.53.38-1.01.5-2.4 1.01-3.66.5-1.39 1.39-2.27 1.51-3.28.13-1.26-.38-2.78-1.38-3.66-3.28.12-5.3.38-7.19 1.13-4.16 1.89-3.4 7.57-7.57 8.96-1.51.51-3.4.51-5.04.76-1.39.25-3.03 1.01-4.41 1.01-1.64 0-4.67-1.64-5.68-2.78-.88-1.01-3.03-5.81-3.28-6.56-1.64-5.68.13-10.98 2.27-14.89.51-.89 1.26-1.64 1.52-2.53.5-1.38.13-3.4.63-4.79.76-2.65 4.29-4.29 6.81-5.68 2.9-1.51 5.3-3.91 8.58-4.04 1.64-.12 4.04.51 5.68.76 1.52.26 2.65 1.27 3.91 1.39 3.53.25 4.42-2.52 7.44-4.04 3.03.38 5.05-.5 7.82-.25 1.9.25 3.16 2.27 4.67 2.27 1.26.13 2.27-1.13 3.53-1.01 1.14.13 3.16 2.65 3.28 4.04.25 1.77-1.26 3.28-.75 5.3 1.89 1.9 5.17 2.27 7.82 3.28 1.64-1.38.26-4.03 0-6.05-.12-.89.13-1.64 0-2.53-.12-1.39-.75-2.65-.75-3.91 0-5.55 4.42-8.08 8.2-10.35 1.64-.88 2.9-2.65 4.29-3.28 2.02-1.01 3.41-1.26 5.05-2.15 2.9-1.64 5.42-3.03 7.82-4.8 1.01-2.52.12-5.93.25-8.33 1.01-.63 2.02.25 3.15.25 1.77-.38 1.89-2.9 2.9-3.91.63-.63 2.14-1.01 2.9-1.51 1.77-1.39 2.4-3.54 3.91-4.04.5-.25 1.89-.13 2.77-.38 1.14-.25 2.77-1.64 4.67-2.27 1.26-.38 4.04-.51 4.42-1.01.63-.63 0-2.27.26-3.16.89-4.42 7.57-5.3 11.48-6.82 2.78-1.01 5.55-2.91 8.58-2.27-.63 2.14-3.41 1.38-2.9 3.91.63 3.53 5.42-1.01 6.56-1.52 2.4-1.01 6.44-1.64 9.59-2.78 2.77-1.01 7.56-2.53 5.04-5.68-2.14-.13-3.15 2.52-5.04 3.28-1.26.25-1.01-1.01-2.14-1.14-1.01-.13-1.64 1.01-2.77.75-1.01-.12-2.52-1.89-2.77-3.15-.38-3.29 2.77-4.55 4.03-6.95-.88-2.9-4.92-.63-7.44-1.77.25-1.77 2.02-2.91 4.03-3.29 1.64-.25 5.42 0 6.43.75.63.51.13 1.77 1.01 2.53 1.01.88 2.27.75 3.53.63.51-2.27-2.9-1.64-2.52-3.16 2.65-1.76 6.93-.25 10.09-.75 1.89-.25 3.78-1.64 5.42-2.52 1.51-.88 3.53-2.4 5.29-1.01.51 1.64-1.38 2.15-2.27 2.9-3.02 2.65-6.05 5.68-8.32 8.71 1.39 1.38 4.04.63 6.44 1.01.88.12 2.14.37 3.15.63 1.14.25 2.4.12 3.28.38 1.64.38 2.02 2.15 3.66 2.15 2.65 0 2.65-2.9 1.14-4.67.5-1.89 1.26-2.78.63-4.04-1.14-2.4-5.55 0-5.8-3.16-.13-1.89 1.63-1.89 2.27-3.28-.38-3.79 3.02-4.04 2.77-7.32-.13-1.39-1.39-1.39-2.27-2.78-.5-.63-.76-2.02-1.39-2.53-2.02-1.77-6.18-1.39-6.43-4.67-.13-1.89.5-3.53.25-5.68-.25-1.89-1.64-7.45-3.28-7.83-2.14-.5-4.41 3.29-6.93 4.42-1.39.64-3.41 1.39-4.92 1.14-.88-.12-2.78-1.51-2.9-3.28-.13-2.02 1.39-2.14 1.76-4.29-.38-1.26-1.64-1.01-2.9-1.89-1.39-1.13-2.52-3.4-4.41-3.66-1.01-.12-2.14.76-3.15.76-2.9.25-5.42-1.89-7.57-1.39-2.65.63-2.52 4.67-5.05 5.43.38 1.89-2.27 3.16-2.52 4.67-.25 1.01.38 2.15.38 3.16.63 9.34-7.06 13.63-16.14 13.38-1.77 1.64-1.39 4.79-2.27 7.19-.76 1.89-3.66 4.04-5.68 3.91-1.39-.13-3.15-2.15-3.15-3.54 0-1.64 2.39-2.52 1.01-4.42.25-1.26 3.02-2.02 2.77-4.04-.38-2.15-3.41-1.01-6.06-1.39-1.89-.25-4.54-1.39-6.18-2.27-2.27-1.26-4.16-3.66-7.19-4.04-1.64-.25-3.28.51-4.03-.38-.88-1.01.38-2.52.38-3.28 0-1.14-2.27-1.51-2.27-2.78-.13-.76 2.14-3.41 2.9-4.04 1.51-1.39 4.29-2.78 6.81-4.04 2.4-1.26 5.17-2.65 7.57-3.53 1.01-.38 2.14-.26 3.15-.63 2.4-.89 4.04-2.65 6.43-3.28 1.26-.38 2.52-.26 3.91-.64 3.28-.76 5.67-3.03 8.32-3.53-.63 2.27-3.15 2.65-3.66 4.79 2.4 4.29 6.43-1.01 9.08-1.01 2.53 0 5.05 3.53 6.56.25-.63-1.77-2.27-2.9-3.91-3.91-1.51-1.01-3.91-1.77-3.66-3.92 1.77-.75 2.53 1.39 4.04 1.39.88 0 2.02-1.01 2.9-1.39 2.02-.63 5.42-.88 6.94-2.27 1.01-.88.75-2.14 1.51-3.28.63-.88 2.27-1.13 2.9-2.14.88-1.13.12-2.14 1.13-2.77 2.27-1.01 5.04.25 7.56 0 1.14-.13 2.02-1.01 3.16-1.01 2.15.13 3.28 3.66 4.92 4.67 1.14.76 3.15.76 3.28 2.14.38 2.78-3.66 3.03-6.18 4.42-1.26.75-1.77 2.27-3.28 2.9-4.16 1.51-10.34-1.77-11.6 2.77 1.89 2.77 5.42-.13 7.82-.25 1.77 0 3.78 1.64 4.92 2.77.88 1.01 1.26 2.9 2.4 3.53.76.38 2.02.26 2.9.63 2.9.88 5.17 2.4 8.33 1.77 1.01-1.9-2.27-2.4-1.01-3.92 2.15.12 3.41 1.13 5.05 1.76 2.27-1.64 3.78-1.76 3.65-4.41 0-2.15-2.9-2.28-2.9-4.8 0-1.39 1.01-2.15 2.14-2.15 2.52-.13 3.28 3.66 5.05 3.91 1.13.12 4.41-1.39 5.04-1.77.88-.51 3.78-2.15 3.91-3.16.12-1.39-3.03-3.28-4.42-3.91-2.15-.88-4.16-.76-5.05-2.52-.51-1.01.25-2.02-.63-2.78-.13-1.01 1.26-1.77 1.01-2.78s-1.39-.89-2.9-1.52c-1.01-.51-2.02-1.52-2.9-1.77-1.26-.25-2.4 0-3.28-.38-3.41-1.26-2.77-4.16-5.05-5.43-2.9.38-5.42-1.01-7.56.25-2.65-1.387-6.56.38-9.97 0-1.01-.12-1.89-.63-2.9-.75-5.04-.5-12.1 2.78-14.12 5.05-.38.38-1.89 2.9-1.51 4.04.63 2.02 4.41.5 5.42 2.52-.25 2.4-2.77 3.66-4.92 4.67-1.89 1.01-4.41 3.41-6.43 2.15-.76-2.15 2.27-2.15 1.51-3.91-.5-1.39-3.02-.5-4.03-1.77-1.51-1.77.25-4.29-.25-6.94 2.14-3.92 10.59-1.77 12.86-5.68-.38-1.27-1.51-.63-2.52-1.01-1.01-.51-1.26-1.39-2.27-1.39s-2.27 1.13-3.53 1.51c-1.39.5-2.78.88-3.66 1.51-2.14 1.39-3.03 4.92-5.68 4.29-.63-2.15 2.4-3.16 2.15-5.05-.63-1.26-2.39-.76-3.65-.63-3.66.38-6.3 1.14-7.82 3.16-1.26-.13-3.02-.89-3.91.25.89 1.51 2.53 3.79 4.42 4.04 1.39.25 2.77-1.01 4.03 0 .38 2.02-2.39 2.02-2.52 4.04 0 1.26 1.51 1.89 1.39 3.15-.25 1.64-4.54 3.66-6.18 2.78 0-1.9 2.52-1.39 2.52-3.16 0-.76-1.26-1.77-2.15-1.9-1.64-.25-4.16.89-5.3 1.89-.88.89-.88 2.53-1.89 3.29-1.77 1.14-4.04.51-6.05.63-3.91.13-6.18.26-8.95-1.13-.76-.38-2.52-1.14-2.27-2.53 3.03-.12 5.93 1.39 9.46.76 1.26-.26 1.77-1.39 2.9-1.9 1.26-.63 2.9 0 3.28-1.39-.13-2.4-2.9-1.64-3.15-3.54-.13-1.01 1.51-3.28 2.52-4.29 1.14-1.14 3.28-1.26 3.66-2.78-1.01-2.02-3.03.13-4.67.38-1.01.13-1.89-.25-2.77 0-2.02.51-3.03 2.27-4.29 2.9-1.39-.25-1.51-1.64-2.9-1.89-1.77 1.27-3.28.38-5.05 0-.88-.25-2.02-.25-2.77-.38-1.64-.5-2.52-2.39-4.41-2.9-1.13-.38-3.02 0-4.92-.25-3.27-.38-6.18-1.39-8.95-1.01-3.28.51-5.42 2.78-8.2 3.92-3.28 1.26-8.95 3.03-4.41 5.8 4.42-.13 8.2-2.02 12.11-2.146.38 2.39-1.26 4.29-2.14 6.05-.63 1.27-.502 2.02-1.132 2.53-2.78 1.89-7.7-1.65-11.23-2.15-2.02-.25-3.66.5-5.42.63-1.89 0-3.53-.88-5.3 0-1.51-.507-1.26-2.27-2.77-2.52-1.14-.13-2.27 1.01-3.28 1.13-1.01.13-1.89-.25-2.9-.25-1.89.123-4.04.88-6.18 1.39-2.4.5-4.67.25-6.94.374-3.15.25-6.56 1.89-9.46 1.52-1.64-.13-2.9-1.64-4.41-1.89-1.136-.26-2.397 0-3.53-.26-1.26-.25-2.146-.76-3.28-1.01-2.9-.51-6.31 0-9.33-.38-1.26-.13-2.39-1.01-3.65-1.14-1.39-.25-3.03.25-4.42 0-.88-.13-1.76-.76-2.77-1.01-1.26-.25-2.52 0-3.66-.25-1.26-.258-2.27-1.14-3.53-1.14-1.89-.13-3.53.88-5.3 1.13-1.89.38-3.66.25-5.68.38-2.39.26-4.92 1.27-7.56 1.52-2.65.38-5.04 1.01-7.44 1.89-2.65 1.14-4.79 1.513-7.44 1.89-2.27.38-5.29 0-6.93 2.273.38 1.64 1.76 3.28 1.13 5.3-1.26 2.78-4.16.26-6.43.26-2.02-.13-5.3.75-7.57 1.13-2.39.51-5.8 1.14-5.67 3.28.25 3.54 8.58.76 10.72 2.27.38 2.65-3.53 2.14-6.18 2.52-1.26.13-2.52 1.14-3.53 1.14-1.01.12-2.02-.38-2.777-.38-1.89.123-3.53 1.39-6.054 2.143-1.51.51-5.55 1.64-5.67 2.78-.13 1.64 4.16 3.03 6.43 4.04 3.025 1.39 4.79 2.27 7.566 2.9 3.02.63 8.45.51 11.47.26 1.14-.13 2.53-.63 3.28-.63 1.89.13 1.89 1.64 3.53 1.77 1.9.13 2.78-1.14 4.67-1.51 1.9-.38 4.29-.13 6.18-1.01 1.9-.89 2.65-2.4 4.04-2.53 2.27-.12 3.41 2.15 5.8 2.53 3.91.76 7.07-.25 9.97 1.14 2.27 1.13 3.4 4.54 4.41 5.8.5.63-1.26 2.02-1.39 2.9-.12.63.38 1.51.38 2.27-.13 2.02-1.64 3.41-.38 4.42 1.39 1.14 3.79-1.64 5.05.25 1.26 1.89-1.26 2.53-1.51 4.29-.38 2.02.63 3.92.63 5.81 0 .88-.25 2.78-.63 3.53-.63 1.39-2.52 1.39-2.78 2.78-.25 2.27 3.28 3.78 3.53 5.68.13 1.39-1.13 3.78-1.51 4.79-1.26 3.03-3.41 5.68-5.68 8.33-2.14 2.52-5.17 4.8-6.56 7.32-.76 1.39-.89 3.03-1.52 4.29-1.01 1.89-2.78 2.77-3.66 4.67-.38 2.65-.13 5.05 0 7.57.12 2.52-.13 5.05.25 7.32.12 1.26.63 3.78 1.39 5.05.88 1.39 2.14 1.01 3.91 1.89 1.26.76 3.28 2.52 3.65 3.91.5 1.52.25 3.66.38 5.68.13 2.02.25 4.42.76 5.81.5 1.64 3.15 3.15 3.15 5.05 0 1.76-2.4 1.89-2.4 3.66 0 2.77 5.55 2.9 6.18 5.68.38 1.382-.63 2.9-.38 4.04.38 1.39 2.65 2.52 3.28 3.16 1.14 1.01 1.9 2.9 3.66 2.52 1.39-1.77-1.13-3.158-1.76-4.67-.76-1.64-.76-4.54-1.51-7.19-.51-1.64-2.02-3.03-2.52-4.42-.51-1.52-.38-3.16-1.01-4.42-.51-1.26-2.4-3.03-2.53-4.29-.63-4.67 4.29-6.19 5.68-2.78.88 2.14-.38 4.04 0 6.18.25 1.77 2.52 3.41 3.66 5.05 1.26 1.77 2.27 3.53 3.53 4.67.13 1.26.13 1.512 0 2.78 1.64 1.89 3.41 3.66 5.05 5.68 2.15 2.772 5.55 6.06 5.05 10.73-.124 1.512-1.64 2.78-1.51 4.29 0 1.26 1.64 2.902 3.154 3.912 1.51 1.13 2.9 2.27 4.034 2.9.88.38 2.39.5 3.53 1.01 1.39.63 2.52 2.14 4.038 2.9 2.02 1.01 4.67 1.64 6.94 2.77 2.27 1.01 5.42 2.53 7.19 2.53 1.89 0 3.78-1.89 5.8-1.89 4.79-.13 6.81 6.06 10.72 7.95 1.01.5 2.27.5 3.53.76 1.01.25 1.77.63 2.78 1.01 2.02.75 4.54.63 6.18 1.38 2.53 1.133 4.29 5.68 6.44 6.94.12 1.26-.25 2.9.25 3.91 1.01 1.39 2.4 1.01 4.04 1.89 2.02 1.01 2.65 3.79 4.415 4.67.63.252 2.27.252 3.28.63 2.52.76 3.41 3.79 5.68 3.16 1.39-.38 1.39-1.89 1.52-3.28 1.01-1.01 2.02-2.65 3.54-2.78 2.4 0 2.65 2.53 3.53 4.8.51 1.26 1.77 2.52 2.15 3.91.63 2.4.25 9.59-.25 11.11-.63 1.77-3.03 2.52-4.414 4.42-.63.88-1.01 2.27-1.51 2.9-1.01 1.13-2.4 1.51-3.158 2.52-.38.63-.76 1.89-1.13 2.78-1.13 2.523-2.77 4.17-1.76 7.193.38 1.26 2.27 2.02 2.27 3.53 0 1.64-3.66 3.15-3.91 5.05-.25 1.39 1.13 3.78 1.51 5.68.38 1.39 2.9 2.14 3.66 3.15 1.38 1.52 2.39 3.66 3.65 5.68 2.52 3.79 4.42 8.33 6.81 11.99 1.26 1.9 3.03 3.66 3.91 5.68.38 1.01.38 2.15.76 3.16 1.39 3.16 7.57 6.44 10.72 7.95 1.51.76 3.15 1.01 4.41 1.77 2.02 1.14 6.18 4.17 7.19 6.06.89 1.64 1.52 5.56 1.89 8.21.63 3.408 0 6.06.26 9.72.125 2.02.76 4.04.76 6.06 0 .76-.38 1.26-.38 1.89-.13 2.4.63 5.18.38 7.57-.13 1.39-.51 2.4-.38 3.54.123 1.26.63 2.27.76 3.28.12 1.13-.25 2.65-.25 3.53.25 2.4 2.01 4.42 2.52 6.56.38 1.77.63 5.43.38 7.57-.13 1.14-.76 2.27-1.01 3.54-.13 1.01.12 2.02 0 2.9-.26 1.39-1.01 2.4-1.01 3.66.12 2.65 3.02 4.8 3.53 7.32.12.89-.25 1.9-.25 2.78.12 1.64.75 2.907 1.13 4.42.5 2.27 0 5.3 2.27 6.44 2.39-.76-.51-3.41 1.01-4.67 2.77.88 1.89 5.3 2.77 8.2-1.13.76-2.39-.76-3.15.63-.63 1.14.89 2.27 1.01 3.16.13 1.39-1.01 3.03-.75 4.04.37 1.64 3.4 1.39 3.91 2.77.5 1.52-1.01 2.53-1.01 4.04 0 1.64 2.02 4.42 3.66 6.56.75 1.01 1.89 1.64 2.52 2.53.63.76.88 2.27 1.51 2.9.63.76 2.27 1.01 3.28 1.77 1.64 1.14 3.53 3.91 5.3 4.8.76.38 1.77.505 2.78 1.01 1.26.504 2.52 1.514 3.66 1.89 3.15 1.13 6.3 1.89 8.95 3.15h2.78c.5-.374 2.39-.374 2.9 0h.38c1.51-.5 3.15-.88 3.53-2.52-1.14-2.78-5.3-2.4-7.95-3.91-1.77-1.01-3.54-3.16-4.92-4.67-1.39-1.52-4.04-3.54-4.04-5.43 0-1.513 1.64-1.89 1.89-3.28.25-1.01-.38-1.26 0-2.52.76-2.27 3.03-2.27 2.9-4.67-.12-3.91-7.56-2.27-7.82-6.18-.12-2.65 3.79-2.53 4.29-5.05.25-1.14-.38-1.64-.38-3.537.38-1.9 2.53-2.15 2.9-4.04-.76-1.39-2.65-.51-3.91-1.14-1.14-.63-1.77-2.27-1.52-3.66 2.02-.886 5.93 2.02 7.44-.76.76-1.39-.75-4.67.26-6.06.63-.88 4.42-.88 5.8-1.13 2.02-.38 4.42-.76 5.68-1.52 1.26-.89 3.16-3.28 2.9-5.68-.12-1.14-.88-1.52-1.76-2.53-.76-.89-1.01-1.9-1.51-2.78-.89-1.39-2.27-1.14-2.78-3.16 2.77-.51 7.06 2.27 11.1 1.13 1.89-.51 4.54-4.67 5.42-6.44.25-.506.25-1.39.63-2.15s1.01-1.39 1.13-1.77c.25-1.01.13-1.89.38-2.52.75-2.02 2.52-2.65 3.65-4.04.89-1.14 1.27-2.4 2.15-3.53.88-1.14 1.77-2.27 2.27-3.28.63-3.54-1.39-6.06-.63-9.09.88-3.53 5.8-5.55 9.08-7.19 1.14-.51 2.4-1.39 3.28-1.77 2.4-.76 5.3-.38 7.44-1.14 3.66-1.39 4.04-5.18 5.8-8.58.89-1.52 2.02-3.16 2.15-4.3.12-1.01-.38-1.89-.26-3.154.13-1.14 1.26-2.15 1.51-3.53.38-1.64.63-4.16.63-6.06 0-1.51-.75-2.9-.75-4.29-.25-5.05 1.77-5.55 3.66-8.33.88-1.39 1.26-2.9 1.89-3.91 3.15-4.67 8.57-6.94 8.19-14.01.13-2.14-1.26-7.44-3.03-8.2z"/>
    <path d="M382.883 28.206c-1.387-2.27-6.054 0-5.675 1.767.63 2.272 6.054 0 5.675-1.767m-35.945 16.282c-.757.505-.883 1.136-.757 1.515.38 2.02 4.29.252 4.29-.757 0-1.01-2.52-1.39-3.53-.758M181.09 74.654c-1.01-1.893-3.657-.505-3.657 1.388.25.38.63.63 1.01 1.01 1.134-.63 2.143-1.136 2.647-2.398"/>
  </g>
</svg>
