<svg xmlns="http://www.w3.org/2000/svg" width="22" height="16" viewBox="0 0 22 16" xmlns:xlink="http://www.w3.org/1999/xlink">
  <defs>
    <rect id="a" width="22" height="16" rx="3"/>
  </defs>
  <g fill="none" fill-rule="evenodd">
    <mask id="b" fill="#fff">
      <use xlink:href="#a"/>
    </mask>
    <use fill="#FFF" xlink:href="#a"/>
    <path fill="#ED5565" d="M0 0h22v16H0z" mask="url(#b)"/>
    <path fill="#F6D660" d="M10.70001 4.657047l-.658362.405114.014363-.7847-.40479-.67239.772717.021658.65836-.405114-.014362.784703.40479.67239-.772714-.021658zM8.756744 2.48791l-.76265-.12618.52565-.5828.13563-.773026.568966.523292.76265.12618-.52565.5828-.13563.773026-.568965-.523292zm.38973 6.964006l-.64382.427843-.013033-.784728-.42801-.657855.773-.005323.64382-.427843.013035.784726.42801.657854-.773.005323zm1.322884-2.118132l-.767886.088923.344646-.705112-.0827-.780465.691164.346192.767886-.088923-.344647.70511.0827.780465-.691162-.346193zm-5.3713-.723544L3.183353 8l.706463-2.283562L2 4.291796l2.351323-.021557L5.098058 2l.746735 2.27024 2.351324.021556L6.3063 5.716438 7.012765 8" mask="url(#b)"/>
  </g>
</svg>
