<svg xmlns="http://www.w3.org/2000/svg" width="22" height="16" viewBox="0 0 22 16" xmlns:xlink="http://www.w3.org/1999/xlink">
  <defs>
    <rect id="a" width="22" height="16" rx="3"/>
  </defs>
  <g fill="none" fill-rule="evenodd">
    <mask id="b" fill="#fff">
      <use xlink:href="#a"/>
    </mask>
    <use fill="#FFF" xlink:href="#a"/>
    <path fill="#ED5565" d="M0 0h22v3H0zm0 6h22v4H0zm0 7h22v3H0z" mask="url(#b)"/>
    <path fill="#4A89DC" d="M0 0h12v10H0z" mask="url(#b)"/>
    <path fill="#FFF" d="M2.951057 7.39l-.587786.419017.216876-.6885L2 6.690983l.72182-.0065L2.951057 6l.229236.684483.72182.0065-.580144.429534.21687.6885L2.951057 7.39zM6 7.39l-.587785.419017.216873-.6885-.580145-.429534.72182-.0065L6 6l.229236.684483.72182.0065-.580144.429534.216873.6885L6 7.39zm3 0l-.587785.419017.216873-.6885-.580145-.429534.72182-.0065L9 6l.229236.684483.72182.0065-.580144.429534.216873.6885L9 7.39zm-6.048943-2l-.587786.419017.216876-.6885L2 4.690983l.72182-.0065L2.951057 4l.229236.684483.72182.0065-.580144.429534.21687.6885L2.951057 5.39zM6 5.39l-.587785.419017.216873-.6885-.580145-.429534.72182-.0065L6 4l.229236.684483.72182.0065-.580144.429534.216873.6885L6 5.39zm3 0l-.587785.419017.216873-.6885-.580145-.429534.72182-.0065L9 4l.229236.684483.72182.0065-.580144.429534.216873.6885L9 5.39zm-6.048943-2l-.587786.419017.216876-.6885L2 2.690983l.72182-.0065L2.951057 2l.229236.684483.72182.0065-.580144.429534.21687.6885L2.951057 3.39zM6 3.39l-.587785.419017.216873-.6885-.580145-.429534.72182-.0065L6 2l.229236.684483.72182.0065-.580144.429534.216873.6885L6 3.39zm3 0l-.587785.419017.216873-.6885-.580145-.429534.72182-.0065L9 2l.229236.684483.72182.0065-.580144.429534.216873.6885L9 3.39z" mask="url(#b)"/>
  </g>
</svg>
