<svg xmlns="http://www.w3.org/2000/svg" width="60" height="29" viewBox="0 0 60 29">
  <g fill="none" fill-rule="evenodd" transform="translate(0 -19)">
    <rect width="38" height="38" x="17" y="31" fill="none"/>
    <g transform="translate(0 16)">
      <rect width="38" height="38" x="21" fill="none"/>
      <g fill="#15C26B" transform="translate(0 3)">
        <path d="M43.1592951 0L22.9154049 0C21.443122 0 20.5229452 1.47945205 21.2590867 2.46575342L31.3810318 17.260274C32.1171732 18.2465753 33.7734915 18.2465753 34.509633 17.260274L44.6315781 2.46575342C45.5517549 1.47945205 44.6315781 0 43.1592951 0L43.1592951 0zM26.2280415 3.28767123L39.8466586 3.28767123 33.03735 13.3150685 26.2280415 3.28767123 26.2280415 3.28767123zM16.9518579 4.87354409C16.2259289 3.70881864 14.5925888 3.70881864 13.8666599 4.87354409L.255492331 26.5041597C-.470436606 27.6688852.436974565 29 1.88883244 29L29.1111676 29C30.5630254 29 31.4704366 27.6688852 30.7445077 26.5041597L16.9518579 4.87354409 16.9518579 4.87354409zM25.8444873 25.672213L4.97403042 25.672213 15.5 9.03327787 25.8444873 25.672213 25.8444873 25.672213zM59.7370819 26.5342466L49.5699471 11.739726C48.8305191 10.7534247 47.1668061 10.7534247 46.4273781 11.739726L36.2602434 26.5342466C35.5208154 27.6849315 36.4451003 29 37.9239563 29L58.2582259 29C59.5522249 29 60.4765098 27.5205479 59.7370819 26.5342466L59.7370819 26.5342466zM54.745943 25.7123288L41.0665253 25.7123288 47.9062341 15.6849315 54.745943 25.7123288 54.745943 25.7123288z"/>
      </g>
    </g>
  </g>
</svg>
