<svg xmlns="http://www.w3.org/2000/svg" width="29" height="44" viewBox="0 0 29 44">
  <g fill="none" fill-rule="evenodd" transform="translate(-15 -5)">
    <path stroke="#02B3E4" stroke-width="2" d="M38.902303,31.1396078 L34.9878049,39.1034483 L24.0121951,39.1034483 L20.059745,31.1113556 L20.0724142,31.1113556 C17.4770694,28.2030383 16,24.03276 16,19.4001604 C16,10.6109937 21.3167565,6.51724138 29.5,6.51724138 C37.6832435,6.51724138 43,10.6109937 43,19.4001604 C43,24.0477819 41.5133358,28.2300791 38.902303,31.1396078 Z" stroke-linejoin="round"/>
    <path fill="#02B3E4" d="M29.8463135 38.1724138L29.1472878 38.1892047 27.2402344 29.7931034 31.7696533 29.7931034 29.8463135 38.1724138zM25.0217659 29.0552625L27.3550992 39.2966418C27.4531064 39.7268115 27.861019 40.0344828 28.3333333 40.0344828L30.6666667 40.0344828C31.138981 40.0344828 31.5468936 39.7268115 31.6449008 39.2966418L33.9782341 29.0552625C34.1101647 28.4761979 33.6357969 27.9310345 33 27.9310345L26 27.9310345C25.3642031 27.9310345 24.8898353 28.4761979 25.0217659 29.0552625zM35 42.8275862C35.5522847 42.8275862 36 42.4107479 36 41.8965517 36 41.3823556 35.5522847 40.9655172 35 40.9655172L25 40.9655172C24.4477153 40.9655172 24 41.3823556 24 41.8965517 24 42.4107479 24.4477153 42.8275862 25 42.8275862L35 42.8275862zM35 45.6206897C35.5522847 45.6206897 36 45.2038513 36 44.6896552 36 44.175459 35.5522847 43.7586207 35 43.7586207L25 43.7586207C24.4477153 43.7586207 24 44.175459 24 44.6896552 24 45.2038513 24.4477153 45.6206897 25 45.6206897L35 45.6206897zM32 48.4137931C32.5522847 48.4137931 33 47.9969548 33 47.4827586 33 46.9685625 32.5522847 46.5517241 32 46.5517241L28 46.5517241C27.4477153 46.5517241 27 46.9685625 27 47.4827586 27 47.9969548 27.4477153 48.4137931 28 48.4137931L32 48.4137931z"/>
  </g>
</svg>
