<svg xmlns="http://www.w3.org/2000/svg" width="60" height="30" viewBox="0 0 60 30">
  <g fill="none" fill-rule="evenodd" transform="translate(-3 -15)">
    <rect width="38" height="38" x="13" y="31" fill="none"/>
    <path fill="#02B3E4" d="M62.7771952,43.2219403 L61.7869517,41.4064939 L61.7869517,41.4064939 L61.7869517,41.4064939 L47.9235424,16.4853653 C47.4284206,15.6601623 46.4381771,15.1650406 45.6129742,15 C45.6129742,15 45.6129742,15 45.4479336,15 L45.4479336,15 L43.302406,15 L43.302406,15 L22.6723327,15 L22.6723327,15 L20.526805,15 L20.526805,15 C20.526805,15 20.526805,15 20.3617644,15 C19.5365615,15 18.546318,15.6601623 18.0511962,16.4853653 L4.18778695,41.4064939 L4.18778695,41.4064939 L4.18778695,41.4064939 L3.19754343,43.2219403 C2.70242167,44.0471433 3.19754343,44.7073056 4.02274636,44.7073056 L6.16827398,44.7073056 L6.16827398,44.7073056 L28.7788344,44.7073056 C29.6040373,44.7073056 30.7593214,44.0471433 31.2544432,43.2219403 L32.904849,40.2512098 L34.5552549,43.2219403 C35.0503766,44.0471433 36.0406202,44.7073056 37.0308637,44.7073056 L59.6414241,44.7073056 L59.6414241,44.7073056 L61.7869517,44.7073056 C62.9422358,44.7073056 63.272317,44.0471433 62.7771952,43.2219403 L62.7771952,43.2219403 Z M41.4869595,18.3008117 L33.0698896,33.4845457 L24.6528197,18.3008117 L41.4869595,18.3008117 L41.4869595,18.3008117 Z M28.6137938,41.4064939 L8.14876102,41.4064939 L21.0219268,18.4658523 L31.2544432,36.950398 L28.6137938,41.4064939 L28.6137938,41.4064939 Z M37.5259854,41.4064939 L35.0503766,36.950398 L45.282893,18.4658523 L58.1560588,41.4064939 L37.5259854,41.4064939 L37.5259854,41.4064939 Z"/>
  </g>
</svg>
