<svg xmlns="http://www.w3.org/2000/svg" width="74" height="73" viewBox="0 0 74 73">
  <defs>
    <linearGradient id="a" x1="0%" x2="65.095%" y1="125.354%" y2="-6.919%">
      <stop stop-color="#04DAF4" offset="0%"/>
      <stop stop-color="#02B3E4" offset="100%"/>
    </linearGradient>
    <linearGradient id="b" x1="69.849%" x2="1.848%" y1="7.282%" y2="215.997%">
      <stop stop-color="#04DAF4" offset="0%"/>
      <stop stop-color="#02B3E4" offset="100%"/>
    </linearGradient>
  </defs>
  <g fill="#FFFFFF" fill-rule="evenodd" stroke-width="3" transform="scale(-1 1) rotate(-45 -6.036 115.497)">
    <path stroke="url(#a)" d="M27.6416173,52.4227109 C42.3946259,52.4227109 54.3543024,40.7961213 54.3543024,26.4539961 C54.3543024,12.111871 42.3946259,0.485281374 27.6416173,0.485281374 C12.8886087,0.485281374 0.928932188,12.111871 0.928932188,26.4539961 C0.928932188,40.7961213 12.8886087,52.4227109 27.6416173,52.4227109 Z M28.378519,53.3181838 L28.378519,59.5864943 L28.5627444,59.5864943 L28.5627444,53.3181838 L28.378519,53.3181838 Z M24.8782361,59.5864943 L32.2472527,59.5864943 L32.2472527,82.8687903 L24.8782361,82.8687903 L24.8782361,59.5864943 Z M25.7993631,73.7349665 L31.6208864,73.7349665 L31.6208864,73.9140611 L25.7993631,73.9140611 L25.7993631,73.7349665" stroke-linejoin="round"/>
    <path stroke="url(#b)" d="M13.7711974,26.2139498 C15.2207768,23.500137 16.0398823,20.416962 16.0398823,17.1478029 C16.0398823,12.7112105 14.5313077,8.61715149 11.9856294,5.32396581" stroke-linecap="round" transform="rotate(-135 14.013 15.769)"/>
  </g>
</svg>
