<svg xmlns="http://www.w3.org/2000/svg" width="190" height="72" viewBox="0 0 190 72" xmlns:xlink="http://www.w3.org/1999/xlink">
  <defs>
    <path id="a" d="M0 39.758h189.937V.276H0z"/>
  </defs>
  <g fill="none" fill-rule="evenodd">
    <path fill="#E8752B" d="M27.308 37.05h-5.646v5.982h-2.22V37.05h-5.646v-2.126h5.647v-5.982h2.22v5.982h5.645"/>
    <path fill="#C61F34" d="M15.957 44.692H10.9v-5.357H8.982v5.357H3.925v1.632h5.058v5.357H10.9v-5.35h5.057"/>
    <path fill="#58869A" d="M37.18 25.532h-5.06V20.15h-1.914v5.382h-5.058v1.632h5.058v5.332h1.915v-5.332h5.06"/>
    <path fill="#5A6591" d="M19.768 46.9v3.735h-3.433v1.443h3.433v3.735h1.635v-3.735h3.432v-1.443h-3.432V46.9"/>
    <path fill="#EB912B" d="M15.957 25.53h-5.12v-5.38H9.045v5.38h-5.12v1.585h5.12v5.38h1.794v-5.38h5.12"/>
    <path fill="#5A6591" d="M41.066 35.267h-3.432V31.53H36v3.737h-3.433v1.442H36v3.73h1.634v-3.73h3.432"/>
    <path fill="#1E437D" d="M37.18 44.692h-5.06v-5.357h-1.914v5.357h-5.058v1.632h5.058v5.357h1.915v-5.35h5.06"/>
    <path fill="#6F99A5" d="M19.974 16.33v3.667H16.58v1.11h3.394v3.664h1.222v-3.66h3.395V20H21.2v-3.665M3.408 31.815v3.595H0v1.155l3.407-.02v3.614h1.2v-3.63l3.406-.02v-1.1H4.606v-3.6"/>
    <g transform="translate(0 16.056)">
      <path fill="#1E437D" d="M105.87 26.33c-.728 0-1.484-.142-2.292-.43v-6.586c.664-.296 1.572-.62 2.53-.62 2.202 0 3.614 1.438 3.614 3.833 0 2.437-1.405 3.804-3.852 3.804zm.74-9.986c-.702 0-1.798.14-3.032.612V10.63h-2.622l.075 17.247c1.57.517 3.06.803 4.58.803 4.39 0 6.87-2.28 6.87-6.18 0-3.76-2.36-6.156-5.86-6.156z"/>
      <mask id="b" fill="#fff">
        <use xlink:href="#a"/>
      </mask>
      <path fill="#1E437D" d="M122.517 30.845h2.595V8.21h-2.595m16.065 12.95c.513-1.582 1.992-2.54 3.52-2.443 1.516.095 2.368.897 2.435 2.442h-5.955zm3.105-4.786c-3.548 0-5.875 2.487-5.996 5.99-.11 3.248 1.84 5.985 5.83 6.363 2.04.193 3.65-.133 5.2-.867v-2.413c-1.17.72-3.34 1.06-4.88.944-1.84-.13-3.2-1.17-3.41-3.37h8.96c.19-3.96-1.97-6.64-5.69-6.64zm40.118 7.716V16.6h-2.62v7.804c0 2.608 2.077 4.2 5.375 4.2 3.3 0 5.377-1.592 5.377-4.2V16.6h-2.622v7.49c0 1.83-1.11 2.646-2.754 2.646-1.64 0-2.75-.816-2.75-2.647m-96.13 1.96c-.92.22-1.64.27-2.24.28-2.44.03-3.85-1.37-3.85-3.81 0-2.4 1.41-3.84 3.61-3.84.88 0 1.69.26 2.53.82l-.05 6.53zm.05-9.77v.86c-.87-.56-1.85-.81-3.03-.81-3.5 0-5.86 2.39-5.86 6.15 0 3.9 2.49 6.19 6.87 6.18 1.66-.01 3.48-.34 4.58-.81l.08-11.59h-2.62zm80.63 9.76c-.92.22-1.72.27-2.24.28-2.44 0-3.85-1.37-3.85-3.81 0-2.4 1.42-3.84 3.62-3.84.88 0 1.69.26 2.53.82l-.05 6.53zm.05-9.77v.86c-.87-.56-1.85-.81-3.03-.81-3.5 0-5.86 2.39-5.86 6.15 0 3.9 2.49 6.192 6.87 6.18 1.66-.006 3.47-.337 4.578-.804l.07-11.59h-2.62zM57.76 18.62h-7.01v2.36h7.01v7.784h2.596V20.98h7.01v-2.358h-7.01v-7.18H57.76" mask="url(#b)"/>
    </g>
  </g>
</svg>
