<svg xmlns="http://www.w3.org/2000/svg" width="112" height="72" viewBox="0 0 112 72" xmlns:xlink="http://www.w3.org/1999/xlink">
  <defs>
    <path id="a" d="M0 40.834h111.92V0H0z"/>
  </defs>
  <g fill="none" fill-rule="evenodd" transform="translate(0 20)">
    <path fill="#222C37" d="M62.503 12.36h-3.907v9.054c0 2.33-.955 4.184-3.76 4.184-2.773.03-3.578-1.883-3.578-4.304V12.36H47.35v9.92c0 2.87 1.014 6.964 6.384 6.994 2.953.03 4.414-1.405 5.1-2.69v2.182h3.67V12.36zm1.554 16.406h3.908V19.71c0-2.3.954-4.153 3.728-4.183 2.745 0 3.55 1.882 3.55 4.333v8.906h3.907v-9.892c0-2.9-1.014-6.993-6.353-7.023-2.923-.03-4.385 1.41-5.1 2.69.03-.77.03-1.46.03-2.18h-3.67v16.41z"/>
    <mask id="b" fill="#fff">
      <use xlink:href="#a"/>
    </mask>
    <path fill="#222C37" d="M80.644 28.766h3.908V12.36h-3.908v16.406zm0-18.62h3.908V6.652h-3.908v3.497zm8 18.62h3.907v-13.39h2.81L94.2 12.36h-1.65V6.65h-3.906v5.71H85.93v3.017h2.714m10.48 19.127h4.176l8.62-22.145h-4.175l-3.937 10.9-3.998-10.9h-4.176l6.175 15.775m-75.89-7.72l7.13-12.34 3.447 12.34-3.447 12.337-7.13-12.337zm-3.48 2.005l7.137 12.34-12.425-3.19-8.976-9.148h14.27zm7.13-16.35l-7.13 12.34H8.182l8.975-9.15 12.42-3.19zm10.19 10.15L35.41 0 19.17 4.347l-2.405 4.235-4.88-.035L0 20.42l11.888 11.87 4.877-.037 2.408 4.235 16.24 4.346 4.35-16.216-2.47-4.2 2.47-4.2z" mask="url(#b)"/>
  </g>
</svg>
