<svg xmlns="http://www.w3.org/2000/svg" width="84" height="72" viewBox="0 0 84 72">
  <path fill="#1FBEFF" fill-rule="evenodd" d="M13.836 47.29c-.024.097-.12.145-.285.145h-3.17c-.19 0-.35-.084-.5-.252l-5.24-6.71-1.46 1.4v5.203c0 .24-.12.36-.35.36H.36c-.24 0-.358-.12-.358-.36V23.36c0-.24.12-.36.357-.36h2.46c.23 0 .35.12.35.36v14.6l6.27-6.386c.16-.167.33-.252.5-.252h3.28c.14 0 .23.06.28.18.05.143.03.25-.04.323l-6.63 6.458 6.915 8.647c.097.096.12.216.074.36m10.005-7.355c-2.33.24-3.925.55-4.78.933-1.166.503-1.69 1.22-1.57 2.153.07.53.333.96.784 1.28.45.33.98.51 1.57.56 1.67.12 3-.32 4-1.32v-3.59zm2.85 7.5h-2.46c-.26 0-.393-.12-.393-.36v-.502c-1.05.79-2.39 1.184-4.03 1.184-1.5 0-2.796-.466-3.89-1.4-1.07-.955-1.605-2.175-1.605-3.658 0-2.35 1.45-3.94 4.35-4.78 1.14-.34 2.863-.62 5.17-.86.07-.89-.16-1.64-.697-2.26-.534-.63-1.313-.94-2.335-.94-1.34 0-2.69.48-4.07 1.43-.22.12-.37.09-.47-.07l-1.28-1.83c-.12-.15-.082-.31.108-.5 1.833-1.27 3.74-1.9 5.71-1.9 1.52 0 2.813.36 3.883 1.07 1.57 1.05 2.354 2.74 2.354 5.06v9.94c0 .24-.12.36-.354.36zm13.7-11.015c-.595-1.53-1.974-2.297-4.136-2.297-2.78 0-4.17 1.747-4.17 5.24 0 1.936.47 3.348 1.39 4.233.69.694 1.58 1.04 2.68 1.04 2.23 0 3.646-.765 4.24-2.296v-5.92zm1.23 17.24c-1.296 1.35-3.13 2.027-5.51 2.027-1.38 0-2.685-.347-3.92-1.04-.263-.168-.57-.39-.928-.664-.36-.275-.78-.616-1.25-1.023-.17-.143-.18-.322-.04-.538l1.67-1.686c.07-.072.166-.108.285-.108.092 0 .175.036.25.108 1.33 1.34 2.623 2.01 3.883 2.01 2.877 0 4.316-1.508 4.316-4.522v-1.866c-1.113.933-2.6 1.4-4.453 1.4-2.3 0-4.11-.873-5.42-2.62-1.14-1.53-1.71-3.456-1.71-5.776 0-2.2.55-4.066 1.64-5.598 1.288-1.84 3.107-2.762 5.46-2.762 1.783 0 3.28.466 4.493 1.4v-.718c0-.24.12-.36.36-.36h2.46c.24 0 .36.12.36.36v16.04c0 2.605-.65 4.584-1.944 5.936zm15.54-17.24c-.595-1.53-1.974-2.297-4.136-2.297-2.788 0-4.18 1.747-4.18 5.24 0 1.936.466 3.348 1.39 4.233.69.694 1.584 1.04 2.677 1.04 2.234 0 3.65-.765 4.244-2.296v-5.92zm1.23 17.24c-1.296 1.35-3.13 2.027-5.51 2.027-1.378 0-2.686-.347-3.92-1.04-.263-.168-.57-.39-.928-.664-.358-.275-.774-.616-1.25-1.023-.166-.143-.178-.322-.035-.538l1.67-1.686c.07-.072.16-.108.28-.108.09 0 .18.036.25.108 1.33 1.34 2.62 2.01 3.88 2.01 2.873 0 4.312-1.508 4.312-4.522v-1.866c-1.12.933-2.6 1.4-4.46 1.4-2.3 0-4.11-.873-5.42-2.62-1.14-1.53-1.71-3.456-1.71-5.776 0-2.2.55-4.066 1.64-5.598 1.287-1.84 3.1-2.762 5.46-2.762 1.782 0 3.28.466 4.492 1.4v-.718c0-.24.116-.36.354-.36h2.46c.238 0 .357.12.357.36v16.04c0 2.605-.648 4.584-1.943 5.936zm7.415-6.226h-2.46c-.24 0-.356-.12-.356-.358V23.36c0-.24.12-.36.357-.36h2.46c.237 0 .356.12.356.36v23.716c0 .24-.12.358-.355.358m13.26-12.558c-.81-.74-1.786-1.112-2.927-1.112-1.07 0-2.01.36-2.816 1.076-.81.718-1.32 1.65-1.53 2.8h8.6c-.02-1.1-.46-2.022-1.32-2.764zm4.67 5.275c0 .24-.12.36-.36.36H71.78c.144 1.18.644 2.16 1.5 2.95.974.84 2.2 1.26 3.673 1.26 1.305 0 2.48-.37 3.53-1.11.212-.14.39-.14.533 0l1.674 1.73c.19.19.19.36 0 .5-1.712 1.29-3.698 1.94-5.955 1.94-2.426 0-4.447-.81-6.063-2.44-1.57-1.6-2.353-3.65-2.353-6.14 0-2.34.77-4.33 2.31-5.95 1.43-1.482 3.28-2.223 5.56-2.223 2.16 0 3.98.776 5.45 2.33 1.52 1.604 2.222 3.613 2.103 6.03l-.037.79z"/>
</svg>
