<svg xmlns="http://www.w3.org/2000/svg" width="112" height="72" viewBox="0 0 112 72">
  <path fill="#33A662" fill-rule="evenodd" d="M61.335 47.11V31.308h-3.747l-4.154 6.682-4.154-6.682h-3.748V47.11h3.41V36.86l3.21 4.873h2.475l3.254-4.94V47.11h3.46m2.32-7.856v-.045c0-4.5 3.55-8.18 8.42-8.18 4.88 0 8.38 3.63 8.38 8.12v.042c0 4.492-3.54 8.17-8.42 8.17-4.873 0-8.372-3.634-8.372-8.126m13.16 0v-.04c0-2.71-1.985-4.967-4.785-4.967s-4.74 2.21-4.74 4.92v.043c0 2.71 1.986 4.966 4.786 4.966s4.74-2.21 4.74-4.92m5.95-7.945h6.163c4.963 0 8.395 3.41 8.395 7.85v.044c0 4.45-3.432 7.9-8.4 7.9H82.77V31.3zm6.16 12.67c2.845 0 4.763-1.92 4.763-4.72v-.05c0-2.8-1.918-4.765-4.76-4.765h-2.69v9.53h2.685zm11.102-12.67v15.81h12.034V44.01h-8.58V40.7h7.45v-3.095h-7.45V34.4h8.468v-3.093h-11.92m-63.6-7.863l-18.22 10.52L0 23.444V55l9.108-5.26V39.222l9.11 5.26 9.11-5.26V49.74l9.11 5.26V23.444"/>
</svg>
